SplineFontDB: 3.0
FontName: BreeSerif-Regular
FullName: BreeSerif-Regular
FamilyName: Bree Serif
Weight: Book
Copyright: Copyright (c) 2011, TypeTogether (www.type-together.com), with Reserved Font Names "Bree" and "Bree Serif"
Version: 1.001
ItalicAngle: 0
UnderlinePosition: -50
UnderlineWidth: 50
Ascent: 800
Descent: 200
sfntRevision: 0x00010042
LayerCount: 2
Layer: 0 1 "Back"  1
Layer: 1 1 "Fore"  0
XUID: [1021 288 713564382 5764570]
FSType: 0
OS2Version: 2
OS2_WeightWidthSlopeOnly: 0
OS2_UseTypoMetrics: 1
CreationTime: 1324049202
ModificationTime: 1324078114
PfmFamily: 17
TTFWeight: 400
TTFWidth: 5
LineGap: 0
VLineGap: 0
Panose: 2 0 5 3 4 0 0 2 0 4
OS2TypoAscent: 277
OS2TypoAOffset: 1
OS2TypoDescent: -81
OS2TypoDOffset: 1
OS2TypoLinegap: 0
OS2WinAscent: 0
OS2WinAOffset: 1
OS2WinDescent: 0
OS2WinDOffset: 1
HheadAscent: 0
HheadAOffset: 1
HheadDescent: 0
HheadDOffset: 1
OS2SubXSize: 700
OS2SubYSize: 650
OS2SubXOff: 0
OS2SubYOff: 140
OS2SupXSize: 700
OS2SupYSize: 650
OS2SupXOff: 0
OS2SupYOff: 477
OS2StrikeYSize: 50
OS2StrikeYPos: 250
OS2Vendor: 'TT  '
OS2CodePages: 20000093.00000000
OS2UnicodeRanges: a00000af.4000204b.00000000.00000000
Lookup: 258 0 0 "'kern' Horizontal Kerning in Latin lookup 0"  {"'kern' Horizontal Kerning in Latin lookup 0 subtable"  } ['kern' ('DFLT' <'dflt' > 'latn' <'dflt' > ) ]
MarkAttachClasses: 1
DEI: 91125
TtTable: prep
PUSHW_1
 511
SCANCTRL
PUSHB_1
 4
SCANTYPE
EndTTInstrs
ShortTable: maxp 16
  1
  0
  416
  79
  7
  53
  4
  2
  0
  1
  1
  0
  64
  0
  2
  1
EndShort
LangName: 1033 "" "" "" "TypeTogether: Bree Serif: 2011" "" "Version 1.001" "" "Bree Serif is a trademark of TypeTogether." "TypeTogether" "Veronika Burian, Jos+AI4A Scaglione" "" "www.type-together.com" "www.type-together.com" "This Font Software is licensed under the SIL Open Font License, Version 1.1. This license is available with a FAQ at: http://scripts.sil.org/OFL" "http://scripts.sil.org/OFL" 
GaspTable: 1 65535 15
Encoding: UnicodeBmp
UnicodeInterp: none

StartChar: exclam
Encoding: 33 33 5
Width: 277
GlyphClass: 2
Flags: W
LayerCount: 2
Fore
SplineSet
84 529 m 1,0,-1
 84 648 l 2,1,2
 84 695 84 695 140 695 c 128,-1,3
 196 695 196 695 196 646 c 2,4,-1
 196 529 l 1,5,-1
 176 180 l 1,6,-1
 105 180 l 1,7,-1
 84 529 l 1,0,-1
88.5 2 m 128,-1,9
 70 21 70 21 70 49 c 128,-1,10
 70 77 70 77 89 96.5 c 128,-1,11
 108 116 108 116 138.5 116 c 128,-1,12
 169 116 169 116 188 97.5 c 128,-1,13
 207 79 207 79 207 51 c 128,-1,14
 207 23 207 23 188.5 3 c 128,-1,15
 170 -17 170 -17 138.5 -17 c 128,-1,8
 107 -17 107 -17 88.5 2 c 128,-1,9
EndSplineSet
EndChar

StartChar: quotedbl
Encoding: 34 34 6
Width: 349
GlyphClass: 2
Flags: W
LayerCount: 2
Fore
SplineSet
56 665 m 1,0,-1
 149 665 l 1,1,-1
 139 435 l 1,2,-1
 66 435 l 1,3,-1
 56 665 l 1,0,-1
199 665 m 1,4,-1
 292 665 l 1,5,-1
 283 435 l 1,6,-1
 209 435 l 1,7,-1
 199 665 l 1,4,-1
EndSplineSet
EndChar

StartChar: numbersign
Encoding: 35 35 7
Width: 534
GlyphClass: 2
Flags: W
LayerCount: 2
Fore
SplineSet
289 0 m 1,0,-1
 302 157 l 1,1,-1
 192 157 l 1,2,-1
 179 0 l 1,3,-1
 106 0 l 1,4,-1
 119 157 l 1,5,-1
 18 157 l 1,6,-1
 18 223 l 1,7,-1
 125 223 l 1,8,-1
 139 379 l 1,9,-1
 37 379 l 1,10,-1
 37 445 l 1,11,-1
 144 445 l 1,12,-1
 159 605 l 1,13,-1
 232 605 l 1,14,-1
 217 445 l 1,15,-1
 327 445 l 1,16,-1
 342 605 l 1,17,-1
 415 605 l 1,18,-1
 400 445 l 1,19,-1
 501 445 l 1,20,-1
 501 379 l 1,21,-1
 395 379 l 1,22,-1
 381 223 l 1,23,-1
 482 223 l 1,24,-1
 482 157 l 1,25,-1
 375 157 l 1,26,-1
 362 0 l 1,27,-1
 289 0 l 1,0,-1
212 379 m 1,28,-1
 198 223 l 1,29,-1
 308 223 l 1,30,-1
 322 379 l 1,31,-1
 212 379 l 1,28,-1
EndSplineSet
EndChar

StartChar: dollar
Encoding: 36 36 8
Width: 535
GlyphClass: 2
Flags: W
LayerCount: 2
Fore
SplineSet
230 -91 m 1,0,-1
 230 9 l 1,1,2
 134 12 134 12 58 47 c 1,3,-1
 58 196 l 1,4,-1
 157 203 l 1,5,-1
 157 145 l 2,6,7
 157 131 157 131 161 124.5 c 128,-1,8
 165 118 165 118 182 112 c 128,-1,9
 199 106 199 106 230 106 c 1,10,-1
 230 293 l 1,11,12
 152 315 152 315 117 342 c 128,-1,13
 82 369 82 369 68.5 400 c 128,-1,14
 55 431 55 431 55 473 c 0,15,16
 55 547 55 547 102.5 595.5 c 128,-1,17
 150 644 150 644 230 655 c 1,18,-1
 230 747 l 1,19,-1
 305 747 l 1,20,-1
 305 657 l 1,21,22
 389 652 389 652 460 619 c 1,23,-1
 460 478 l 1,24,-1
 362 472 l 1,25,-1
 362 526 l 2,26,27
 362 540 362 540 358 546.5 c 128,-1,28
 354 553 354 553 337.5 558 c 128,-1,29
 321 563 321 563 305 564 c 1,30,-1
 305 388 l 1,31,-1
 306 388 l 1,32,33
 382 365 382 365 428 330 c 1,34,35
 486 288 486 288 486 205 c 128,-1,36
 486 122 486 122 436.5 73 c 128,-1,37
 387 24 387 24 305 12 c 1,38,-1
 305 -91 l 1,39,-1
 230 -91 l 1,0,-1
362 196 m 0,40,41
 362 246 362 246 305 269 c 1,42,-1
 305 113 l 1,43,44
 362 131 362 131 362 196 c 0,40,41
230 558 m 1,45,46
 178 540 178 540 178 489 c 128,-1,47
 178 438 178 438 230 414 c 1,48,-1
 230 558 l 1,45,46
EndSplineSet
EndChar

StartChar: percent
Encoding: 37 37 9
Width: 801
GlyphClass: 2
Flags: W
LayerCount: 2
Fore
SplineSet
499 303.5 m 128,-1,1
 542 351 542 351 614.5 351 c 128,-1,2
 687 351 687 351 728 306 c 128,-1,3
 769 261 769 261 769 171 c 128,-1,4
 769 81 769 81 727.5 33.5 c 128,-1,5
 686 -14 686 -14 610.5 -14 c 128,-1,6
 535 -14 535 -14 495.5 32 c 128,-1,7
 456 78 456 78 456 167 c 128,-1,0
 456 256 456 256 499 303.5 c 128,-1,1
611 55 m 0,8,9
 681 55 681 55 681 168.5 c 128,-1,10
 681 282 681 282 613 282 c 0,11,12
 543 282 543 282 543 168.5 c 128,-1,13
 543 55 543 55 611 55 c 0,8,9
77 609.5 m 128,-1,15
 120 657 120 657 192.5 657 c 128,-1,16
 265 657 265 657 306 612 c 128,-1,17
 347 567 347 567 347 477 c 128,-1,18
 347 387 347 387 305.5 339.5 c 128,-1,19
 264 292 264 292 188.5 292 c 128,-1,20
 113 292 113 292 73.5 338 c 128,-1,21
 34 384 34 384 34 473 c 128,-1,14
 34 562 34 562 77 609.5 c 128,-1,15
189 361 m 0,22,23
 259 361 259 361 259 474.5 c 128,-1,24
 259 588 259 588 191 588 c 0,25,26
 121 588 121 588 121 474.5 c 128,-1,27
 121 361 121 361 189 361 c 0,22,23
293 -9 m 1,28,-1
 214 27 l 1,29,-1
 506 653 l 1,30,-1
 587 619 l 1,31,-1
 293 -9 l 1,28,-1
EndSplineSet
EndChar

StartChar: ampersand
Encoding: 38 38 10
Width: 714
GlyphClass: 2
Flags: W
LayerCount: 2
Fore
SplineSet
475 220 m 1,0,1
 494 268 494 268 494 312 c 0,2,3
 494 326 494 326 476 328 c 2,4,-1
 444 330 l 1,5,-1
 444 408 l 1,6,-1
 655 408 l 1,7,-1
 655 327 l 1,8,-1
 600 325 l 1,9,10
 600 229 600 229 558 149 c 1,11,12
 603 111 603 111 684 53 c 1,13,-1
 618 -34 l 1,14,15
 558 6 558 6 492 60 c 1,16,17
 418 -14 418 -14 292 -14 c 128,-1,18
 166 -14 166 -14 108 45 c 128,-1,19
 50 104 50 104 50 189 c 0,20,21
 50 321 50 321 172 397 c 1,22,23
 141 448 141 448 141 507 c 0,24,25
 141 583 141 583 192 630 c 128,-1,26
 243 677 243 677 335.5 677 c 128,-1,27
 428 677 428 677 516 636 c 1,28,-1
 516 485 l 1,29,-1
 414 478 l 1,30,-1
 414 539 l 2,31,32
 414 567 414 567 393 574 c 0,33,34
 366 582 366 582 340 582 c 0,35,36
 259 582 259 582 259 505 c 0,37,38
 259 403 259 403 475 220 c 1,0,1
408 130 m 1,39,40
 288 232 288 232 227 314 c 1,41,42
 166 271 166 271 166 197 c 0,43,44
 166 146 166 146 197.5 114.5 c 128,-1,45
 229 83 229 83 297.5 83 c 128,-1,46
 366 83 366 83 408 130 c 1,39,40
EndSplineSet
EndChar

StartChar: quotesingle
Encoding: 39 39 11
Width: 205
GlyphClass: 2
Flags: W
LayerCount: 2
Fore
SplineSet
56 665 m 1,0,-1
 149 665 l 1,1,-1
 139 435 l 1,2,-1
 66 435 l 1,3,-1
 56 665 l 1,0,-1
EndSplineSet
EndChar

StartChar: parenleft
Encoding: 40 40 12
Width: 331
GlyphClass: 2
Flags: W
LayerCount: 2
Fore
SplineSet
201 -176 m 1,0,1
 69 48 69 48 69 273 c 128,-1,2
 69 498 69 498 201 729 c 1,3,-1
 296 685 l 1,4,5
 187 470 187 470 187 279 c 128,-1,6
 187 88 187 88 295 -131 c 1,7,-1
 201 -176 l 1,0,1
EndSplineSet
EndChar

StartChar: parenright
Encoding: 41 41 13
Width: 331
GlyphClass: 2
Flags: W
LayerCount: 2
Fore
SplineSet
130 731 m 1,0,1
 262 507 262 507 262 282 c 128,-1,2
 262 57 262 57 130 -174 c 1,3,-1
 35 -130 l 1,4,5
 144 85 144 85 144 276 c 128,-1,6
 144 467 144 467 36 686 c 1,7,-1
 130 731 l 1,0,1
EndSplineSet
EndChar

StartChar: asterisk
Encoding: 42 42 14
Width: 452
GlyphClass: 2
Flags: W
LayerCount: 2
Fore
SplineSet
179 557 m 1,0,-1
 45 579 l 1,1,-1
 52 623 l 2,2,3
 57 655 57 655 80 663 c 0,4,5
 87 665 87 665 94 665 c 1,6,-1
 126 653 l 1,7,-1
 203 599 l 1,8,-1
 171 741 l 1,9,-1
 213 752 l 2,10,11
 224 755 224 755 237 755 c 128,-1,12
 250 755 250 755 261.5 743 c 128,-1,13
 273 731 273 731 273 717.5 c 128,-1,14
 273 704 273 704 271 696 c 2,15,-1
 253 597 l 1,16,-1
 370 671 l 1,17,-1
 395 635 l 1,18,19
 406 617 406 617 406 605 c 0,20,21
 406 565 406 565 362 562 c 2,22,-1
 269 554 l 1,23,-1
 377 474 l 1,24,-1
 352 438 l 1,25,26
 334 414 334 414 314 414 c 0,27,28
 288 414 288 414 272 444 c 2,29,-1
 224 533 l 1,30,-1
 156 410 l 1,31,-1
 116 429 l 2,32,33
 86 443 86 443 86 468 c 128,-1,34
 86 493 86 493 110 508 c 1,35,-1
 179 557 l 1,0,-1
EndSplineSet
EndChar

StartChar: plus
Encoding: 43 43 15
Width: 535
GlyphClass: 2
Flags: W
LayerCount: 2
Fore
SplineSet
216 364 m 1,0,-1
 216 525 l 1,1,-1
 318 525 l 1,2,-1
 318 364 l 1,3,-1
 472 364 l 1,4,-1
 472 266 l 1,5,-1
 318 266 l 1,6,-1
 318 106 l 1,7,-1
 216 106 l 1,8,-1
 216 266 l 1,9,-1
 62 266 l 1,10,-1
 62 364 l 1,11,-1
 216 364 l 1,0,-1
EndSplineSet
EndChar

StartChar: comma
Encoding: 44 44 16
Width: 241
GlyphClass: 2
Flags: W
LayerCount: 2
Fore
SplineSet
202 79 m 1,0,-1
 99 -155 l 1,1,-1
 36 -136 l 1,2,-1
 67 67 l 2,3,4
 74 117 74 117 116 117 c 0,5,6
 137 117 137 117 148.5 110.5 c 128,-1,7
 160 104 160 104 167.5 100 c 128,-1,8
 175 96 175 96 178 94 c 128,-1,9
 181 92 181 92 190 86.5 c 128,-1,10
 199 81 199 81 202 79 c 1,0,-1
EndSplineSet
EndChar

StartChar: hyphen
Encoding: 45 45 17
Width: 322
GlyphClass: 2
Flags: W
LayerCount: 2
Fore
SplineSet
30 242 m 1,0,-1
 30 334 l 1,1,-1
 292 334 l 1,2,-1
 292 242 l 1,3,-1
 30 242 l 1,0,-1
EndSplineSet
EndChar

StartChar: period
Encoding: 46 46 18
Width: 226
GlyphClass: 2
Flags: W
LayerCount: 2
Fore
SplineSet
59 4.5 m 128,-1,1
 40 24 40 24 40 55.5 c 128,-1,2
 40 87 40 87 59.5 107.5 c 128,-1,3
 79 128 79 128 112.5 128 c 128,-1,4
 146 128 146 128 166 108.5 c 128,-1,5
 186 89 186 89 186 57.5 c 128,-1,6
 186 26 186 26 167 5.5 c 128,-1,7
 148 -15 148 -15 113 -15 c 128,-1,0
 78 -15 78 -15 59 4.5 c 128,-1,1
EndSplineSet
EndChar

StartChar: slash
Encoding: 47 47 19
Width: 428
GlyphClass: 2
Flags: W
LayerCount: 2
Fore
SplineSet
110 -110 m 1,0,-1
 8 -72 l 1,1,-1
 314 755 l 1,2,-1
 418 718 l 1,3,-1
 110 -110 l 1,0,-1
EndSplineSet
EndChar

StartChar: zero
Encoding: 48 48 20
Width: 535
GlyphClass: 2
Flags: W
LayerCount: 2
Fore
SplineSet
272 657 m 0,0,1
 499 657 499 657 499 328 c 0,2,3
 499 153 499 153 440 71.5 c 128,-1,4
 381 -10 381 -10 265 -10 c 128,-1,5
 149 -10 149 -10 92 70.5 c 128,-1,6
 35 151 35 151 35 321 c 128,-1,7
 35 491 35 491 98 574 c 128,-1,8
 161 657 161 657 272 657 c 0,0,1
267 86 m 128,-1,10
 321 86 321 86 350.5 139 c 128,-1,11
 380 192 380 192 380 323.5 c 128,-1,12
 380 455 380 455 351.5 507 c 128,-1,13
 323 559 323 559 268 559 c 128,-1,14
 213 559 213 559 184.5 503.5 c 128,-1,15
 156 448 156 448 156 318.5 c 128,-1,16
 156 189 156 189 184.5 137.5 c 128,-1,9
 213 86 213 86 267 86 c 128,-1,10
EndSplineSet
EndChar

StartChar: one
Encoding: 49 49 21
Width: 454
GlyphClass: 2
Flags: W
LayerCount: 2
Fore
SplineSet
205 121 m 2,0,-1
 205 514 l 1,1,-1
 88 454 l 1,2,-1
 44 531 l 1,3,-1
 226 644 l 1,4,-1
 324 644 l 1,5,-1
 324 90 l 1,6,-1
 428 85 l 1,7,-1
 428 0 l 1,8,-1
 80 0 l 1,9,-1
 80 82 l 1,10,-1
 176 88 l 2,11,12
 191 89 191 89 198 96 c 128,-1,13
 205 103 205 103 205 121 c 2,0,-1
EndSplineSet
EndChar

StartChar: two
Encoding: 50 50 22
Width: 513
GlyphClass: 2
Flags: W
LayerCount: 2
Fore
SplineSet
59 0 m 1,0,-1
 59 77 l 1,1,-1
 258 328 l 2,2,3
 289 368 289 368 299 381.5 c 128,-1,4
 309 395 309 395 318.5 419.5 c 128,-1,5
 328 444 328 444 328 478.5 c 128,-1,6
 328 513 328 513 304.5 535 c 128,-1,7
 281 557 281 557 244.5 557 c 128,-1,8
 208 557 208 557 189.5 551 c 128,-1,9
 171 545 171 545 167.5 537.5 c 128,-1,10
 164 530 164 530 164 514 c 2,11,-1
 164 443 l 1,12,-1
 62 450 l 1,13,-1
 62 610 l 1,14,15
 156 657 156 657 255 657 c 128,-1,16
 354 657 354 657 404 608.5 c 128,-1,17
 454 560 454 560 454 476 c 128,-1,18
 454 392 454 392 369 289 c 1,19,-1
 208 99 l 1,20,-1
 458 99 l 1,21,-1
 458 0 l 1,22,-1
 59 0 l 1,0,-1
EndSplineSet
EndChar

StartChar: three
Encoding: 51 51 23
Width: 522
GlyphClass: 2
Flags: W
LayerCount: 2
Fore
SplineSet
167 373 m 1,0,-1
 270 373 l 1,1,2
 330 411 330 411 330 480 c 0,3,4
 330 557 330 557 243 557 c 0,5,6
 211 557 211 557 189.5 550 c 128,-1,7
 168 543 168 543 164.5 535.5 c 128,-1,8
 161 528 161 528 161 512 c 2,9,-1
 161 440 l 1,10,-1
 59 447 l 1,11,-1
 59 607 l 1,12,13
 159 657 159 657 257 657 c 128,-1,14
 355 657 355 657 403.5 612.5 c 128,-1,15
 452 568 452 568 452 497 c 0,16,17
 452 445 452 445 427 402.5 c 128,-1,18
 402 360 402 360 361 334 c 1,19,20
 462 302 462 302 462 192 c 0,21,22
 462 100 462 100 405 43.5 c 128,-1,23
 348 -13 348 -13 236 -13 c 0,24,25
 181 -13 181 -13 126.5 2 c 128,-1,26
 72 17 72 17 40 37 c 1,27,-1
 75 132 l 1,28,29
 154 88 154 88 232 88 c 0,30,31
 341 88 341 88 341 185 c 0,32,33
 341 235 341 235 308 258.5 c 128,-1,34
 275 282 275 282 196 282 c 2,35,-1
 158 282 l 1,36,-1
 167 373 l 1,0,-1
EndSplineSet
EndChar

StartChar: four
Encoding: 52 52 24
Width: 536
GlyphClass: 2
Flags: W
LayerCount: 2
Fore
SplineSet
347 462 m 1,0,-1
 417 462 l 1,1,-1
 417 275 l 1,2,-1
 506 275 l 1,3,-1
 506 180 l 1,4,-1
 416 180 l 1,5,-1
 416 90 l 1,6,-1
 499 85 l 1,7,-1
 499 0 l 1,8,-1
 205 0 l 1,9,-1
 205 82 l 1,10,-1
 267 87 l 2,11,12
 296 89 296 89 296 115 c 2,13,-1
 296 181 l 1,14,-1
 40 181 l 1,15,-1
 40 264 l 1,16,-1
 228 659 l 1,17,-1
 323 612 l 1,18,-1
 162 275 l 1,19,-1
 305 275 l 1,20,-1
 305 329 l 1,21,-1
 347 462 l 1,0,-1
EndSplineSet
EndChar

StartChar: five
Encoding: 53 53 25
Width: 507
GlyphClass: 2
Flags: W
LayerCount: 2
Fore
SplineSet
442 549 m 1,0,-1
 213 549 l 1,1,-1
 193 396 l 1,2,3
 305 388 305 388 375.5 337.5 c 128,-1,4
 446 287 446 287 446 188 c 0,5,6
 446 107 446 107 392 48 c 128,-1,7
 338 -11 338 -11 224 -11 c 0,8,9
 168 -11 168 -11 114.5 4 c 128,-1,10
 61 19 61 19 29 39 c 1,11,-1
 69 131 l 1,12,13
 147 88 147 88 219 88 c 0,14,15
 321 88 321 88 321 186 c 0,16,17
 321 308 321 308 82 308 c 1,18,-1
 125 644 l 1,19,-1
 324 644 l 2,20,21
 347 644 347 644 347 672 c 2,22,-1
 347 715 l 1,23,-1
 442 708 l 1,24,-1
 442 549 l 1,0,-1
EndSplineSet
EndChar

StartChar: six
Encoding: 54 54 26
Width: 534
GlyphClass: 2
Flags: W
LayerCount: 2
Fore
SplineSet
395 671 m 1,0,-1
 418 581 l 1,1,2
 204 554 204 554 179 369 c 1,3,4
 242 410 242 410 319.5 410 c 128,-1,5
 397 410 397 410 443 358 c 128,-1,6
 489 306 489 306 489 210.5 c 128,-1,7
 489 115 489 115 432.5 52 c 128,-1,8
 376 -11 376 -11 267.5 -11 c 128,-1,9
 159 -11 159 -11 106.5 67 c 128,-1,10
 54 145 54 145 54 276 c 0,11,12
 54 633 54 633 395 671 c 1,0,-1
372 211 m 0,13,14
 372 325 372 325 283 325 c 0,15,16
 257 325 257 325 223.5 313 c 128,-1,17
 190 301 190 301 172 286 c 1,18,19
 172 276 172 276 172 266 c 0,20,21
 172 187 172 187 195 134 c 128,-1,22
 218 81 218 81 275 81 c 0,23,24
 318 81 318 81 345 115.5 c 128,-1,25
 372 150 372 150 372 211 c 0,13,14
EndSplineSet
EndChar

StartChar: seven
Encoding: 55 55 27
Width: 475
GlyphClass: 2
Flags: W
LayerCount: 2
Fore
SplineSet
23 644 m 1,0,-1
 455 644 l 1,1,-1
 455 561 l 1,2,-1
 226 0 l 1,3,-1
 101 0 l 1,4,-1
 336 545 l 1,5,-1
 147 545 l 2,6,7
 125 545 125 545 125 514 c 2,8,-1
 125 474 l 1,9,-1
 23 481 l 1,10,-1
 23 644 l 1,0,-1
EndSplineSet
EndChar

StartChar: eight
Encoding: 56 56 28
Width: 535
GlyphClass: 2
Flags: W
LayerCount: 2
Fore
SplineSet
47 159 m 0,0,1
 47 270 47 270 169 341 c 1,2,3
 68 403 68 403 68 490 c 0,4,5
 68 562 68 562 124 609.5 c 128,-1,6
 180 657 180 657 274 657 c 128,-1,7
 368 657 368 657 415.5 613.5 c 128,-1,8
 463 570 463 570 463 507 c 0,9,10
 463 427 463 427 368 347 c 1,11,12
 490 276 490 276 490 173 c 0,13,14
 490 94 490 94 433 41.5 c 128,-1,15
 376 -11 376 -11 262.5 -11 c 128,-1,16
 149 -11 149 -11 98 39.5 c 128,-1,17
 47 90 47 90 47 159 c 0,0,1
335.5 104 m 128,-1,19
 362 128 362 128 362 169 c 128,-1,20
 362 210 362 210 334 237.5 c 128,-1,21
 306 265 306 265 251 293 c 1,22,23
 209 265 209 265 186.5 236.5 c 128,-1,24
 164 208 164 208 164 169.5 c 128,-1,25
 164 131 164 131 189.5 105.5 c 128,-1,26
 215 80 215 80 262 80 c 128,-1,18
 309 80 309 80 335.5 104 c 128,-1,19
328.5 553 m 128,-1,28
 305 572 305 572 268.5 572 c 128,-1,29
 232 572 232 572 208 550.5 c 128,-1,30
 184 529 184 529 184 497 c 0,31,32
 184 437 184 437 279 389 c 1,33,34
 309 409 309 409 330.5 439.5 c 128,-1,35
 352 470 352 470 352 502 c 128,-1,27
 352 534 352 534 328.5 553 c 128,-1,28
EndSplineSet
EndChar

StartChar: nine
Encoding: 57 57 29
Width: 535
GlyphClass: 2
Flags: W
LayerCount: 2
Fore
SplineSet
139 -12 m 1,0,-1
 115 81 l 1,1,2
 230 94 230 94 290 142 c 128,-1,3
 350 190 350 190 361 274 c 1,4,5
 303 236 303 236 222 236 c 128,-1,6
 141 236 141 236 95.5 288 c 128,-1,7
 50 340 50 340 50 435 c 128,-1,8
 50 530 50 530 107 593.5 c 128,-1,9
 164 657 164 657 273 657 c 128,-1,10
 382 657 382 657 433 579 c 128,-1,11
 484 501 484 501 484 370 c 0,12,13
 484 19 484 19 139 -12 c 1,0,-1
194 530 m 128,-1,15
 167 496 167 496 167 439 c 128,-1,16
 167 382 167 382 190 352.5 c 128,-1,17
 213 323 213 323 247.5 323 c 128,-1,18
 282 323 282 323 315.5 334.5 c 128,-1,19
 349 346 349 346 367 360 c 1,20,21
 367 369 367 369 367 378 c 0,22,23
 367 564 367 564 266 564 c 0,24,14
 221 564 221 564 194 530 c 128,-1,15
EndSplineSet
EndChar

StartChar: semicolon
Encoding: 59 59 31
Width: 241
GlyphClass: 2
Flags: W
LayerCount: 2
Fore
SplineSet
87 372.5 m 128,-1,1
 68 392 68 392 68 423.5 c 128,-1,2
 68 455 68 455 87.5 475.5 c 128,-1,3
 107 496 107 496 140.5 496 c 128,-1,4
 174 496 174 496 194 476.5 c 128,-1,5
 214 457 214 457 214 425.5 c 128,-1,6
 214 394 214 394 195 373.5 c 128,-1,7
 176 353 176 353 141 353 c 128,-1,0
 106 353 106 353 87 372.5 c 128,-1,1
202 79 m 1,8,-1
 99 -155 l 1,9,-1
 36 -136 l 1,10,-1
 67 67 l 2,11,12
 74 117 74 117 116 117 c 0,13,14
 137 117 137 117 148.5 110.5 c 128,-1,15
 160 104 160 104 167.5 100 c 128,-1,16
 175 96 175 96 178 94 c 128,-1,17
 181 92 181 92 190 86.5 c 128,-1,18
 199 81 199 81 202 79 c 1,8,-1
EndSplineSet
EndChar

StartChar: less
Encoding: 60 60 32
Width: 535
GlyphClass: 2
Flags: W
LayerCount: 2
Fore
SplineSet
434 537 m 1,0,-1
 474 448 l 1,1,-1
 201 322 l 1,2,-1
 476 190 l 1,3,-1
 434 100 l 1,4,-1
 68 280 l 1,5,-1
 68 358 l 1,6,-1
 434 537 l 1,0,-1
EndSplineSet
EndChar

StartChar: equal
Encoding: 61 61 33
Width: 535
GlyphClass: 2
Flags: W
LayerCount: 2
Fore
SplineSet
470 450 m 1,0,-1
 470 354 l 1,1,-1
 65 354 l 1,2,-1
 65 450 l 1,3,-1
 470 450 l 1,0,-1
470 259 m 1,4,-1
 470 162 l 1,5,-1
 65 162 l 1,6,-1
 65 259 l 1,7,-1
 470 259 l 1,4,-1
EndSplineSet
EndChar

StartChar: greater
Encoding: 62 62 34
Width: 535
GlyphClass: 2
Flags: W
LayerCount: 2
Fore
SplineSet
70 448 m 1,0,-1
 110 537 l 1,1,-1
 476 358 l 1,2,-1
 476 280 l 1,3,-1
 110 100 l 1,4,-1
 68 190 l 1,5,-1
 343 322 l 1,6,-1
 70 448 l 1,0,-1
EndSplineSet
EndChar

StartChar: question
Encoding: 63 63 35
Width: 433
GlyphClass: 2
Flags: W
LayerCount: 2
Fore
SplineSet
281 538 m 0,0,1
 281 601 281 601 212 601 c 0,2,3
 189 601 189 601 169 595.5 c 128,-1,4
 149 590 149 590 145.5 582 c 128,-1,5
 142 574 142 574 142 558 c 2,6,-1
 142 505 l 1,7,-1
 40 512 l 1,8,-1
 40 649 l 1,9,10
 136 695 136 695 223.5 695 c 128,-1,11
 311 695 311 695 354 654 c 128,-1,12
 397 613 397 613 397 547.5 c 128,-1,13
 397 482 397 482 370.5 444.5 c 128,-1,14
 344 407 344 407 302 376.5 c 128,-1,15
 260 346 260 346 249 332 c 128,-1,16
 238 318 238 318 237 290 c 2,17,-1
 232 180 l 1,18,-1
 136 180 l 1,19,-1
 131 285 l 2,20,21
 131 293 131 293 131 300 c 0,22,23
 131 344 131 344 147 373 c 0,24,25
 165 405 165 405 226 449 c 0,26,27
 259 473 259 473 264 481.5 c 128,-1,28
 269 490 269 490 274 498 c 1,29,30
 281 513 281 513 281 538 c 0,0,1
134.5 2 m 128,-1,32
 116 21 116 21 116 49 c 128,-1,33
 116 77 116 77 135 96.5 c 128,-1,34
 154 116 154 116 184.5 116 c 128,-1,35
 215 116 215 116 234 97.5 c 128,-1,36
 253 79 253 79 253 51 c 128,-1,37
 253 23 253 23 234.5 3 c 128,-1,38
 216 -17 216 -17 184.5 -17 c 128,-1,31
 153 -17 153 -17 134.5 2 c 128,-1,32
EndSplineSet
EndChar

StartChar: at
Encoding: 64 64 36
Width: 953
GlyphClass: 2
Flags: W
LayerCount: 2
Fore
SplineSet
798 284 m 0,0,1
 798 415 798 415 723 492.5 c 128,-1,2
 648 570 648 570 492 570 c 128,-1,3
 336 570 336 570 247.5 471 c 128,-1,4
 159 372 159 372 159 219.5 c 128,-1,5
 159 67 159 67 238.5 -25 c 128,-1,6
 318 -117 318 -117 461 -117 c 0,7,8
 550 -117 550 -117 619 -86 c 1,9,-1
 644 -159 l 1,10,11
 565 -193 565 -193 461.5 -193 c 128,-1,12
 358 -193 358 -193 281 -159.5 c 128,-1,13
 204 -126 204 -126 158 -68 c 0,14,15
 67 45 67 45 67 212 c 0,16,17
 67 418 67 418 190 533 c 128,-1,18
 313 648 313 648 506 648 c 0,19,20
 677 648 677 648 781 553.5 c 128,-1,21
 885 459 885 459 885 287 c 0,22,23
 885 147 885 147 817 74 c 128,-1,24
 749 1 749 1 636 0 c 1,25,-1
 579 0 l 1,26,-1
 571 54 l 1,27,-1
 568 55 l 1,28,29
 529 -3 529 -3 450 -3 c 0,30,31
 287 -3 287 -3 287 201 c 0,32,33
 287 317 287 317 343.5 381 c 128,-1,34
 400 445 400 445 504 445 c 0,35,36
 576 445 576 445 654 416 c 1,37,-1
 654 123 l 1,38,-1
 658 70 l 1,39,40
 798 79 798 79 798 284 c 0,0,1
555 361 m 1,41,42
 531 372 531 372 498 372 c 0,43,44
 385 371 385 371 385 204 c 0,45,46
 385 71 385 71 473 71 c 0,47,48
 555 71 555 71 555 167 c 2,49,-1
 555 361 l 1,41,42
EndSplineSet
EndChar

StartChar: A
Encoding: 65 65 37
Width: 662
GlyphClass: 2
Flags: W
LayerCount: 2
Fore
SplineSet
68 112 m 2,0,-1
 229 578 l 1,1,-1
 166 584 l 1,2,-1
 166 665 l 1,3,-1
 395 665 l 1,4,-1
 599 88 l 1,5,-1
 600 88 l 1,6,-1
 657 85 l 1,7,-1
 657 0 l 1,8,-1
 399 0 l 1,9,-1
 399 81 l 1,10,-1
 437 84 l 2,11,12
 454 86 454 86 460 92 c 128,-1,13
 466 98 466 98 461 114 c 2,14,-1
 440 176 l 1,15,-1
 206 176 l 1,16,-1
 176 88 l 1,17,-1
 236 85 l 1,18,-1
 236 0 l 1,19,-1
 5 0 l 1,20,-1
 5 81 l 1,21,-1
 38 84 l 2,22,23
 59 86 59 86 68 112 c 2,0,-1
323 553 m 1,24,-1
 230 268 l 1,25,-1
 416 268 l 1,26,-1
 326 553 l 1,27,-1
 323 553 l 1,24,-1
EndSplineSet
EndChar

StartChar: B
Encoding: 66 66 38
Width: 602
GlyphClass: 2
Flags: W
LayerCount: 2
Fore
SplineSet
39 665 m 1,0,-1
 321 665 l 2,1,2
 537 665 537 665 537 498 c 0,3,4
 537 406 537 406 445 358 c 1,5,6
 504 343 504 343 537.5 303 c 128,-1,7
 571 263 571 263 571 199 c 0,8,9
 571 102 571 102 505.5 51 c 128,-1,10
 440 0 440 0 315 0 c 2,11,-1
 34 0 l 1,12,-1
 34 81 l 1,13,-1
 67 84 l 2,14,15
 96 87 96 87 96 112 c 2,16,-1
 96 577 l 1,17,-1
 39 580 l 1,18,-1
 39 665 l 1,0,-1
218 303 m 1,19,-1
 218 94 l 1,20,-1
 312 94 l 2,21,22
 442 94 442 94 442 200 c 0,23,24
 442 250 442 250 409.5 276.5 c 128,-1,25
 377 303 377 303 317 303 c 2,26,-1
 218 303 l 1,19,-1
218 573 m 1,27,-1
 218 392 l 1,28,-1
 292 392 l 2,29,30
 354 392 354 392 383.5 417.5 c 128,-1,31
 413 443 413 443 413 489 c 128,-1,32
 413 535 413 535 383.5 554 c 128,-1,33
 354 573 354 573 299 573 c 2,34,-1
 218 573 l 1,27,-1
EndSplineSet
EndChar

StartChar: C
Encoding: 67 67 39
Width: 602
GlyphClass: 2
Flags: W
LayerCount: 2
Fore
SplineSet
436 559 m 0,0,1
 425 578 425 578 354 578 c 0,2,3
 261 578 261 578 213 515 c 128,-1,4
 165 452 165 452 165 333 c 0,5,6
 165 86 165 86 350 86 c 0,7,8
 353 86 353 86 376.5 86 c 128,-1,9
 400 86 400 86 421 92.5 c 128,-1,10
 442 99 442 99 446 106 c 128,-1,11
 450 113 450 113 450 128 c 2,12,-1
 450 208 l 1,13,-1
 552 201 l 1,14,-1
 552 28 l 1,15,16
 474 -13 474 -13 354 -13 c 0,17,18
 201 -13 201 -13 120.5 73 c 128,-1,19
 40 159 40 159 40 329 c 0,20,21
 40 423 40 423 67 493 c 128,-1,22
 94 563 94 563 140 602 c 0,23,24
 230 677 230 677 354 677 c 0,25,26
 454 677 454 677 542 636 c 1,27,-1
 542 466 l 1,28,-1
 440 459 l 1,29,-1
 440 537 l 2,30,31
 440 552 440 552 436 559 c 0,0,1
EndSplineSet
EndChar

StartChar: D
Encoding: 68 68 40
Width: 665
GlyphClass: 2
Flags: W
LayerCount: 2
Fore
SplineSet
34 0 m 1,0,-1
 34 81 l 1,1,-1
 67 84 l 2,2,3
 96 87 96 87 96 112 c 2,4,-1
 96 577 l 1,5,-1
 39 580 l 1,6,-1
 39 665 l 1,7,-1
 313 665 l 2,8,9
 460 665 460 665 542.5 587 c 128,-1,10
 625 509 625 509 625 356 c 0,11,12
 625 261 625 261 600 190.5 c 128,-1,13
 575 120 575 120 532 80 c 0,14,15
 446 0 446 0 318 0 c 2,16,-1
 34 0 l 1,0,-1
218 568 m 1,17,-1
 218 96 l 1,18,-1
 320 96 l 2,19,20
 406 96 406 96 454 158 c 128,-1,21
 502 220 502 220 502 338 c 0,22,23
 502 568 502 568 307 568 c 2,24,-1
 218 568 l 1,17,-1
EndSplineSet
EndChar

StartChar: E
Encoding: 69 69 41
Width: 549
GlyphClass: 2
Flags: W
LayerCount: 2
Fore
SplineSet
509 0 m 1,0,-1
 34 0 l 1,1,-1
 34 81 l 1,2,-1
 67 84 l 2,3,4
 96 87 96 87 96 112 c 2,5,-1
 96 577 l 1,6,-1
 39 580 l 1,7,-1
 39 665 l 1,8,-1
 497 665 l 1,9,-1
 497 499 l 1,10,-1
 395 492 l 1,11,-1
 395 532 l 2,12,13
 395 549 395 549 390 556 c 128,-1,14
 385 563 385 563 366 563 c 2,15,-1
 218 563 l 1,16,-1
 218 392 l 1,17,-1
 449 392 l 1,18,-1
 449 290 l 1,19,-1
 218 290 l 1,20,-1
 218 103 l 1,21,-1
 379 103 l 2,22,23
 397 103 397 103 402 110.5 c 128,-1,24
 407 118 407 118 407 135 c 2,25,-1
 407 185 l 1,26,-1
 509 178 l 1,27,-1
 509 0 l 1,0,-1
EndSplineSet
EndChar

StartChar: F
Encoding: 70 70 42
Width: 543
GlyphClass: 2
Flags: W
LayerCount: 2
Fore
SplineSet
34 0 m 1,0,-1
 34 81 l 1,1,-1
 67 84 l 2,2,3
 96 87 96 87 96 112 c 2,4,-1
 96 577 l 1,5,-1
 39 580 l 1,6,-1
 39 665 l 1,7,-1
 522 665 l 1,8,-1
 522 499 l 1,9,-1
 420 492 l 1,10,-1
 420 532 l 2,11,12
 420 549 420 549 415 556 c 128,-1,13
 410 563 410 563 391 563 c 2,14,-1
 218 563 l 1,15,-1
 218 386 l 1,16,-1
 464 386 l 1,17,-1
 464 284 l 1,18,-1
 218 284 l 1,19,-1
 218 88 l 1,20,-1
 307 85 l 1,21,-1
 307 0 l 1,22,-1
 34 0 l 1,0,-1
EndSplineSet
EndChar

StartChar: G
Encoding: 71 71 43
Width: 641
GlyphClass: 2
Flags: W
LayerCount: 2
Fore
SplineSet
564 233 m 2,0,-1
 564 52 l 1,1,2
 471 -12 471 -12 333 -12 c 128,-1,3
 195 -12 195 -12 117.5 74.5 c 128,-1,4
 40 161 40 161 40 331 c 0,5,6
 40 406 40 406 59.5 466 c 128,-1,7
 79 526 79 526 110.5 565 c 128,-1,8
 142 604 142 604 184 630 c 1,9,10
 264 677 264 677 365.5 677 c 128,-1,11
 467 677 467 677 555 636 c 1,12,-1
 555 466 l 1,13,-1
 453 459 l 1,14,-1
 453 537 l 2,15,16
 453 552 453 552 449 559 c 0,17,18
 438 578 438 578 358 578 c 0,19,20
 165 578 165 578 165 339 c 0,21,22
 165 87 165 87 339 87 c 0,23,24
 408 87 408 87 445 111 c 1,25,-1
 445 260 l 1,26,-1
 444 260 l 1,27,-1
 367 263 l 1,28,-1
 367 348 l 1,29,-1
 616 348 l 1,30,-1
 616 268 l 1,31,-1
 593 266 l 2,32,33
 577 264 577 264 570.5 257.5 c 128,-1,34
 564 251 564 251 564 233 c 2,0,-1
EndSplineSet
EndChar

StartChar: H
Encoding: 72 72 44
Width: 712
GlyphClass: 2
Flags: W
LayerCount: 2
Fore
SplineSet
499 117 m 2,0,-1
 499 290 l 1,1,-1
 216 290 l 1,2,-1
 216 88 l 1,3,-1
 274 85 l 1,4,-1
 274 0 l 1,5,-1
 32 0 l 1,6,-1
 32 81 l 1,7,-1
 65 84 l 2,8,9
 94 87 94 87 94 112 c 2,10,-1
 94 577 l 1,11,-1
 37 580 l 1,12,-1
 37 665 l 1,13,-1
 279 665 l 1,14,-1
 279 584 l 1,15,-1
 246 581 l 2,16,17
 230 579 230 579 223 572.5 c 128,-1,18
 216 566 216 566 216 548 c 2,19,-1
 216 393 l 1,20,-1
 499 393 l 1,21,-1
 499 577 l 1,22,-1
 442 580 l 1,23,-1
 442 665 l 1,24,-1
 684 665 l 1,25,-1
 684 584 l 1,26,-1
 651 581 l 2,27,28
 622 578 622 578 622 549 c 2,29,-1
 622 88 l 1,30,-1
 679 85 l 1,31,-1
 679 0 l 1,32,-1
 437 0 l 1,33,-1
 437 81 l 1,34,-1
 470 84 l 2,35,36
 485 86 485 86 492 92.5 c 128,-1,37
 499 99 499 99 499 117 c 2,0,-1
EndSplineSet
EndChar

StartChar: I
Encoding: 73 73 45
Width: 307
GlyphClass: 2
Flags: W
LayerCount: 2
Fore
SplineSet
94 117 m 2,0,-1
 94 577 l 1,1,-1
 37 580 l 1,2,-1
 37 665 l 1,3,-1
 279 665 l 1,4,-1
 279 584 l 1,5,-1
 246 581 l 2,6,7
 217 578 217 578 217 549 c 2,8,-1
 217 88 l 1,9,-1
 274 85 l 1,10,-1
 274 0 l 1,11,-1
 32 0 l 1,12,-1
 32 81 l 1,13,-1
 65 84 l 2,14,15
 80 86 80 86 87 92.5 c 128,-1,16
 94 99 94 99 94 117 c 2,0,-1
EndSplineSet
EndChar

StartChar: J
Encoding: 74 74 46
Width: 474
GlyphClass: 2
Flags: W
LayerCount: 2
Fore
SplineSet
393 134 m 0,0,1
 376 -13 376 -13 196 -13 c 0,2,3
 102 -13 102 -13 28 29 c 1,4,-1
 28 204 l 1,5,-1
 130 211 l 1,6,-1
 130 132 l 2,7,8
 130 117 130 117 134 110 c 128,-1,9
 138 103 138 103 155 96.5 c 128,-1,10
 172 90 172 90 207.5 90 c 128,-1,11
 243 90 243 90 259 111.5 c 128,-1,12
 275 133 275 133 275 181 c 2,13,-1
 275 576 l 1,14,-1
 197 580 l 1,15,-1
 197 665 l 1,16,-1
 459 665 l 1,17,-1
 459 584 l 1,18,-1
 426 581 l 2,19,20
 397 578 397 578 397 550 c 2,21,-1
 397 239 l 2,22,23
 397 168 397 168 393 134 c 0,0,1
EndSplineSet
EndChar

StartChar: K
Encoding: 75 75 47
Width: 622
GlyphClass: 2
Flags: W
LayerCount: 2
Fore
SplineSet
94 117 m 2,0,-1
 94 577 l 1,1,-1
 37 580 l 1,2,-1
 37 665 l 1,3,-1
 277 665 l 1,4,-1
 277 584 l 1,5,-1
 244 581 l 2,6,7
 215 578 215 578 215 549 c 2,8,-1
 215 329 l 1,9,-1
 419 577 l 1,10,-1
 363 580 l 1,11,-1
 363 665 l 1,12,-1
 597 665 l 1,13,-1
 597 584 l 1,14,-1
 564 581 l 2,15,16
 545 579 545 579 524 553 c 2,17,-1
 382 379 l 1,18,-1
 559 88 l 1,19,-1
 612 85 l 1,20,-1
 612 0 l 1,21,-1
 356 0 l 1,22,-1
 356 81 l 1,23,-1
 387 84 l 2,24,25
 407 86 407 86 407 100 c 0,26,27
 407 106 407 106 402 116 c 2,28,-1
 303 287 l 1,29,-1
 215 181 l 1,30,-1
 215 88 l 1,31,-1
 272 85 l 1,32,-1
 272 0 l 1,33,-1
 32 0 l 1,34,-1
 32 81 l 1,35,-1
 65 84 l 2,36,37
 80 86 80 86 87 92.5 c 128,-1,38
 94 99 94 99 94 117 c 2,0,-1
EndSplineSet
EndChar

StartChar: L
Encoding: 76 76 48
Width: 537
GlyphClass: 2
Flags: W
LayerCount: 2
Fore
SplineSet
507 0 m 1,0,-1
 32 0 l 1,1,-1
 32 81 l 1,2,-1
 65 84 l 2,3,4
 94 87 94 87 94 112 c 2,5,-1
 94 577 l 1,6,-1
 37 580 l 1,7,-1
 37 665 l 1,8,-1
 278 665 l 1,9,-1
 278 584 l 1,10,-1
 245 581 l 2,11,12
 216 578 216 578 216 549 c 2,13,-1
 216 103 l 1,14,-1
 382 103 l 2,15,16
 396 103 396 103 400.5 110.5 c 128,-1,17
 405 118 405 118 405 135 c 2,18,-1
 405 205 l 1,19,-1
 507 198 l 1,20,-1
 507 0 l 1,0,-1
EndSplineSet
EndChar

StartChar: M
Encoding: 77 77 49
Width: 834
GlyphClass: 2
Flags: W
LayerCount: 2
Fore
SplineSet
248 665 m 1,0,-1
 418 213 l 1,1,-1
 420 213 l 1,2,-1
 591 665 l 1,3,-1
 789 665 l 1,4,-1
 789 584 l 1,5,-1
 756 581 l 2,6,7
 726 578 726 578 727 546 c 2,8,-1
 752 88 l 1,9,-1
 814 85 l 1,10,-1
 814 0 l 1,11,-1
 573 0 l 1,12,-1
 573 81 l 1,13,-1
 609 84 l 2,14,15
 636 86 636 86 635 110 c 2,16,-1
 616 463 l 1,17,-1
 614 463 l 1,18,-1
 460 64 l 1,19,-1
 365 64 l 1,20,-1
 213 459 l 1,21,-1
 211 459 l 1,22,-1
 191 88 l 1,23,-1
 256 85 l 1,24,-1
 256 0 l 1,25,-1
 20 0 l 1,26,-1
 20 81 l 1,27,-1
 56 84 l 2,28,29
 79 86 79 86 81 111 c 2,30,-1
 108 576 l 1,31,-1
 47 580 l 1,32,-1
 47 665 l 1,33,-1
 248 665 l 1,0,-1
EndSplineSet
EndChar

StartChar: N
Encoding: 78 78 50
Width: 705
GlyphClass: 2
Flags: W
LayerCount: 2
Fore
SplineSet
32 0 m 1,0,-1
 32 81 l 1,1,-1
 68 84 l 2,2,3
 94 86 94 86 94 112 c 2,4,-1
 94 577 l 1,5,-1
 37 580 l 1,6,-1
 37 665 l 1,7,-1
 217 665 l 1,8,-1
 500 206 l 1,9,-1
 502 206 l 1,10,-1
 502 577 l 1,11,-1
 436 580 l 1,12,-1
 436 665 l 1,13,-1
 680 665 l 1,14,-1
 680 584 l 1,15,-1
 644 581 l 2,16,17
 620 579 620 579 620 550 c 2,18,-1
 620 0 l 1,19,-1
 503 0 l 1,20,-1
 214 466 l 1,21,-1
 212 466 l 1,22,-1
 212 88 l 1,23,-1
 277 85 l 1,24,-1
 277 0 l 1,25,-1
 32 0 l 1,0,-1
EndSplineSet
EndChar

StartChar: O
Encoding: 79 79 51
Width: 664
GlyphClass: 2
Flags: W
LayerCount: 2
Fore
SplineSet
544 593 m 128,-1,1
 624 509 624 509 624 336.5 c 128,-1,2
 624 164 624 164 544.5 75.5 c 128,-1,3
 465 -13 465 -13 329.5 -13 c 128,-1,4
 194 -13 194 -13 117 75 c 128,-1,5
 40 163 40 163 40 331 c 0,6,7
 40 423 40 423 67 492.5 c 128,-1,8
 94 562 94 562 138 600 c 0,9,10
 227 677 227 677 345.5 677 c 128,-1,0
 464 677 464 677 544 593 c 128,-1,1
165 336 m 0,11,12
 165 88 165 88 337 88 c 0,13,14
 429 88 429 88 466 164 c 1,15,16
 500 231 500 231 500 328 c 0,17,18
 500 415 500 415 470 488 c 0,19,20
 453 528 453 528 418.5 551 c 128,-1,21
 384 574 384 574 329 574 c 128,-1,22
 274 574 274 574 234.5 538 c 128,-1,23
 195 502 195 502 180 451 c 128,-1,24
 165 400 165 400 165 336 c 0,11,12
EndSplineSet
EndChar

StartChar: P
Encoding: 80 80 52
Width: 590
GlyphClass: 2
Flags: W
LayerCount: 2
Fore
SplineSet
32 0 m 1,0,-1
 32 81 l 1,1,-1
 65 84 l 2,2,3
 94 87 94 87 94 112 c 2,4,-1
 94 577 l 1,5,-1
 37 580 l 1,6,-1
 37 665 l 1,7,-1
 323 665 l 2,8,9
 435 665 435 665 497.5 612.5 c 128,-1,10
 560 560 560 560 560 455 c 128,-1,11
 560 350 560 350 489 291.5 c 128,-1,12
 418 233 418 233 301 233 c 2,13,-1
 216 233 l 1,14,-1
 216 88 l 1,15,-1
 312 85 l 1,16,-1
 312 0 l 1,17,-1
 32 0 l 1,0,-1
216 330 m 1,18,-1
 288 330 l 2,19,20
 434 330 434 330 434 449 c 0,21,22
 434 521 434 521 396.5 544.5 c 128,-1,23
 359 568 359 568 277 568 c 2,24,-1
 216 568 l 1,25,-1
 216 330 l 1,18,-1
EndSplineSet
EndChar

StartChar: Q
Encoding: 81 81 53
Width: 664
GlyphClass: 2
Flags: W
LayerCount: 2
Fore
SplineSet
623 331 m 0,0,1
 623 202 623 202 568.5 119 c 128,-1,2
 514 36 514 36 411 9 c 1,3,-1
 411 6 l 1,4,5
 488 2 488 2 558 -40 c 0,6,7
 608 -71 608 -71 675 -71 c 0,8,9
 690 -71 690 -71 706 -69 c 1,10,-1
 694 -165 l 1,11,12
 680 -166 680 -166 667 -166 c 1,13,-1
 568 -149 l 1,14,15
 505 -127 505 -127 445 -99 c 0,16,17
 377 -67 377 -67 319 -67 c 0,18,19
 291 -67 291 -67 263 -73 c 1,20,-1
 277 -1 l 1,21,22
 39 30 39 30 39 331 c 0,23,24
 39 423 39 423 66 492.5 c 128,-1,25
 93 562 93 562 138 600 c 1,26,27
 226 677 226 677 344.5 677 c 128,-1,28
 463 677 463 677 543 593 c 128,-1,29
 623 509 623 509 623 331 c 0,0,1
164 336 m 0,30,31
 164 88 164 88 336 88 c 0,32,33
 428 88 428 88 466 164 c 0,34,35
 499 231 499 231 499 328 c 0,36,37
 499 415 499 415 468 488 c 0,38,39
 452 528 452 528 417.5 551 c 128,-1,40
 383 574 383 574 328 574 c 128,-1,41
 273 574 273 574 233.5 538 c 128,-1,42
 194 502 194 502 179 451 c 128,-1,43
 164 400 164 400 164 336 c 0,30,31
EndSplineSet
EndChar

StartChar: R
Encoding: 82 82 54
Width: 626
GlyphClass: 2
Flags: W
LayerCount: 2
Fore
SplineSet
32 0 m 1,0,-1
 32 81 l 1,1,-1
 65 84 l 2,2,3
 94 87 94 87 94 112 c 2,4,-1
 94 577 l 1,5,-1
 37 580 l 1,6,-1
 37 665 l 1,7,-1
 310 665 l 2,8,9
 426 665 426 665 488 622 c 128,-1,10
 550 579 550 579 550 481 c 0,11,12
 550 413 550 413 514.5 369 c 128,-1,13
 479 325 479 325 430 305 c 1,14,15
 466 292 466 292 487 244 c 2,16,-1
 559 87 l 1,17,-1
 616 85 l 1,18,-1
 616 0 l 1,19,-1
 369 0 l 1,20,-1
 369 81 l 1,21,-1
 398 84 l 2,22,23
 421 87 421 87 421 102 c 0,24,25
 421 108 421 108 417 116 c 2,26,-1
 370 216 l 2,27,28
 359 241 359 241 345.5 251.5 c 128,-1,29
 332 262 332 262 307 262 c 2,30,-1
 216 262 l 1,31,-1
 216 88 l 1,32,-1
 281 85 l 1,33,-1
 281 0 l 1,34,-1
 32 0 l 1,0,-1
216 357 m 1,35,-1
 303 357 l 2,36,37
 426 357 426 357 426 467 c 0,38,39
 426 530 426 530 393.5 549 c 128,-1,40
 361 568 361 568 289 568 c 2,41,-1
 216 568 l 1,42,-1
 216 357 l 1,35,-1
EndSplineSet
EndChar

StartChar: S
Encoding: 83 83 55
Width: 522
GlyphClass: 2
Flags: W
LayerCount: 2
Fore
SplineSet
241 90 m 0,0,1
 361 90 361 90 361 186 c 0,2,3
 361 236 361 236 308 260 c 1,4,5
 280 274 280 274 235.5 286 c 128,-1,6
 191 298 191 298 161.5 310.5 c 128,-1,7
 132 323 132 323 102 345 c 0,8,9
 43 389 43 389 43 480.5 c 128,-1,10
 43 572 43 572 106.5 624.5 c 128,-1,11
 170 677 170 677 272.5 677 c 128,-1,12
 375 677 375 677 463 636 c 1,13,-1
 463 486 l 1,14,-1
 361 479 l 1,15,-1
 361 537 l 2,16,17
 361 552 361 552 357 559 c 0,18,19
 346 578 346 578 286.5 578 c 128,-1,20
 227 578 227 578 198.5 557 c 128,-1,21
 170 536 170 536 170 492 c 0,22,23
 170 460 170 460 194 436 c 0,24,25
 210 420 210 420 241.5 409.5 c 128,-1,26
 273 399 273 399 308.5 388 c 128,-1,27
 344 377 344 377 371.5 364 c 128,-1,28
 399 351 399 351 429 328 c 0,29,30
 490 283 490 283 490 189 c 128,-1,31
 490 95 490 95 422.5 41 c 128,-1,32
 355 -13 355 -13 244.5 -13 c 128,-1,33
 134 -13 134 -13 46 28 c 1,34,-1
 46 186 l 1,35,-1
 148 193 l 1,36,-1
 148 132 l 2,37,38
 148 117 148 117 152 110 c 128,-1,39
 156 103 156 103 176.5 96.5 c 128,-1,40
 197 90 197 90 241 90 c 0,0,1
EndSplineSet
EndChar

StartChar: T
Encoding: 84 84 56
Width: 553
GlyphClass: 2
Flags: W
LayerCount: 2
Fore
SplineSet
218 112 m 2,0,-1
 218 566 l 1,1,-1
 140 566 l 2,2,3
 117 566 117 566 117 535 c 2,4,-1
 117 488 l 1,5,-1
 15 495 l 1,6,-1
 15 665 l 1,7,-1
 538 665 l 1,8,-1
 538 495 l 1,9,-1
 436 488 l 1,10,-1
 436 535 l 2,11,12
 436 552 436 552 431 559 c 128,-1,13
 426 566 426 566 407 566 c 2,14,-1
 339 566 l 1,15,-1
 339 88 l 1,16,-1
 418 85 l 1,17,-1
 418 0 l 1,18,-1
 136 0 l 1,19,-1
 136 81 l 1,20,-1
 189 84 l 1,21,22
 218 87 218 87 218 112 c 2,0,-1
EndSplineSet
EndChar

StartChar: U
Encoding: 85 85 57
Width: 659
GlyphClass: 2
Flags: W
LayerCount: 2
Fore
SplineSet
201 548 m 2,0,-1
 201 216 l 2,1,2
 201 146 201 146 234.5 117.5 c 128,-1,3
 268 89 268 89 330.5 89 c 128,-1,4
 393 89 393 89 427.5 120 c 128,-1,5
 462 151 462 151 462 211 c 2,6,-1
 462 577 l 1,7,-1
 404 580 l 1,8,-1
 404 665 l 1,9,-1
 641 665 l 1,10,-1
 641 584 l 1,11,-1
 608 581 l 2,12,13
 579 578 579 578 579 551 c 2,14,-1
 579 194 l 2,15,16
 579 97 579 97 511 42 c 128,-1,17
 443 -13 443 -13 323 -13 c 128,-1,18
 203 -13 203 -13 141.5 40.5 c 128,-1,19
 80 94 80 94 80 210 c 2,20,-1
 80 577 l 1,21,-1
 22 580 l 1,22,-1
 22 665 l 1,23,-1
 264 665 l 1,24,-1
 264 584 l 1,25,-1
 231 581 l 2,26,27
 215 579 215 579 208 572.5 c 128,-1,28
 201 566 201 566 201 548 c 2,0,-1
EndSplineSet
EndChar

StartChar: V
Encoding: 86 86 58
Width: 654
GlyphClass: 2
Flags: W
LayerCount: 2
Fore
SplineSet
201 546 m 2,0,-1
 335 143 l 1,1,-1
 340 143 l 1,2,-1
 480 576 l 1,3,-1
 419 580 l 1,4,-1
 419 665 l 1,5,-1
 649 665 l 1,6,-1
 649 584 l 1,7,-1
 616 581 l 2,8,9
 603 580 603 580 597 573.5 c 128,-1,10
 591 567 591 567 585 551 c 2,11,-1
 396 0 l 1,12,-1
 266 0 l 1,13,-1
 62 577 l 1,14,-1
 5 580 l 1,15,-1
 5 665 l 1,16,-1
 263 665 l 1,17,-1
 263 584 l 1,18,-1
 230 581 l 2,19,20
 199 579 199 579 199 557 c 0,21,22
 199 552 199 552 201 546 c 2,0,-1
EndSplineSet
EndChar

StartChar: W
Encoding: 87 87 59
Width: 885
GlyphClass: 2
Flags: W
LayerCount: 2
Fore
SplineSet
880 584 m 1,0,-1
 847 581 l 2,1,2
 821 579 821 579 814 545 c 2,3,-1
 688 0 l 1,4,-1
 551 0 l 1,5,-1
 446 445 l 1,6,-1
 443 445 l 1,7,-1
 341 0 l 1,8,-1
 200 0 l 1,9,-1
 62 577 l 1,10,-1
 5 580 l 1,11,-1
 5 665 l 1,12,-1
 253 665 l 1,13,-1
 253 584 l 1,14,-1
 220 581 l 2,15,16
 189 578 189 578 189 555 c 0,17,18
 189 551 189 551 190 546 c 2,19,-1
 277 160 l 1,20,-1
 281 160 l 1,21,-1
 385 612 l 1,22,-1
 514 612 l 1,23,-1
 622 158 l 1,24,-1
 624 158 l 1,25,-1
 709 576 l 1,26,-1
 655 580 l 1,27,-1
 655 665 l 1,28,-1
 880 665 l 1,29,-1
 880 584 l 1,0,-1
EndSplineSet
EndChar

StartChar: X
Encoding: 88 88 60
Width: 621
GlyphClass: 2
Flags: W
LayerCount: 2
Fore
SplineSet
521 549 m 1,0,-1
 378 356 l 1,1,-1
 553 92 l 1,2,-1
 616 88 l 1,3,-1
 616 0 l 1,4,-1
 338 0 l 1,5,-1
 338 82 l 1,6,-1
 368 85 l 2,7,8
 387 87 387 87 394 98.5 c 128,-1,9
 401 110 401 110 392 123 c 2,10,-1
 302 262 l 1,11,-1
 187 88 l 1,12,-1
 235 85 l 1,13,-1
 235 0 l 1,14,-1
 5 0 l 1,15,-1
 5 81 l 1,16,-1
 36 84 l 1,17,18
 55 87 55 87 74 116 c 1,19,-1
 236 348 l 1,20,-1
 84 572 l 1,21,-1
 29 577 l 1,22,-1
 29 665 l 1,23,-1
 294 665 l 1,24,-1
 294 583 l 1,25,-1
 269 580 l 2,26,27
 248 578 248 578 242.5 566 c 128,-1,28
 237 554 237 554 247 539 c 2,29,-1
 314 434 l 1,30,-1
 411 577 l 1,31,-1
 361 580 l 1,32,-1
 361 665 l 1,33,-1
 590 665 l 1,34,-1
 590 584 l 1,35,-1
 559 581 l 1,36,37
 540 578 540 578 521 549 c 1,0,-1
EndSplineSet
EndChar

StartChar: Y
Encoding: 89 89 61
Width: 570
GlyphClass: 2
Flags: W
LayerCount: 2
Fore
SplineSet
222 112 m 2,0,-1
 222 254 l 1,1,-1
 52 577 l 1,2,-1
 5 580 l 1,3,-1
 5 665 l 1,4,-1
 249 665 l 1,5,-1
 249 584 l 1,6,-1
 219 581 l 2,7,8
 203 580 203 580 198.5 569 c 128,-1,9
 194 558 194 558 202 542 c 2,10,-1
 287 368 l 1,11,-1
 291 368 l 1,12,-1
 400 576 l 1,13,-1
 350 580 l 1,14,-1
 350 665 l 1,15,-1
 565 665 l 1,16,-1
 565 584 l 1,17,-1
 535 581 l 2,18,19
 516 579 516 579 501 551 c 2,20,-1
 344 254 l 1,21,-1
 344 88 l 1,22,-1
 422 85 l 1,23,-1
 422 0 l 1,24,-1
 140 0 l 1,25,-1
 140 81 l 1,26,-1
 193 84 l 2,27,28
 222 86 222 86 222 112 c 2,0,-1
EndSplineSet
EndChar

StartChar: Z
Encoding: 90 90 62
Width: 533
GlyphClass: 2
Flags: W
LayerCount: 2
Fore
SplineSet
477 584 m 1,0,-1
 172 95 l 1,1,-1
 366 95 l 2,2,3
 391 95 391 95 391 127 c 2,4,-1
 391 197 l 1,5,-1
 493 190 l 1,6,-1
 493 0 l 1,7,-1
 33 0 l 1,8,-1
 33 83 l 1,9,-1
 335 570 l 1,10,-1
 169 570 l 2,11,12
 142 570 142 570 142 539 c 2,13,-1
 142 499 l 1,14,-1
 40 506 l 1,15,-1
 40 665 l 1,16,-1
 477 665 l 1,17,-1
 477 584 l 1,0,-1
EndSplineSet
EndChar

StartChar: bracketleft
Encoding: 91 91 63
Width: 325
GlyphClass: 2
Flags: W
LayerCount: 2
Fore
SplineSet
80 -166 m 1,0,-1
 80 714 l 1,1,-1
 290 714 l 1,2,-1
 290 633 l 1,3,-1
 190 633 l 1,4,-1
 190 -85 l 1,5,-1
 290 -85 l 1,6,-1
 290 -166 l 1,7,-1
 80 -166 l 1,0,-1
EndSplineSet
EndChar

StartChar: backslash
Encoding: 92 92 64
Width: 440
GlyphClass: 2
Flags: W
LayerCount: 2
Fore
SplineSet
15 718 m 1,0,-1
 118 756 l 1,1,-1
 425 -72 l 1,2,-1
 322 -109 l 1,3,-1
 15 718 l 1,0,-1
EndSplineSet
EndChar

StartChar: bracketright
Encoding: 93 93 65
Width: 325
GlyphClass: 2
Flags: W
LayerCount: 2
Fore
SplineSet
245 714 m 1,0,-1
 245 -166 l 1,1,-1
 35 -166 l 1,2,-1
 35 -85 l 1,3,-1
 135 -85 l 1,4,-1
 135 633 l 1,5,-1
 35 633 l 1,6,-1
 35 714 l 1,7,-1
 245 714 l 1,0,-1
EndSplineSet
EndChar

StartChar: asciicircum
Encoding: 94 94 66
Width: 553
GlyphClass: 2
Flags: W
LayerCount: 2
Fore
SplineSet
509 301 m 1,0,-1
 408 285 l 1,1,-1
 278 552 l 1,2,-1
 147 285 l 1,3,-1
 49 302 l 1,4,-1
 236 674 l 1,5,-1
 323 674 l 1,6,-1
 509 301 l 1,0,-1
EndSplineSet
EndChar

StartChar: underscore
Encoding: 95 95 67
Width: 500
GlyphClass: 2
Flags: W
LayerCount: 2
Fore
SplineSet
0 -147 m 1,0,-1
 0 -74 l 1,1,-1
 500 -74 l 1,2,-1
 500 -147 l 1,3,-1
 0 -147 l 1,0,-1
EndSplineSet
EndChar

StartChar: grave
Encoding: 96 96 68
Width: 500
GlyphClass: 2
Flags: W
LayerCount: 2
Fore
SplineSet
234 786 m 1,0,-1
 350 594 l 1,1,-1
 311 561 l 1,2,-1
 183 685 l 2,3,4
 158 708 158 708 158 728 c 128,-1,5
 158 748 158 748 187 764 c 1,6,-1
 234 786 l 1,0,-1
EndSplineSet
EndChar

StartChar: a
Encoding: 97 97 69
Width: 567
GlyphClass: 2
Flags: W
LayerCount: 2
Fore
SplineSet
482 483 m 1,0,-1
 482 111 l 2,1,2
 482 95 482 95 487.5 89 c 128,-1,3
 493 83 493 83 507 82 c 2,4,-1
 539 80 l 1,5,-1
 539 0 l 1,6,-1
 380 0 l 1,7,-1
 380 58 l 1,8,-1
 377 59 l 1,9,10
 327 -13 327 -13 240 -13 c 0,11,12
 138 -13 138 -13 89 52 c 128,-1,13
 40 117 40 117 40 230 c 0,14,15
 40 366 40 366 106 442 c 128,-1,16
 172 518 172 518 304 518 c 0,17,18
 389 518 389 518 482 483 c 1,0,-1
366 159 m 2,19,-1
 366 418 l 1,20,21
 338 431 338 431 289 431 c 0,22,23
 222 431 222 431 192 377 c 128,-1,24
 162 323 162 323 162 234 c 0,25,26
 162 72 162 72 266 72 c 0,27,28
 310 72 310 72 338 98.5 c 128,-1,29
 366 125 366 125 366 159 c 2,19,-1
EndSplineSet
EndChar

StartChar: b
Encoding: 98 98 70
Width: 556
GlyphClass: 2
Flags: W
LayerCount: 2
Fore
SplineSet
77 30 m 1,0,-1
 77 604 l 2,1,2
 77 627 77 627 52 628 c 2,3,-1
 17 630 l 1,4,-1
 17 713 l 1,5,-1
 193 713 l 1,6,-1
 193 476 l 1,7,8
 238 518 238 518 314 518 c 0,9,10
 408 518 408 518 463 454.5 c 128,-1,11
 518 391 518 391 518 276 c 0,12,13
 518 -13 518 -13 276 -13 c 0,14,15
 224 -13 224 -13 166.5 -0.5 c 128,-1,16
 109 12 109 12 77 30 c 1,0,-1
193 354 m 2,17,-1
 193 95 l 1,18,19
 231 75 231 75 281 75 c 0,20,21
 395 75 395 75 395 260 c 0,22,23
 395 429 395 429 283 429 c 0,24,25
 247 429 247 429 220 408 c 128,-1,26
 193 387 193 387 193 354 c 2,17,-1
EndSplineSet
EndChar

StartChar: c
Encoding: 99 99 71
Width: 471
GlyphClass: 2
Flags: W
LayerCount: 2
Fore
SplineSet
186 125 m 128,-1,1
 218 78 218 78 278.5 78 c 128,-1,2
 339 78 339 78 398 121 c 1,3,-1
 441 44 l 1,4,5
 370 -14 370 -14 263 -14 c 128,-1,6
 156 -14 156 -14 94.5 53.5 c 128,-1,7
 33 121 33 121 33 253 c 128,-1,8
 33 385 33 385 103.5 451.5 c 128,-1,9
 174 518 174 518 262.5 518 c 128,-1,10
 351 518 351 518 427 477 c 1,11,-1
 427 347 l 1,12,-1
 335 340 l 1,13,-1
 335 388 l 2,14,15
 335 415 335 415 315.5 421.5 c 128,-1,16
 296 428 296 428 275 428 c 0,17,18
 154 428 154 428 154 257 c 0,19,0
 154 172 154 172 186 125 c 128,-1,1
EndSplineSet
EndChar

StartChar: d
Encoding: 100 100 72
Width: 568
GlyphClass: 2
Flags: W
LayerCount: 2
Fore
SplineSet
284 518 m 0,0,1
 327 518 327 518 366 506 c 1,2,-1
 366 607 l 2,3,4
 366 629 366 629 340 631 c 2,5,-1
 297 634 l 1,6,-1
 297 713 l 1,7,-1
 483 713 l 1,8,-1
 483 105 l 1,9,10
 484 82 484 82 508 82 c 1,11,-1
 543 80 l 1,12,-1
 543 0 l 1,13,-1
 381 0 l 1,14,-1
 381 59 l 1,15,-1
 378 60 l 1,16,17
 333 -13 333 -13 242 -13 c 0,18,19
 128 -13 128 -13 82 63 c 0,20,21
 40 132 40 132 40 232 c 0,22,23
 40 362 40 362 104.5 440 c 128,-1,24
 169 518 169 518 284 518 c 0,0,1
366 156 m 2,25,-1
 366 415 l 1,26,27
 330 431 330 431 290 431 c 0,28,29
 224 431 224 431 193.5 378 c 128,-1,30
 163 325 163 325 163 243 c 0,31,32
 163 75 163 75 271 75 c 0,33,34
 312 75 312 75 339 98.5 c 128,-1,35
 366 122 366 122 366 156 c 2,25,-1
EndSplineSet
EndChar

StartChar: e
Encoding: 101 101 73
Width: 484
GlyphClass: 2
Flags: W
LayerCount: 2
Fore
SplineSet
284 518 m 0,0,1
 359 518 359 518 403 481.5 c 128,-1,2
 447 445 447 445 447 379 c 0,3,4
 447 335 447 335 428 301.5 c 128,-1,5
 409 268 409 268 381 249 c 128,-1,6
 353 230 353 230 313 218 c 0,7,8
 246 198 246 198 162 198 c 1,9,10
 165 145 165 145 195 112.5 c 128,-1,11
 225 80 225 80 287 80 c 128,-1,12
 349 80 349 80 411 124 c 1,13,-1
 449 43 l 1,14,15
 429 25 429 25 381.5 6 c 128,-1,16
 334 -13 334 -13 273 -13 c 0,17,18
 151 -13 151 -13 94 54.5 c 128,-1,19
 37 122 37 122 37 240 c 128,-1,20
 37 358 37 358 102 438 c 128,-1,21
 167 518 167 518 284 518 c 0,0,1
306 318.5 m 128,-1,23
 337 341 337 341 337 372 c 0,24,25
 337 433 337 433 277 433 c 0,26,27
 221 433 221 433 191 388.5 c 128,-1,28
 161 344 161 344 158 282 c 1,29,30
 202 283 202 283 238.5 289.5 c 128,-1,22
 275 296 275 296 306 318.5 c 128,-1,23
EndSplineSet
EndChar

StartChar: f
Encoding: 102 102 74
Width: 370
GlyphClass: 2
Flags: W
LayerCount: 2
Fore
SplineSet
96 112 m 2,0,-1
 96 419 l 1,1,-1
 10 419 l 1,2,-1
 10 503 l 1,3,-1
 96 503 l 1,4,-1
 96 541 l 2,5,6
 96 639 96 639 141 682 c 0,7,8
 183 723 183 723 264 723 c 128,-1,9
 345 723 345 723 408 688 c 1,10,-1
 379 608 l 1,11,12
 331 633 331 633 289 633 c 128,-1,13
 247 633 247 633 231 612.5 c 128,-1,14
 215 592 215 592 215 550 c 2,15,-1
 215 503 l 1,16,-1
 363 503 l 1,17,-1
 363 419 l 1,18,-1
 215 419 l 1,19,-1
 215 84 l 1,20,-1
 299 80 l 1,21,-1
 299 0 l 1,22,-1
 34 0 l 1,23,-1
 34 76 l 1,24,-1
 67 79 l 2,25,26
 82 81 82 81 89 87.5 c 128,-1,27
 96 94 96 94 96 112 c 2,0,-1
EndSplineSet
EndChar

StartChar: g
Encoding: 103 103 75
Width: 544
GlyphClass: 2
Flags: W
LayerCount: 2
Fore
SplineSet
414 -162 m 128,-1,1
 359 -214 359 -214 242 -214 c 128,-1,2
 125 -214 125 -214 59 -181 c 1,3,-1
 59 -42 l 1,4,-1
 154 -34 l 1,5,-1
 154 -82 l 2,6,7
 154 -109 154 -109 179 -118.5 c 128,-1,8
 204 -128 204 -128 248 -128 c 0,9,10
 312 -128 312 -128 338 -89.5 c 128,-1,11
 364 -51 364 -51 364 19 c 2,12,-1
 364 74 l 1,13,14
 316 18 316 18 231 18 c 0,15,16
 179 18 179 18 139.5 38 c 128,-1,17
 100 58 100 58 78 92 c 0,18,19
 35 160 35 160 35 252 c 0,20,21
 35 383 35 383 106 450.5 c 128,-1,22
 177 518 177 518 295 518 c 0,23,24
 393 518 393 518 480 481 c 1,25,-1
 480 110 l 2,26,27
 480 25 480 25 478 1 c 0,28,0
 469 -110 469 -110 414 -162 c 128,-1,1
364 204 m 2,29,-1
 364 419 l 1,30,31
 329 431 329 431 284 431 c 0,32,33
 223 431 223 431 190.5 386 c 128,-1,34
 158 341 158 341 158 264 c 0,35,36
 158 106 158 106 262 106 c 0,37,38
 305 106 305 106 334.5 132.5 c 128,-1,39
 364 159 364 159 364 204 c 2,29,-1
EndSplineSet
EndChar

StartChar: h
Encoding: 104 104 76
Width: 600
GlyphClass: 2
Flags: W
LayerCount: 2
Fore
SplineSet
94 112 m 2,0,-1
 94 599 l 2,1,2
 94 615 94 615 88.5 621 c 128,-1,3
 83 627 83 627 69 628 c 2,4,-1
 34 630 l 1,5,-1
 34 713 l 1,6,-1
 212 713 l 1,7,-1
 212 444 l 1,8,9
 264 518 264 518 358 518 c 0,10,11
 434 518 434 518 475.5 474.5 c 128,-1,12
 517 431 517 431 517 344 c 2,13,-1
 517 83 l 1,14,-1
 574 80 l 1,15,-1
 574 0 l 1,16,-1
 336 0 l 1,17,-1
 336 76 l 1,18,-1
 369 79 l 2,19,20
 384 81 384 81 391 87.5 c 128,-1,21
 398 94 398 94 398 112 c 2,22,-1
 398 318 l 2,23,24
 398 370 398 370 381.5 398 c 128,-1,25
 365 426 365 426 317.5 426 c 128,-1,26
 270 426 270 426 241.5 396.5 c 128,-1,27
 213 367 213 367 213 325 c 2,28,-1
 213 83 l 1,29,-1
 270 80 l 1,30,-1
 270 0 l 1,31,-1
 32 0 l 1,32,-1
 32 76 l 1,33,-1
 65 79 l 2,34,35
 80 81 80 81 87 87.5 c 128,-1,36
 94 94 94 94 94 112 c 2,0,-1
EndSplineSet
EndChar

StartChar: i
Encoding: 105 105 77
Width: 296
GlyphClass: 2
Flags: W
LayerCount: 2
Fore
SplineSet
214 503 m 1,0,-1
 214 83 l 1,1,-1
 271 80 l 1,2,-1
 271 0 l 1,3,-1
 33 0 l 1,4,-1
 33 76 l 1,5,-1
 66 79 l 2,6,7
 95 82 95 82 95 111 c 2,8,-1
 95 389 l 2,9,10
 95 406 95 406 89.5 412 c 128,-1,11
 84 418 84 418 70 418 c 2,12,-1
 35 420 l 1,13,-1
 35 503 l 1,14,-1
 214 503 l 1,0,-1
67 642 m 128,-1,16
 67 674 67 674 88 695.5 c 128,-1,17
 109 717 109 717 143 717 c 128,-1,18
 177 717 177 717 198.5 695.5 c 128,-1,19
 220 674 220 674 220 642 c 128,-1,20
 220 610 220 610 198.5 589.5 c 128,-1,21
 177 569 177 569 143 569 c 128,-1,22
 109 569 109 569 88 589.5 c 128,-1,15
 67 610 67 610 67 642 c 128,-1,16
EndSplineSet
EndChar

StartChar: j
Encoding: 106 106 78
Width: 283
GlyphClass: 2
Flags: W
LayerCount: 2
Fore
SplineSet
208 503 m 1,0,-1
 208 -24 l 2,1,2
 208 -104 208 -104 182 -154 c 1,3,4
 149 -214 149 -214 48 -214 c 0,5,6
 -24 -214 -24 -214 -80 -179 c 1,7,-1
 -44 -96 l 1,8,9
 -5 -117 -5 -117 27.5 -117 c 128,-1,10
 60 -117 60 -117 74.5 -97 c 128,-1,11
 89 -77 89 -77 89 -29 c 2,12,-1
 89 389 l 2,13,14
 89 405 89 405 83.5 411 c 128,-1,15
 78 417 78 417 64 418 c 2,16,-1
 29 420 l 1,17,-1
 29 503 l 1,18,-1
 208 503 l 1,0,-1
61 642 m 128,-1,20
 61 674 61 674 82 695.5 c 128,-1,21
 103 717 103 717 137 717 c 128,-1,22
 171 717 171 717 192.5 695.5 c 128,-1,23
 214 674 214 674 214 642 c 128,-1,24
 214 610 214 610 192.5 589.5 c 128,-1,25
 171 569 171 569 137 569 c 128,-1,26
 103 569 103 569 82 589.5 c 128,-1,19
 61 610 61 610 61 642 c 128,-1,20
EndSplineSet
EndChar

StartChar: k
Encoding: 107 107 79
Width: 556
GlyphClass: 2
Flags: W
LayerCount: 2
Fore
SplineSet
95 112 m 2,0,-1
 95 599 l 2,1,2
 95 615 95 615 89.5 621 c 128,-1,3
 84 627 84 627 70 628 c 2,4,-1
 35 630 l 1,5,-1
 35 713 l 1,6,-1
 213 713 l 1,7,-1
 213 280 l 1,8,9
 268 285 268 285 309 314 c 128,-1,10
 350 343 350 343 365 390 c 0,11,12
 368 400 368 400 368 406 c 0,13,14
 368 423 368 423 349 423 c 2,15,-1
 311 425 l 1,16,-1
 311 503 l 1,17,-1
 518 503 l 1,18,-1
 518 422 l 1,19,-1
 470 420 l 1,20,21
 457 318 457 318 382 259 c 1,22,-1
 480 83 l 1,23,-1
 541 80 l 1,24,-1
 541 0 l 1,25,-1
 395 0 l 1,26,-1
 281 208 l 1,27,28
 248 199 248 199 213 194 c 1,29,-1
 213 83 l 1,30,-1
 214 83 l 1,31,-1
 271 80 l 1,32,-1
 271 0 l 1,33,-1
 33 0 l 1,34,-1
 33 76 l 1,35,-1
 66 79 l 2,36,37
 81 81 81 81 88 87.5 c 128,-1,38
 95 94 95 94 95 112 c 2,0,-1
EndSplineSet
EndChar

StartChar: l
Encoding: 108 108 80
Width: 298
GlyphClass: 2
Flags: W
LayerCount: 2
Fore
SplineSet
212 713 m 1,0,-1
 212 83 l 1,1,-1
 269 80 l 1,2,-1
 269 0 l 1,3,-1
 31 0 l 1,4,-1
 31 76 l 1,5,-1
 64 79 l 2,6,7
 93 82 93 82 93 111 c 2,8,-1
 93 604 l 2,9,10
 93 626 93 626 68 628 c 2,11,-1
 33 630 l 1,12,-1
 33 713 l 1,13,-1
 212 713 l 1,0,-1
EndSplineSet
EndChar

StartChar: m
Encoding: 109 109 81
Width: 866
GlyphClass: 2
Flags: W
LayerCount: 2
Fore
SplineSet
27 422 m 1,0,-1
 27 503 l 1,1,-1
 196 503 l 1,2,-1
 196 438 l 1,3,4
 252 518 252 518 349.5 518 c 128,-1,5
 447 518 447 518 481 438 c 1,6,7
 537 518 537 518 633 518 c 0,8,9
 705 518 705 518 744 474.5 c 128,-1,10
 783 431 783 431 783 344 c 2,11,-1
 783 83 l 1,12,-1
 840 80 l 1,13,-1
 840 0 l 1,14,-1
 602 0 l 1,15,-1
 602 76 l 1,16,-1
 635 79 l 2,17,18
 650 81 650 81 656.5 87.5 c 128,-1,19
 663 94 663 94 664 111 c 1,20,-1
 664 318 l 2,21,22
 664 373 664 373 651.5 399.5 c 128,-1,23
 639 426 639 426 593 426 c 128,-1,24
 547 426 547 426 522.5 398 c 128,-1,25
 498 370 498 370 498 323 c 2,26,-1
 498 83 l 1,27,-1
 553 80 l 1,28,-1
 553 0 l 1,29,-1
 317 0 l 1,30,-1
 317 76 l 1,31,-1
 350 79 l 2,32,33
 365 81 365 81 372 87.5 c 128,-1,34
 379 94 379 94 379 112 c 2,35,-1
 379 318 l 2,36,37
 379 373 379 373 366.5 399.5 c 128,-1,38
 354 426 354 426 307.5 426 c 128,-1,39
 261 426 261 426 237 397 c 128,-1,40
 213 368 213 368 213 325 c 2,41,-1
 213 83 l 1,42,-1
 267 80 l 1,43,-1
 267 0 l 1,44,-1
 31 0 l 1,45,-1
 31 76 l 1,46,-1
 64 79 l 2,47,48
 79 81 79 81 86 87.5 c 128,-1,49
 93 94 93 94 93 112 c 1,50,-1
 94 112 l 1,51,-1
 94 388 l 2,52,53
 94 405 94 405 88.5 411.5 c 128,-1,54
 83 418 83 418 69 419 c 2,55,-1
 27 422 l 1,0,-1
EndSplineSet
EndChar

StartChar: n
Encoding: 110 110 82
Width: 600
GlyphClass: 2
Flags: W
LayerCount: 2
Fore
SplineSet
27 423 m 1,0,-1
 27 503 l 1,1,-1
 196 503 l 1,2,-1
 196 438 l 1,3,4
 222 475 222 475 265 496.5 c 128,-1,5
 308 518 308 518 358 518 c 0,6,7
 434 518 434 518 475.5 474.5 c 128,-1,8
 517 431 517 431 517 344 c 2,9,-1
 517 83 l 1,10,-1
 574 80 l 1,11,-1
 574 0 l 1,12,-1
 336 0 l 1,13,-1
 336 76 l 1,14,-1
 369 79 l 2,15,16
 384 81 384 81 391 87.5 c 128,-1,17
 398 94 398 94 398 112 c 2,18,-1
 398 318 l 2,19,20
 398 373 398 373 381 399.5 c 128,-1,21
 364 426 364 426 316.5 426 c 128,-1,22
 269 426 269 426 241 396 c 128,-1,23
 213 366 213 366 213 325 c 2,24,-1
 213 83 l 1,25,-1
 270 80 l 1,26,-1
 270 0 l 1,27,-1
 32 0 l 1,28,-1
 32 76 l 1,29,-1
 65 79 l 2,30,31
 80 81 80 81 87 87.5 c 128,-1,32
 94 94 94 94 94 112 c 2,33,-1
 94 389 l 2,34,35
 94 419 94 419 69 420 c 2,36,-1
 27 423 l 1,0,-1
EndSplineSet
EndChar

StartChar: o
Encoding: 111 111 83
Width: 528
GlyphClass: 2
Flags: W
LayerCount: 2
Fore
SplineSet
263 73 m 0,0,1
 372 73 372 73 372 249 c 0,2,3
 372 338 372 338 347.5 384 c 128,-1,4
 323 430 323 430 265.5 430 c 128,-1,5
 208 430 208 430 181 386 c 128,-1,6
 154 342 154 342 154 266 c 0,7,8
 154 125 154 125 206 89 c 0,9,10
 229 73 229 73 263 73 c 0,0,1
33 252 m 0,11,12
 33 326 33 326 55 380.5 c 128,-1,13
 77 435 77 435 114 464 c 0,14,15
 185 518 185 518 271 518 c 0,16,17
 331 518 331 518 372.5 498.5 c 128,-1,18
 414 479 414 479 437.5 453.5 c 128,-1,19
 461 428 461 428 477.5 379.5 c 128,-1,20
 494 331 494 331 494 265 c 0,21,22
 494 127 494 127 427 56 c 128,-1,23
 360 -15 360 -15 255.5 -15 c 128,-1,24
 151 -15 151 -15 92 52.5 c 128,-1,25
 33 120 33 120 33 252 c 0,11,12
EndSplineSet
EndChar

StartChar: p
Encoding: 112 112 84
Width: 568
GlyphClass: 2
Flags: W
LayerCount: 2
Fore
SplineSet
89 -95 m 2,0,-1
 89 389 l 2,1,2
 89 406 89 406 83.5 412.5 c 128,-1,3
 78 419 78 419 64 419 c 2,4,-1
 22 422 l 1,5,-1
 22 503 l 1,6,-1
 191 503 l 1,7,-1
 191 438 l 1,8,9
 207 468 207 468 249 493 c 128,-1,10
 291 518 291 518 349 518 c 0,11,12
 530 518 530 518 530 264 c 0,13,14
 530 129 530 129 471 57 c 128,-1,15
 412 -15 412 -15 311 -15 c 0,16,17
 251 -15 251 -15 204 14 c 1,18,-1
 204 -124 l 1,19,-1
 285 -128 l 1,20,-1
 285 -207 l 1,21,-1
 27 -207 l 1,22,-1
 27 -131 l 1,23,-1
 60 -128 l 2,24,25
 75 -126 75 -126 82 -119.5 c 128,-1,26
 89 -113 89 -113 89 -95 c 2,0,-1
406 254 m 0,27,28
 406 421 406 421 305 421 c 0,29,30
 263 421 263 421 233.5 395.5 c 128,-1,31
 204 370 204 370 204 335 c 2,32,-1
 204 105 l 1,33,34
 242 80 242 80 296.5 80 c 128,-1,35
 351 80 351 80 378.5 130 c 128,-1,36
 406 180 406 180 406 254 c 0,27,28
EndSplineSet
EndChar

StartChar: q
Encoding: 113 113 85
Width: 551
GlyphClass: 2
Flags: W
LayerCount: 2
Fore
SplineSet
367 -95 m 2,0,-1
 367 43 l 1,1,2
 319 -13 319 -13 242 -13 c 128,-1,3
 165 -13 165 -13 119.5 25.5 c 128,-1,4
 74 64 74 64 57 116 c 128,-1,5
 40 168 40 168 40 230 c 0,6,7
 40 376 40 376 109.5 447 c 128,-1,8
 179 518 179 518 298 518 c 0,9,10
 396 518 396 518 483 481 c 1,11,-1
 483 -124 l 1,12,-1
 541 -127 l 1,13,-1
 541 -207 l 1,14,-1
 278 -207 l 1,15,-1
 278 -131 l 1,16,-1
 337 -128 l 2,17,18
 352 -127 352 -127 359.5 -120 c 128,-1,19
 367 -113 367 -113 367 -95 c 2,0,-1
366 164 m 2,20,-1
 366 419 l 1,21,22
 332 431 332 431 287 431 c 0,23,24
 227 431 227 431 195 379.5 c 128,-1,25
 163 328 163 328 163 246 c 0,26,27
 163 124 163 124 212 90 c 0,28,29
 234 75 234 75 273 75 c 128,-1,30
 312 75 312 75 339 98 c 128,-1,31
 366 121 366 121 366 164 c 2,20,-1
EndSplineSet
EndChar

StartChar: r
Encoding: 114 114 86
Width: 462
GlyphClass: 2
Flags: W
LayerCount: 2
Fore
SplineSet
95 112 m 2,0,-1
 95 389 l 2,1,2
 95 405 95 405 89.5 411.5 c 128,-1,3
 84 418 84 418 70 419 c 2,4,-1
 28 422 l 1,5,-1
 28 503 l 1,6,-1
 197 503 l 1,7,-1
 197 428 l 1,8,9
 215 467 215 467 253 492.5 c 128,-1,10
 291 518 291 518 340.5 518 c 128,-1,11
 390 518 390 518 435 496 c 1,12,-1
 435 347 l 1,13,-1
 342 340 l 1,14,-1
 342 386 l 2,15,16
 342 406 342 406 332 411 c 0,17,18
 321 416 321 416 305 416 c 0,19,20
 265 416 265 416 239.5 387.5 c 128,-1,21
 214 359 214 359 214 315 c 2,22,-1
 214 83 l 1,23,-1
 301 79 l 1,24,-1
 301 0 l 1,25,-1
 33 0 l 1,26,-1
 33 76 l 1,27,-1
 66 79 l 2,28,29
 81 81 81 81 88 87.5 c 128,-1,30
 95 94 95 94 95 112 c 2,0,-1
EndSplineSet
EndChar

StartChar: s
Encoding: 115 115 87
Width: 451
GlyphClass: 2
Flags: W
LayerCount: 2
Fore
SplineSet
295 427 m 0,0,1
 271 436 271 436 237 436 c 128,-1,2
 203 436 203 436 182.5 420.5 c 128,-1,3
 162 405 162 405 162 382.5 c 128,-1,4
 162 360 162 360 169.5 347.5 c 128,-1,5
 177 335 177 335 193 326 c 0,6,7
 218 313 218 313 253 303.5 c 128,-1,8
 288 294 288 294 305 288.5 c 128,-1,9
 322 283 322 283 347.5 270 c 128,-1,10
 373 257 373 257 386 242 c 0,11,12
 421 205 421 205 421 147 c 0,13,14
 421 72 421 72 366.5 29.5 c 128,-1,15
 312 -13 312 -13 228 -13 c 0,16,17
 106 -13 106 -13 44 18 c 1,18,-1
 44 157 l 1,19,-1
 134 164 l 1,20,-1
 134 116 l 2,21,22
 134 72 134 72 218 72 c 128,-1,23
 302 72 302 72 302 133 c 0,24,25
 302 155 302 155 287.5 169 c 128,-1,26
 273 183 273 183 259 188 c 128,-1,27
 245 193 245 193 225.5 198 c 128,-1,28
 206 203 206 203 187.5 208 c 128,-1,29
 169 213 169 213 147.5 221.5 c 128,-1,30
 126 230 126 230 100 246 c 0,31,32
 49 279 49 279 49 356.5 c 128,-1,33
 49 434 49 434 104 476 c 128,-1,34
 159 518 159 518 242.5 518 c 128,-1,35
 326 518 326 518 408 478 c 1,36,-1
 408 358 l 1,37,-1
 318 351 l 1,38,-1
 318 393 l 2,39,40
 318 418 318 418 295 427 c 0,0,1
EndSplineSet
EndChar

StartChar: t
Encoding: 116 116 88
Width: 377
GlyphClass: 2
Flags: W
LayerCount: 2
Fore
SplineSet
144 609 m 1,0,-1
 209 609 l 1,1,-1
 209 503 l 1,2,-1
 342 503 l 1,3,-1
 332 419 l 1,4,-1
 209 419 l 1,5,-1
 209 156 l 2,6,7
 209 112 209 112 225 94.5 c 128,-1,8
 241 77 241 77 274.5 77 c 128,-1,9
 308 77 308 77 342 98 c 1,10,-1
 372 21 l 1,11,12
 322 -14 322 -14 245 -14 c 0,13,14
 200 -14 200 -14 169 -2.5 c 128,-1,15
 138 9 138 9 123 23 c 128,-1,16
 108 37 108 37 100 64 c 128,-1,17
 92 91 92 91 91 106.5 c 128,-1,18
 90 122 90 122 90 152 c 2,19,-1
 90 419 l 1,20,-1
 19 419 l 1,21,-1
 29 492 l 1,22,23
 76 496 76 496 100 525.5 c 128,-1,24
 124 555 124 555 144 609 c 1,0,-1
EndSplineSet
EndChar

StartChar: u
Encoding: 117 117 89
Width: 591
GlyphClass: 2
Flags: W
LayerCount: 2
Fore
SplineSet
563 79 m 1,0,-1
 563 0 l 1,1,-1
 401 0 l 1,2,-1
 401 65 l 1,3,4
 346 -13 346 -13 239 -13 c 0,5,6
 84 -13 84 -13 84 160 c 2,7,-1
 84 391 l 2,8,9
 84 418 84 418 59 419 c 2,10,-1
 27 421 l 1,11,-1
 27 503 l 1,12,-1
 203 503 l 1,13,-1
 203 186 l 2,14,15
 203 133 203 133 218 106 c 128,-1,16
 233 79 233 79 280 79 c 128,-1,17
 327 79 327 79 355.5 108 c 128,-1,18
 384 137 384 137 384 178 c 2,19,-1
 384 389 l 2,20,21
 384 405 384 405 378.5 411.5 c 128,-1,22
 373 418 373 418 359 419 c 2,23,-1
 327 421 l 1,24,-1
 327 503 l 1,25,-1
 503 503 l 1,26,-1
 503 111 l 2,27,28
 503 95 503 95 508 89.5 c 128,-1,29
 513 84 513 84 528 82 c 2,30,-1
 563 79 l 1,0,-1
EndSplineSet
EndChar

StartChar: v
Encoding: 118 118 90
Width: 558
GlyphClass: 2
Flags: W
LayerCount: 2
Fore
SplineSet
337 503 m 1,0,-1
 548 503 l 1,1,-1
 548 425 l 1,2,-1
 517 423 l 2,3,4
 497 421 497 421 490 399 c 2,5,-1
 361 0 l 1,6,-1
 208 0 l 1,7,-1
 68 398 l 2,8,9
 63 412 63 412 57.5 417 c 128,-1,10
 52 422 52 422 39 423 c 2,11,-1
 10 425 l 1,12,-1
 10 503 l 1,13,-1
 245 503 l 1,14,-1
 245 423 l 1,15,-1
 184 420 l 1,16,-1
 287 91 l 1,17,-1
 289 91 l 1,18,-1
 389 420 l 1,19,-1
 337 423 l 1,20,-1
 337 503 l 1,0,-1
EndSplineSet
EndChar

StartChar: w
Encoding: 119 119 91
Width: 795
GlyphClass: 2
Flags: W
LayerCount: 2
Fore
SplineSet
364 483 m 1,0,-1
 461 483 l 1,1,-1
 565 111 l 1,2,-1
 567 111 l 1,3,-1
 635 420 l 1,4,-1
 584 423 l 1,5,-1
 584 503 l 1,6,-1
 785 503 l 1,7,-1
 785 426 l 1,8,-1
 752 424 l 2,9,10
 732 422 732 422 725 400 c 1,11,-1
 630 0 l 1,12,-1
 486 0 l 1,13,-1
 404 298 l 1,14,-1
 401 298 l 1,15,-1
 316 0 l 1,16,-1
 169 0 l 1,17,-1
 68 399 l 1,18,19
 63 413 63 413 57.5 418 c 128,-1,20
 52 423 52 423 39 424 c 2,21,-1
 10 426 l 1,22,-1
 10 503 l 1,23,-1
 239 503 l 1,24,-1
 239 423 l 1,25,-1
 183 420 l 1,26,-1
 252 113 l 1,27,-1
 254 113 l 1,28,-1
 364 483 l 1,0,-1
EndSplineSet
EndChar

StartChar: x
Encoding: 120 120 92
Width: 534
GlyphClass: 2
Flags: W
LayerCount: 2
Fore
SplineSet
319 106 m 2,0,-1
 258 186 l 1,1,-1
 175 83 l 1,2,-1
 222 80 l 1,3,-1
 222 0 l 1,4,-1
 14 0 l 1,5,-1
 14 79 l 1,6,-1
 45 82 l 2,7,8
 68 85 68 85 85 106 c 2,9,-1
 200 250 l 1,10,-1
 77 420 l 1,11,-1
 26 426 l 1,12,-1
 26 503 l 1,13,-1
 259 503 l 1,14,-1
 259 424 l 1,15,-1
 230 422 l 2,16,17
 218 421 218 421 214.5 413 c 128,-1,18
 211 405 211 405 218 396 c 2,19,-1
 275 320 l 1,20,-1
 352 420 l 1,21,-1
 311 423 l 1,22,-1
 311 503 l 1,23,-1
 514 503 l 1,24,-1
 514 425 l 1,25,-1
 484 423 l 2,26,27
 463 422 463 422 444 398 c 2,28,-1
 334 259 l 1,29,-1
 465 85 l 1,30,-1
 516 79 l 1,31,-1
 516 0 l 1,32,-1
 278 0 l 1,33,-1
 278 79 l 1,34,-1
 309 81 l 2,35,36
 322 82 322 82 324.5 89.5 c 128,-1,37
 327 97 327 97 319 106 c 2,0,-1
EndSplineSet
EndChar

StartChar: y
Encoding: 121 121 93
Width: 573
GlyphClass: 2
Flags: W
LayerCount: 2
Fore
SplineSet
401 19 m 2,0,-1
 401 95 l 1,1,2
 346 17 346 17 239 17 c 0,3,4
 84 17 84 17 84 190 c 2,5,-1
 84 391 l 2,6,7
 84 418 84 418 59 419 c 2,8,-1
 27 421 l 1,9,-1
 27 503 l 1,10,-1
 203 503 l 1,11,-1
 203 216 l 2,12,13
 203 163 203 163 218 136 c 128,-1,14
 233 109 233 109 280 109 c 128,-1,15
 327 109 327 109 355.5 138 c 128,-1,16
 384 167 384 167 384 208 c 2,17,-1
 384 389 l 2,18,19
 384 406 384 406 378.5 412.5 c 128,-1,20
 373 419 373 419 359 419 c 2,21,-1
 327 421 l 1,22,-1
 327 503 l 1,23,-1
 503 503 l 1,24,-1
 503 19 l 2,25,26
 503 -102 503 -102 444.5 -158 c 128,-1,27
 386 -214 386 -214 267.5 -214 c 128,-1,28
 149 -214 149 -214 83 -181 c 1,29,-1
 83 -42 l 1,30,-1
 178 -34 l 1,31,-1
 178 -82 l 2,32,33
 178 -109 178 -109 203 -118.5 c 128,-1,34
 228 -128 228 -128 272 -128 c 0,35,36
 401 -128 401 -128 401 19 c 2,0,-1
EndSplineSet
EndChar

StartChar: z
Encoding: 122 122 94
Width: 483
GlyphClass: 2
Flags: W
LayerCount: 2
Fore
SplineSet
448 0 m 1,0,-1
 40 0 l 1,1,-1
 40 76 l 1,2,-1
 297 414 l 1,3,-1
 171 414 l 2,4,5
 150 414 150 414 144.5 406 c 128,-1,6
 139 398 139 398 139 380 c 2,7,-1
 139 345 l 1,8,-1
 45 352 l 1,9,-1
 45 503 l 1,10,-1
 443 503 l 1,11,-1
 443 435 l 1,12,-1
 183 90 l 1,13,-1
 325 90 l 2,14,15
 354 90 354 90 354 124 c 2,16,-1
 354 166 l 1,17,-1
 448 159 l 1,18,-1
 448 0 l 1,0,-1
EndSplineSet
EndChar

StartChar: braceleft
Encoding: 123 123 95
Width: 340
GlyphClass: 2
Flags: W
LayerCount: 2
Fore
SplineSet
205 570 m 1,0,-1
 214 407 l 1,1,2
 214 356 214 356 199 326 c 128,-1,3
 184 296 184 296 148 281 c 1,4,5
 186 268 186 268 200 241.5 c 128,-1,6
 214 215 214 215 214 160 c 1,7,-1
 203 -16 l 1,8,9
 203 -55 203 -55 212.5 -73 c 128,-1,10
 222 -91 222 -91 247 -91 c 128,-1,11
 272 -91 272 -91 292 -86 c 1,12,-1
 302 -162 l 1,13,14
 260 -171 260 -171 223 -171 c 0,15,16
 162 -171 162 -171 128.5 -137 c 128,-1,17
 95 -103 95 -103 95 -44 c 1,18,-1
 106 147 l 1,19,20
 106 189 106 189 94.5 214 c 128,-1,21
 83 239 83 239 43 244 c 1,22,-1
 43 318 l 1,23,24
 84 323 84 323 95.5 347 c 128,-1,25
 107 371 107 371 107 421 c 1,26,-1
 99 590 l 1,27,28
 99 651 99 651 131 685 c 128,-1,29
 163 719 163 719 225 719 c 0,30,31
 265 719 265 719 305 709 c 1,32,-1
 295 635 l 1,33,34
 267 640 267 640 255 640 c 0,35,36
 224 640 224 640 214.5 624.5 c 128,-1,37
 205 609 205 609 205 570 c 1,0,-1
EndSplineSet
EndChar

StartChar: bar
Encoding: 124 124 96
Width: 274
GlyphClass: 2
Flags: W
LayerCount: 2
Fore
SplineSet
85 -88 m 1,0,-1
 85 747 l 1,1,-1
 189 747 l 1,2,-1
 189 -88 l 1,3,-1
 85 -88 l 1,0,-1
EndSplineSet
EndChar

StartChar: braceright
Encoding: 125 125 97
Width: 340
GlyphClass: 2
Flags: W
LayerCount: 2
Fore
SplineSet
137 -16 m 1,0,-1
 126 160 l 1,1,2
 126 215 126 215 140 241.5 c 128,-1,3
 154 268 154 268 192 281 c 1,4,5
 156 296 156 296 141 326 c 128,-1,6
 126 356 126 356 126 407 c 1,7,-1
 135 570 l 1,8,9
 135 609 135 609 125.5 624.5 c 128,-1,10
 116 640 116 640 85 640 c 0,11,12
 73 640 73 640 45 635 c 1,13,-1
 35 709 l 1,14,15
 75 719 75 719 115 719 c 0,16,17
 177 719 177 719 209 685 c 128,-1,18
 241 651 241 651 241 590 c 1,19,-1
 233 421 l 1,20,21
 233 371 233 371 244.5 347 c 128,-1,22
 256 323 256 323 297 318 c 1,23,-1
 297 244 l 1,24,25
 257 239 257 239 245.5 214 c 128,-1,26
 234 189 234 189 234 147 c 1,27,-1
 245 -44 l 1,28,29
 245 -103 245 -103 211.5 -137 c 128,-1,30
 178 -171 178 -171 117 -171 c 0,31,32
 80 -171 80 -171 38 -162 c 1,33,-1
 48 -86 l 1,34,35
 68 -91 68 -91 93 -91 c 128,-1,36
 118 -91 118 -91 127.5 -73 c 128,-1,37
 137 -55 137 -55 137 -16 c 1,0,-1
EndSplineSet
EndChar

StartChar: asciitilde
Encoding: 126 126 98
Width: 598
GlyphClass: 2
Flags: W
LayerCount: 2
Fore
SplineSet
405 218 m 0,0,1
 359 218 359 218 293 254.5 c 128,-1,2
 227 291 227 291 203 291 c 0,3,4
 162 291 162 291 119 226 c 1,5,-1
 47 282 l 1,6,7
 110 388 110 388 193 388 c 0,8,9
 236 388 236 388 301.5 350 c 128,-1,10
 367 312 367 312 397 312 c 0,11,12
 442 312 442 312 478 376 c 1,13,-1
 551 322 l 1,14,15
 502 218 502 218 405 218 c 0,0,1
EndSplineSet
EndChar

StartChar: exclamdown
Encoding: 161 161 100
Width: 277
GlyphClass: 2
Flags: W
LayerCount: 2
Fore
SplineSet
193 -28 m 1,0,-1
 193 -147 l 2,1,2
 193 -194 193 -194 137 -194 c 128,-1,3
 81 -194 81 -194 81 -145 c 2,4,-1
 81 -28 l 1,5,-1
 101 321 l 1,6,-1
 172 321 l 1,7,-1
 193 -28 l 1,0,-1
188.5 499 m 128,-1,9
 207 480 207 480 207 452 c 128,-1,10
 207 424 207 424 188 404.5 c 128,-1,11
 169 385 169 385 138.5 385 c 128,-1,12
 108 385 108 385 89 403.5 c 128,-1,13
 70 422 70 422 70 450 c 128,-1,14
 70 478 70 478 88.5 498 c 128,-1,15
 107 518 107 518 138.5 518 c 128,-1,8
 170 518 170 518 188.5 499 c 128,-1,9
EndSplineSet
EndChar

StartChar: cent
Encoding: 162 162 101
Width: 535
GlyphClass: 2
Flags: W
LayerCount: 2
Fore
SplineSet
270 -60 m 1,0,-1
 270 50 l 1,1,2
 179 64 179 64 127 128.5 c 128,-1,3
 75 193 75 193 75 307 c 128,-1,4
 75 421 75 421 130.5 486.5 c 128,-1,5
 186 552 186 552 270 569 c 1,6,-1
 270 685 l 1,7,-1
 345 685 l 1,8,-1
 345 573 l 1,9,10
 416 569 416 569 484 533 c 1,11,-1
 484 403 l 1,12,-1
 392 396 l 1,13,-1
 392 444 l 2,14,15
 392 471 392 471 371 478 c 0,16,17
 356 482 356 482 345 483 c 1,18,-1
 345 139 l 1,19,20
 396 142 396 142 450 182 c 1,21,-1
 493 105 l 1,22,23
 430 55 430 55 345 48 c 1,24,-1
 345 -60 l 1,25,-1
 270 -60 l 1,0,-1
270 472 m 1,26,27
 196 437 196 437 196 312 c 128,-1,28
 196 187 196 187 270 152 c 1,29,-1
 270 472 l 1,26,27
EndSplineSet
EndChar

StartChar: sterling
Encoding: 163 163 102
Width: 552
GlyphClass: 2
Flags: W
LayerCount: 2
Fore
SplineSet
116 210 m 2,0,-1
 122 289 l 1,1,-1
 38 289 l 1,2,-1
 48 373 l 1,3,-1
 128 373 l 1,4,-1
 134 459 l 2,5,6
 148 657 148 657 353 657 c 0,7,8
 446 657 446 657 523 616 c 1,9,-1
 523 476 l 1,10,-1
 421 469 l 1,11,-1
 421 516 l 2,12,13
 421 531 421 531 417.5 538 c 128,-1,14
 414 545 414 545 397 552 c 128,-1,15
 380 559 380 559 354 559 c 0,16,17
 303 559 303 559 278.5 533.5 c 128,-1,18
 254 508 254 508 250 450 c 2,19,-1
 244 373 l 1,20,-1
 419 373 l 1,21,-1
 409 290 l 1,22,-1
 239 290 l 1,23,-1
 236 249 l 2,24,25
 230 165 230 165 149 103 c 1,26,-1
 151 99 l 1,27,28
 205 119 205 119 233 119 c 128,-1,29
 261 119 261 119 315 109 c 128,-1,30
 369 99 369 99 410 99 c 128,-1,31
 451 99 451 99 500 113 c 1,32,-1
 487 6 l 1,33,34
 439 -3 439 -3 395 -3 c 128,-1,35
 351 -3 351 -3 277 9.5 c 128,-1,36
 203 22 203 22 151 22 c 128,-1,37
 99 22 99 22 32 -8 c 1,38,-1
 32 85 l 1,39,40
 109 121 109 121 116 210 c 2,0,-1
EndSplineSet
EndChar

StartChar: yen
Encoding: 165 165 103
Width: 550
GlyphClass: 2
Flags: W
LayerCount: 2
Fore
SplineSet
59 296 m 1,0,-1
 59 372 l 1,1,-1
 172 372 l 1,2,-1
 52 577 l 1,3,-1
 5 580 l 1,4,-1
 5 665 l 1,5,-1
 249 665 l 1,6,-1
 249 584 l 1,7,-1
 219 581 l 2,8,9
 203 580 203 580 198.5 569 c 128,-1,10
 194 558 194 558 202 542 c 2,11,-1
 277 388 l 1,12,-1
 281 388 l 1,13,-1
 380 576 l 1,14,-1
 330 580 l 1,15,-1
 330 665 l 1,16,-1
 545 665 l 1,17,-1
 545 584 l 1,18,-1
 515 581 l 2,19,20
 496 579 496 579 481 551 c 1,21,-1
 374 372 l 1,22,-1
 487 372 l 1,23,-1
 487 296 l 1,24,-1
 334 296 l 1,25,-1
 334 231 l 1,26,-1
 487 231 l 1,27,-1
 487 155 l 1,28,-1
 334 155 l 1,29,-1
 334 88 l 1,30,-1
 412 85 l 1,31,-1
 412 0 l 1,32,-1
 130 0 l 1,33,-1
 130 81 l 1,34,-1
 183 84 l 2,35,36
 212 86 212 86 212 112 c 2,37,-1
 212 155 l 1,38,-1
 59 155 l 1,39,-1
 59 231 l 1,40,-1
 212 231 l 1,41,-1
 212 296 l 1,42,-1
 59 296 l 1,0,-1
EndSplineSet
EndChar

StartChar: brokenbar
Encoding: 166 166 104
Width: 275
GlyphClass: 2
Flags: W
LayerCount: 2
Fore
SplineSet
85 -88 m 1,0,-1
 85 286 l 1,1,-1
 190 286 l 1,2,-1
 190 -88 l 1,3,-1
 85 -88 l 1,0,-1
85 403 m 1,4,-1
 85 747 l 1,5,-1
 190 747 l 1,6,-1
 190 403 l 1,7,-1
 85 403 l 1,4,-1
EndSplineSet
EndChar

StartChar: section
Encoding: 167 167 105
Width: 552
GlyphClass: 2
Flags: W
LayerCount: 2
Fore
SplineSet
407 35 m 1,0,1
 420 1 420 1 420 -32 c 128,-1,2
 420 -65 420 -65 412 -91 c 128,-1,3
 404 -117 404 -117 385.5 -144.5 c 128,-1,4
 367 -172 367 -172 329 -188.5 c 128,-1,5
 291 -205 291 -205 239 -205 c 0,6,7
 156 -205 156 -205 81 -166 c 1,8,-1
 81 -34 l 1,9,-1
 173 -27 l 1,10,-1
 173 -75 l 2,11,12
 173 -103 173 -103 192 -109 c 128,-1,13
 211 -115 211 -115 240.5 -115 c 128,-1,14
 270 -115 270 -115 290.5 -96.5 c 128,-1,15
 311 -78 311 -78 311 -47 c 0,16,17
 311 -26 311 -26 304 -13.5 c 128,-1,18
 297 -1 297 -1 293 5.5 c 128,-1,19
 289 12 289 12 279 20.5 c 128,-1,20
 269 29 269 29 263.5 34 c 128,-1,21
 258 39 258 39 244 47.5 c 128,-1,22
 230 56 230 56 224 60 c 0,23,24
 193 79 193 79 180 86 c 0,25,26
 109 128 109 128 76 168.5 c 128,-1,27
 43 209 43 209 43 268 c 0,28,29
 43 355 43 355 127 427 c 1,30,31
 114 456 114 456 114 491.5 c 128,-1,32
 114 527 114 527 122 553 c 128,-1,33
 130 579 130 579 148.5 606.5 c 128,-1,34
 167 634 167 634 205 650.5 c 128,-1,35
 243 667 243 667 295 667 c 0,36,37
 374 667 374 667 453 626 c 1,38,-1
 453 496 l 1,39,-1
 361 489 l 1,40,-1
 361 537 l 2,41,42
 361 565 361 565 342 571 c 128,-1,43
 323 577 323 577 293.5 577 c 128,-1,44
 264 577 264 577 243.5 558.5 c 128,-1,45
 223 540 223 540 223 509 c 0,46,47
 223 460 223 460 289 416 c 0,48,49
 298 410 298 410 322 396 c 0,50,51
 415 340 415 340 452 295 c 128,-1,52
 489 250 489 250 489 190 c 0,53,54
 489 105 489 105 407 35 c 1,0,1
242 183 m 128,-1,56
 258 173 258 173 301 143.5 c 128,-1,57
 344 114 344 114 352 107 c 1,58,59
 381 133 381 133 381 173 c 0,60,61
 381 193 381 193 376 202.5 c 128,-1,62
 371 212 371 212 368.5 217 c 128,-1,63
 366 222 366 222 358 229.5 c 128,-1,64
 350 237 350 237 346.5 240.5 c 128,-1,65
 343 244 343 244 331 252.5 c 128,-1,66
 319 261 319 261 313.5 265 c 128,-1,67
 308 269 308 269 292 279 c 0,68,69
 211 330 211 330 182 355 c 1,70,71
 153 328 153 328 153 289 c 0,72,73
 153 269 153 269 158 259.5 c 128,-1,74
 163 250 163 250 165.5 245 c 128,-1,75
 168 240 168 240 176 232.5 c 128,-1,76
 184 225 184 225 187.5 221.5 c 128,-1,77
 191 218 191 218 203 209.5 c 128,-1,78
 215 201 215 201 220.5 197 c 128,-1,55
 226 193 226 193 242 183 c 128,-1,56
EndSplineSet
EndChar

StartChar: dieresis
Encoding: 168 168 106
Width: 500
GlyphClass: 2
Flags: W
LayerCount: 2
Fore
SplineSet
302 599.5 m 128,-1,1
 283 618 283 618 283 646.5 c 128,-1,2
 283 675 283 675 302.5 694.5 c 128,-1,3
 322 714 322 714 352 714 c 128,-1,4
 382 714 382 714 401.5 694.5 c 128,-1,5
 421 675 421 675 421 646.5 c 128,-1,6
 421 618 421 618 401.5 599.5 c 128,-1,7
 382 581 382 581 351.5 581 c 128,-1,0
 321 581 321 581 302 599.5 c 128,-1,1
102 599.5 m 128,-1,9
 83 618 83 618 83 646.5 c 128,-1,10
 83 675 83 675 102.5 694.5 c 128,-1,11
 122 714 122 714 152 714 c 128,-1,12
 182 714 182 714 201.5 694.5 c 128,-1,13
 221 675 221 675 221 646.5 c 128,-1,14
 221 618 221 618 201.5 599.5 c 128,-1,15
 182 581 182 581 151.5 581 c 128,-1,8
 121 581 121 581 102 599.5 c 128,-1,9
EndSplineSet
EndChar

StartChar: copyright
Encoding: 169 169 107
Width: 814
GlyphClass: 2
Flags: W
LayerCount: 2
Fore
SplineSet
654 576 m 128,-1,1
 753 476 753 476 753 328.5 c 128,-1,2
 753 181 753 181 654 80.5 c 128,-1,3
 555 -20 555 -20 400 -20 c 128,-1,4
 245 -20 245 -20 152.5 76 c 128,-1,5
 60 172 60 172 60 323 c 128,-1,6
 60 474 60 474 156.5 575 c 128,-1,7
 253 676 253 676 404 676 c 128,-1,0
 555 676 555 676 654 576 c 128,-1,1
597 130.5 m 128,-1,9
 674 209 674 209 674 328 c 128,-1,10
 674 447 674 447 596.5 525.5 c 128,-1,11
 519 604 519 604 402.5 604 c 128,-1,12
 286 604 286 604 212.5 524.5 c 128,-1,13
 139 445 139 445 139 323 c 128,-1,14
 139 201 139 201 212.5 126.5 c 128,-1,15
 286 52 286 52 403 52 c 128,-1,8
 520 52 520 52 597 130.5 c 128,-1,9
409 198 m 0,16,17
 454 198 454 198 505 240 c 1,18,-1
 545 186 l 1,19,20
 491 130 491 130 406 130 c 128,-1,21
 321 130 321 130 276.5 183.5 c 128,-1,22
 232 237 232 237 232 331 c 0,23,24
 232 386 232 386 248.5 427 c 128,-1,25
 265 468 265 468 292 489 c 0,26,27
 345 530 345 530 405 530 c 0,28,29
 500 530 500 530 555 455 c 1,30,-1
 499 411 l 1,31,32
 453 461 453 461 409 461 c 128,-1,33
 365 461 365 461 338.5 430.5 c 128,-1,34
 312 400 312 400 312 332 c 0,35,36
 312 198 312 198 409 198 c 0,16,17
EndSplineSet
EndChar

StartChar: ordfeminine
Encoding: 170 170 108
Width: 414
GlyphClass: 2
Flags: W
LayerCount: 2
Fore
SplineSet
280 264 m 1,0,-1
 280 302 l 1,1,-1
 276 302 l 1,2,3
 239 256 239 256 176.5 256 c 128,-1,4
 114 256 114 256 81 302.5 c 128,-1,5
 48 349 48 349 48 428 c 128,-1,6
 48 507 48 507 95.5 558.5 c 128,-1,7
 143 610 143 610 230 610 c 0,8,9
 293 610 293 610 358 586 c 1,10,-1
 358 342 l 2,11,12
 358 331 358 331 362.5 327 c 128,-1,13
 367 323 367 323 379 322 c 2,14,-1
 396 321 l 1,15,-1
 396 264 l 1,16,-1
 280 264 l 1,0,-1
266 369 m 2,17,-1
 266 533 l 1,18,19
 244 541 244 541 220 541 c 0,20,21
 180 541 180 541 160 509.5 c 128,-1,22
 140 478 140 478 140 429 c 0,23,24
 140 324 140 324 206 324 c 0,25,26
 232 324 232 324 249 338.5 c 128,-1,27
 266 353 266 353 266 369 c 2,17,-1
EndSplineSet
EndChar

StartChar: guillemotleft
Encoding: 171 171 109
Width: 530
GlyphClass: 2
Flags: W
LayerCount: 2
Fore
SplineSet
293 406 m 1,0,-1
 173 263 l 1,1,-1
 286 103 l 1,2,-1
 239 61 l 1,3,-1
 65 222 l 2,4,5
 47 239 47 239 47 265.5 c 128,-1,6
 47 292 47 292 76 315 c 2,7,-1
 246 451 l 1,8,-1
 293 406 l 1,0,-1
497 406 m 1,9,-1
 377 263 l 1,10,-1
 490 103 l 1,11,-1
 443 61 l 1,12,-1
 269 222 l 2,13,14
 251 239 251 239 251 265.5 c 128,-1,15
 251 292 251 292 280 315 c 2,16,-1
 450 451 l 1,17,-1
 497 406 l 1,9,-1
EndSplineSet
EndChar

StartChar: logicalnot
Encoding: 172 172 110
Width: 535
GlyphClass: 2
Flags: W
LayerCount: 2
Fore
SplineSet
385 171 m 1,0,-1
 385 315 l 1,1,-1
 52 315 l 1,2,-1
 52 412 l 1,3,-1
 481 412 l 1,4,-1
 481 171 l 1,5,-1
 385 171 l 1,0,-1
EndSplineSet
EndChar

StartChar: uni00AD
Encoding: 173 173 111
Width: 322
GlyphClass: 2
Flags: W
LayerCount: 2
Fore
SplineSet
42 244 m 1,0,-1
 42 337 l 1,1,-1
 279 337 l 1,2,-1
 279 244 l 1,3,-1
 42 244 l 1,0,-1
EndSplineSet
EndChar

StartChar: registered
Encoding: 174 174 112
Width: 463
GlyphClass: 2
Flags: W
LayerCount: 2
Fore
SplineSet
287 459 m 2,0,-1
 323 378 l 1,1,-1
 273 378 l 1,2,-1
 242 448 l 2,3,4
 236 462 236 462 226 462 c 2,5,-1
 207 462 l 1,6,-1
 207 378 l 1,7,-1
 162 378 l 1,8,-1
 162 589 l 1,9,-1
 238 589 l 2,10,11
 308 589 308 589 308 532 c 0,12,13
 308 490 308 490 274 474 c 1,14,15
 282 470 282 470 287 459 c 2,0,-1
207 498 m 1,16,-1
 223 498 l 2,17,18
 259 498 259 498 259 528 c 0,19,20
 259 553 259 553 223 553 c 2,21,-1
 207 553 l 1,22,-1
 207 498 l 1,16,-1
375.5 621.5 m 128,-1,24
 433 566 433 566 433 481.5 c 128,-1,25
 433 397 433 397 376 341.5 c 128,-1,26
 319 286 319 286 228.5 286 c 128,-1,27
 138 286 138 286 84 340.5 c 128,-1,28
 30 395 30 395 30 480.5 c 128,-1,29
 30 566 30 566 86 621.5 c 128,-1,30
 142 677 142 677 230 677 c 128,-1,23
 318 677 318 677 375.5 621.5 c 128,-1,24
338 372 m 128,-1,32
 380 413 380 413 380 479.5 c 128,-1,33
 380 546 380 546 337 588.5 c 128,-1,34
 294 631 294 631 228.5 631 c 128,-1,35
 163 631 163 631 123 589 c 128,-1,36
 83 547 83 547 83 481 c 128,-1,37
 83 415 83 415 124 373 c 128,-1,38
 165 331 165 331 230.5 331 c 128,-1,31
 296 331 296 331 338 372 c 128,-1,32
EndSplineSet
EndChar

StartChar: macron
Encoding: 175 175 113
Width: 500
GlyphClass: 2
Flags: W
LayerCount: 2
Fore
SplineSet
104 610 m 1,0,-1
 104 694 l 1,1,-1
 391 694 l 1,2,-1
 391 610 l 1,3,-1
 104 610 l 1,0,-1
EndSplineSet
EndChar

StartChar: degree
Encoding: 176 176 114
Width: 298
GlyphClass: 2
Flags: W
LayerCount: 2
Fore
SplineSet
64.5 513.5 m 128,-1,1
 35 546 35 546 35 596.5 c 128,-1,2
 35 647 35 647 67 680.5 c 128,-1,3
 99 714 99 714 150 714 c 128,-1,4
 201 714 201 714 232 681.5 c 128,-1,5
 263 649 263 649 263 599 c 128,-1,6
 263 549 263 549 231 515 c 128,-1,7
 199 481 199 481 146.5 481 c 128,-1,0
 94 481 94 481 64.5 513.5 c 128,-1,1
97 596 m 0,8,9
 97 570 97 570 110.5 553.5 c 128,-1,10
 124 537 124 537 149 537 c 128,-1,11
 174 537 174 537 187 553.5 c 128,-1,12
 200 570 200 570 200 596 c 0,13,14
 200 657 200 657 148.5 657 c 128,-1,15
 97 657 97 657 97 596 c 0,8,9
EndSplineSet
EndChar

StartChar: plusminus
Encoding: 177 177 115
Width: 535
GlyphClass: 2
Flags: W
LayerCount: 2
Fore
SplineSet
214 364 m 1,0,-1
 214 520 l 1,1,-1
 316 520 l 1,2,-1
 316 364 l 1,3,-1
 470 364 l 1,4,-1
 470 266 l 1,5,-1
 316 266 l 1,6,-1
 316 132 l 1,7,-1
 470 132 l 1,8,-1
 470 35 l 1,9,-1
 65 35 l 1,10,-1
 65 132 l 1,11,-1
 214 132 l 1,12,-1
 214 266 l 1,13,-1
 65 266 l 1,14,-1
 65 364 l 1,15,-1
 214 364 l 1,0,-1
EndSplineSet
EndChar

StartChar: twosuperior
Encoding: 178 178 116
Width: 337
GlyphClass: 2
Flags: W
LayerCount: 2
Fore
SplineSet
23 700 m 1,0,1
 95 737 95 737 164 737 c 128,-1,2
 233 737 233 737 265 709 c 128,-1,3
 297 681 297 681 297 642.5 c 128,-1,4
 297 604 297 604 283.5 578 c 128,-1,5
 270 552 270 552 241 517 c 1,6,-1
 152 416 l 1,7,-1
 310 416 l 1,8,-1
 310 341 l 1,9,-1
 35 341 l 1,10,-1
 35 399 l 1,11,-1
 159 543 l 2,12,13
 203 595 203 595 203 619 c 0,14,15
 203 665 203 665 156 665 c 0,16,17
 129 665 129 665 116 659.5 c 128,-1,18
 103 654 103 654 101 649 c 128,-1,19
 99 644 99 644 99 632 c 2,20,-1
 99 587 l 1,21,-1
 23 591 l 1,22,-1
 23 700 l 1,0,1
EndSplineSet
EndChar

StartChar: threesuperior
Encoding: 179 179 117
Width: 337
GlyphClass: 2
Flags: W
LayerCount: 2
Fore
SplineSet
98 571 m 1,0,-1
 163 571 l 1,1,2
 201 593 201 593 201 626 c 0,3,4
 201 667 201 667 151 667 c 0,5,6
 130 667 130 667 116 662.5 c 128,-1,7
 102 658 102 658 102 640 c 2,8,-1
 102 607 l 1,9,-1
 32 612 l 1,10,-1
 32 707 l 1,11,12
 94 737 94 737 159 737 c 128,-1,13
 224 737 224 737 256 710.5 c 128,-1,14
 288 684 288 684 288 641 c 0,15,16
 288 583 288 583 231 544 c 1,17,18
 295 524 295 524 295 459 c 0,19,20
 295 404 295 404 257.5 370 c 128,-1,21
 220 336 220 336 147 336 c 128,-1,22
 74 336 74 336 24 367 c 1,23,-1
 47 432 l 1,24,25
 97 406 97 406 145 406 c 0,26,27
 208 406 208 406 208 453 c 0,28,29
 208 480 208 480 188.5 492.5 c 128,-1,30
 169 505 169 505 124 505 c 2,31,-1
 92 505 l 1,32,-1
 98 571 l 1,0,-1
EndSplineSet
EndChar

StartChar: acute
Encoding: 180 180 118
Width: 500
GlyphClass: 2
Flags: W
LayerCount: 2
Fore
SplineSet
148 594 m 1,0,-1
 264 786 l 1,1,-1
 311 764 l 1,2,3
 340 748 340 748 340 728 c 128,-1,4
 340 708 340 708 315 685 c 2,5,-1
 187 561 l 1,6,-1
 148 594 l 1,0,-1
EndSplineSet
EndChar

StartChar: mu
Encoding: 181 181 119
Width: 584
GlyphClass: 2
Flags: W
LayerCount: 2
Fore
SplineSet
504 503 m 1,0,-1
 504 103 l 2,1,2
 504 70 504 70 530 70 c 0,3,4
 544 70 544 70 569 82 c 1,5,-1
 583 12 l 1,6,7
 540 -12 540 -12 492 -12 c 0,8,9
 417 -12 417 -12 413 69 c 1,10,11
 397 32 397 32 362 9 c 128,-1,12
 327 -14 327 -14 284 -14 c 0,13,14
 214 -14 214 -14 181 35 c 1,15,-1
 181 -216 l 1,16,-1
 74 -216 l 1,17,-1
 74 503 l 1,18,-1
 186 503 l 1,19,-1
 186 214 l 2,20,21
 186 144 186 144 208 107 c 128,-1,22
 230 70 230 70 282 70 c 128,-1,23
 334 70 334 70 362 113.5 c 128,-1,24
 390 157 390 157 390 231 c 2,25,-1
 390 503 l 1,26,-1
 504 503 l 1,0,-1
EndSplineSet
EndChar

StartChar: paragraph
Encoding: 182 182 120
Width: 549
GlyphClass: 2
Flags: W
LayerCount: 2
Fore
SplineSet
457 549 m 2,0,-1
 457 81 l 2,1,2
 457 -50 457 -50 406 -113 c 128,-1,3
 355 -176 355 -176 212 -205 c 1,4,-1
 187 -107 l 1,5,6
 275 -86 275 -86 308.5 -48 c 128,-1,7
 342 -10 342 -10 342 62 c 2,8,-1
 342 579 l 1,9,-1
 270 579 l 1,10,-1
 270 215 l 1,11,12
 175 217 175 217 113 271.5 c 128,-1,13
 51 326 51 326 51 439 c 128,-1,14
 51 552 51 552 117 608.5 c 128,-1,15
 183 665 183 665 292 665 c 2,16,-1
 519 665 l 1,17,-1
 519 584 l 1,18,-1
 486 581 l 2,19,20
 457 578 457 578 457 549 c 2,0,-1
EndSplineSet
EndChar

StartChar: periodcentered
Encoding: 183 183 121
Width: 309
GlyphClass: 2
Flags: W
LayerCount: 2
Fore
SplineSet
103.5 257.5 m 128,-1,1
 85 276 85 276 85 306.5 c 128,-1,2
 85 337 85 337 103.5 356 c 128,-1,3
 122 375 122 375 154 375 c 128,-1,4
 186 375 186 375 205 356.5 c 128,-1,5
 224 338 224 338 224 308 c 128,-1,6
 224 278 224 278 205.5 258.5 c 128,-1,7
 187 239 187 239 154.5 239 c 128,-1,0
 122 239 122 239 103.5 257.5 c 128,-1,1
EndSplineSet
EndChar

StartChar: cedilla
Encoding: 184 184 122
Width: 500
GlyphClass: 2
Flags: W
LayerCount: 2
Fore
SplineSet
212 3 m 1,0,-1
 269 3 l 1,1,-1
 252 -63 l 1,2,3
 294 -66 294 -66 319.5 -87 c 128,-1,4
 345 -108 345 -108 345 -151.5 c 128,-1,5
 345 -195 345 -195 308.5 -218.5 c 128,-1,6
 272 -242 272 -242 223 -242 c 128,-1,7
 174 -242 174 -242 133 -224 c 1,8,-1
 149 -172 l 1,9,10
 188 -185 188 -185 216 -185 c 0,11,12
 264 -185 264 -185 264 -147.5 c 128,-1,13
 264 -110 264 -110 176 -110 c 1,14,-1
 212 3 l 1,0,-1
EndSplineSet
EndChar

StartChar: onesuperior
Encoding: 185 185 123
Width: 316
GlyphClass: 2
Flags: W
LayerCount: 2
Fore
SplineSet
61 407 m 1,0,-1
 120 411 l 2,1,2
 136 412 136 412 136 427 c 2,3,-1
 136 639 l 1,4,-1
 55 603 l 1,5,-1
 26 660 l 1,6,-1
 151 731 l 1,7,-1
 224 731 l 1,8,-1
 224 411 l 1,9,-1
 294 408 l 1,10,-1
 294 341 l 1,11,-1
 61 341 l 1,12,-1
 61 407 l 1,0,-1
EndSplineSet
EndChar

StartChar: ordmasculine
Encoding: 186 186 124
Width: 406
GlyphClass: 2
Flags: W
LayerCount: 2
Fore
SplineSet
136 442 m 0,0,1
 136 331 136 331 202.5 331 c 128,-1,2
 269 331 269 331 269 432 c 0,3,4
 269 485 269 485 253.5 511 c 128,-1,5
 238 537 238 537 201 537 c 0,6,7
 136 537 136 537 136 442 c 0,0,1
42 430 m 0,8,9
 42 566 42 566 150 602 c 0,10,11
 177 611 177 611 206 611 c 0,12,13
 270 611 270 611 316.5 572.5 c 128,-1,14
 363 534 363 534 363 444 c 128,-1,15
 363 354 363 354 318 305 c 128,-1,16
 273 256 273 256 198.5 256 c 128,-1,17
 124 256 124 256 83 302.5 c 128,-1,18
 42 349 42 349 42 430 c 0,8,9
EndSplineSet
EndChar

StartChar: guillemotright
Encoding: 187 187 125
Width: 530
GlyphClass: 2
Flags: W
LayerCount: 2
Fore
SplineSet
154 263 m 1,0,-1
 34 408 l 1,1,-1
 81 453 l 1,2,-1
 251 317 l 2,3,4
 280 294 280 294 280 266.5 c 128,-1,5
 280 239 280 239 260 221 c 2,6,-1
 88 63 l 1,7,-1
 41 105 l 1,8,-1
 154 263 l 1,0,-1
358 263 m 1,9,-1
 238 408 l 1,10,-1
 285 453 l 1,11,-1
 455 317 l 2,12,13
 484 294 484 294 484 266.5 c 128,-1,14
 484 239 484 239 464 221 c 2,15,-1
 292 63 l 1,16,-1
 245 105 l 1,17,-1
 358 263 l 1,9,-1
EndSplineSet
EndChar

StartChar: onequarter
Encoding: 188 188 126
Width: 825
GlyphClass: 2
Flags: W
LayerCount: 2
Fore
SplineSet
62 327 m 1,0,-1
 121 331 l 2,1,2
 137 332 137 332 137 347 c 2,3,-1
 137 559 l 1,4,-1
 56 523 l 1,5,-1
 27 580 l 1,6,-1
 152 651 l 1,7,-1
 225 651 l 1,8,-1
 225 331 l 1,9,-1
 295 328 l 1,10,-1
 295 261 l 1,11,-1
 62 261 l 1,12,-1
 62 327 l 1,0,-1
284 -41 m 1,13,-1
 208 -6 l 1,14,-1
 532 686 l 1,15,-1
 610 653 l 1,16,-1
 284 -41 l 1,13,-1
624 86 m 2,17,-1
 624 113 l 1,18,-1
 472 113 l 1,19,-1
 472 171 l 1,20,-1
 584 403 l 1,21,-1
 653 371 l 1,22,-1
 561 182 l 1,23,-1
 629 182 l 1,24,-1
 658 258 l 1,25,-1
 711 258 l 1,26,-1
 711 182 l 1,27,-1
 772 182 l 1,28,-1
 772 111 l 1,29,-1
 711 111 l 1,30,-1
 711 70 l 1,31,-1
 782 67 l 1,32,-1
 782 0 l 1,33,-1
 549 0 l 1,34,-1
 549 66 l 1,35,-1
 608 70 l 2,36,37
 624 71 624 71 624 86 c 2,17,-1
EndSplineSet
EndChar

StartChar: onehalf
Encoding: 189 189 127
Width: 825
GlyphClass: 2
Flags: W
LayerCount: 2
Fore
SplineSet
64 327 m 1,0,-1
 123 331 l 2,1,2
 139 332 139 332 139 347 c 2,3,-1
 139 559 l 1,4,-1
 58 523 l 1,5,-1
 29 580 l 1,6,-1
 154 651 l 1,7,-1
 227 651 l 1,8,-1
 227 331 l 1,9,-1
 297 328 l 1,10,-1
 297 261 l 1,11,-1
 64 261 l 1,12,-1
 64 327 l 1,0,-1
277 -41 m 1,13,-1
 201 -6 l 1,14,-1
 525 686 l 1,15,-1
 603 653 l 1,16,-1
 277 -41 l 1,13,-1
497 359 m 1,17,18
 569 396 569 396 638 396 c 128,-1,19
 707 396 707 396 739 368 c 128,-1,20
 771 340 771 340 771 301.5 c 128,-1,21
 771 263 771 263 757.5 237 c 128,-1,22
 744 211 744 211 715 176 c 1,23,-1
 626 75 l 1,24,-1
 784 75 l 1,25,-1
 784 0 l 1,26,-1
 509 0 l 1,27,-1
 509 58 l 1,28,-1
 633 202 l 2,29,30
 677 254 677 254 677 278 c 0,31,32
 677 324 677 324 630 324 c 0,33,34
 603 324 603 324 590 318.5 c 128,-1,35
 577 313 577 313 575 308 c 128,-1,36
 573 303 573 303 573 291 c 2,37,-1
 573 246 l 1,38,-1
 497 250 l 1,39,-1
 497 359 l 1,17,18
EndSplineSet
EndChar

StartChar: threequarters
Encoding: 190 190 128
Width: 825
GlyphClass: 2
Flags: W
LayerCount: 2
Fore
SplineSet
124 491 m 1,0,-1
 189 491 l 1,1,2
 227 513 227 513 227 546 c 0,3,4
 227 587 227 587 177 587 c 0,5,6
 156 587 156 587 142 582.5 c 128,-1,7
 128 578 128 578 128 560 c 2,8,-1
 128 527 l 1,9,-1
 58 532 l 1,10,-1
 58 627 l 1,11,12
 120 657 120 657 185 657 c 128,-1,13
 250 657 250 657 282 630.5 c 128,-1,14
 314 604 314 604 314 561 c 0,15,16
 314 503 314 503 257 464 c 1,17,18
 321 444 321 444 321 379 c 0,19,20
 321 324 321 324 283.5 290 c 128,-1,21
 246 256 246 256 173 256 c 128,-1,22
 100 256 100 256 50 287 c 1,23,-1
 73 352 l 1,24,25
 123 326 123 326 171 326 c 0,26,27
 234 326 234 326 234 373 c 0,28,29
 234 400 234 400 214.5 412.5 c 128,-1,30
 195 425 195 425 150 425 c 2,31,-1
 118 425 l 1,32,-1
 124 491 l 1,0,-1
294 -41 m 1,33,-1
 218 -6 l 1,34,-1
 542 686 l 1,35,-1
 620 653 l 1,36,-1
 294 -41 l 1,33,-1
635 86 m 2,37,-1
 635 113 l 1,38,-1
 483 113 l 1,39,-1
 483 171 l 1,40,-1
 595 403 l 1,41,-1
 664 371 l 1,42,-1
 572 182 l 1,43,-1
 640 182 l 1,44,-1
 669 258 l 1,45,-1
 722 258 l 1,46,-1
 722 182 l 1,47,-1
 783 182 l 1,48,-1
 783 111 l 1,49,-1
 722 111 l 1,50,-1
 722 70 l 1,51,-1
 793 67 l 1,52,-1
 793 0 l 1,53,-1
 560 0 l 1,54,-1
 560 66 l 1,55,-1
 619 70 l 2,56,57
 635 71 635 71 635 86 c 2,37,-1
EndSplineSet
EndChar

StartChar: questiondown
Encoding: 191 191 129
Width: 433
GlyphClass: 2
Flags: W
LayerCount: 2
Fore
SplineSet
164 -37 m 0,0,1
 164 -100 164 -100 233 -100 c 0,2,3
 256 -100 256 -100 276 -94.5 c 128,-1,4
 296 -89 296 -89 299.5 -81 c 128,-1,5
 303 -73 303 -73 303 -57 c 2,6,-1
 303 -4 l 1,7,-1
 405 -11 l 1,8,-1
 405 -148 l 1,9,10
 309 -194 309 -194 221.5 -194 c 128,-1,11
 134 -194 134 -194 91 -153 c 128,-1,12
 48 -112 48 -112 48 -46.5 c 128,-1,13
 48 19 48 19 74.5 56.5 c 128,-1,14
 101 94 101 94 143 124.5 c 128,-1,15
 185 155 185 155 196 169 c 128,-1,16
 207 183 207 183 208 211 c 2,17,-1
 213 321 l 1,18,-1
 309 321 l 1,19,-1
 314 216 l 2,20,21
 314 208 314 208 314 201 c 0,22,23
 314 157 314 157 298 128 c 0,24,25
 280 96 280 96 219 52 c 0,26,27
 186 28 186 28 181 19.5 c 128,-1,28
 176 11 176 11 172 2 c 0,29,30
 164 -12 164 -12 164 -37 c 0,0,1
310.5 499 m 128,-1,32
 329 480 329 480 329 452 c 128,-1,33
 329 424 329 424 310 404.5 c 128,-1,34
 291 385 291 385 260.5 385 c 128,-1,35
 230 385 230 385 211 403.5 c 128,-1,36
 192 422 192 422 192 450 c 128,-1,37
 192 478 192 478 210.5 498 c 128,-1,38
 229 518 229 518 260.5 518 c 128,-1,31
 292 518 292 518 310.5 499 c 128,-1,32
EndSplineSet
EndChar

StartChar: Agrave
Encoding: 192 192 130
Width: 662
GlyphClass: 2
Flags: W
LayerCount: 2
Fore
SplineSet
68 112 m 2,0,-1
 229 578 l 1,1,-1
 166 584 l 1,2,-1
 166 665 l 1,3,-1
 395 665 l 1,4,-1
 599 88 l 1,5,-1
 600 88 l 1,6,-1
 657 85 l 1,7,-1
 657 0 l 1,8,-1
 399 0 l 1,9,-1
 399 81 l 1,10,-1
 437 84 l 2,11,12
 454 86 454 86 460 92 c 128,-1,13
 466 98 466 98 461 114 c 2,14,-1
 440 176 l 1,15,-1
 206 176 l 1,16,-1
 176 88 l 1,17,-1
 236 85 l 1,18,-1
 236 0 l 1,19,-1
 5 0 l 1,20,-1
 5 81 l 1,21,-1
 38 84 l 2,22,23
 59 86 59 86 68 112 c 2,0,-1
323 553 m 1,24,-1
 230 268 l 1,25,-1
 416 268 l 1,26,-1
 326 553 l 1,27,-1
 323 553 l 1,24,-1
237 907 m 1,28,-1
 399 750 l 1,29,-1
 369 709 l 1,30,-1
 214 796 l 2,31,32
 178 816 178 816 178 836 c 128,-1,33
 178 856 178 856 197 874 c 1,34,-1
 237 907 l 1,28,-1
EndSplineSet
EndChar

StartChar: Aacute
Encoding: 193 193 131
Width: 662
GlyphClass: 2
Flags: W
LayerCount: 2
Fore
SplineSet
68 112 m 2,0,-1
 229 578 l 1,1,-1
 166 584 l 1,2,-1
 166 665 l 1,3,-1
 395 665 l 1,4,-1
 599 88 l 1,5,-1
 600 88 l 1,6,-1
 657 85 l 1,7,-1
 657 0 l 1,8,-1
 399 0 l 1,9,-1
 399 81 l 1,10,-1
 437 84 l 2,11,12
 454 86 454 86 460 92 c 128,-1,13
 466 98 466 98 461 114 c 2,14,-1
 440 176 l 1,15,-1
 206 176 l 1,16,-1
 176 88 l 1,17,-1
 236 85 l 1,18,-1
 236 0 l 1,19,-1
 5 0 l 1,20,-1
 5 81 l 1,21,-1
 38 84 l 2,22,23
 59 86 59 86 68 112 c 2,0,-1
323 553 m 1,24,-1
 230 268 l 1,25,-1
 416 268 l 1,26,-1
 326 553 l 1,27,-1
 323 553 l 1,24,-1
221 750 m 1,28,-1
 383 907 l 1,29,-1
 423 874 l 1,30,31
 441 857 441 857 441 841 c 0,32,33
 441 816 441 816 406 796 c 2,34,-1
 251 709 l 1,35,-1
 221 750 l 1,28,-1
EndSplineSet
EndChar

StartChar: Acircumflex
Encoding: 194 194 132
Width: 662
GlyphClass: 2
Flags: W
LayerCount: 2
Fore
SplineSet
68 112 m 2,0,-1
 229 578 l 1,1,-1
 166 584 l 1,2,-1
 166 665 l 1,3,-1
 395 665 l 1,4,-1
 599 88 l 1,5,-1
 600 88 l 1,6,-1
 657 85 l 1,7,-1
 657 0 l 1,8,-1
 399 0 l 1,9,-1
 399 81 l 1,10,-1
 437 84 l 2,11,12
 454 86 454 86 460 92 c 128,-1,13
 466 98 466 98 461 114 c 2,14,-1
 440 176 l 1,15,-1
 206 176 l 1,16,-1
 176 88 l 1,17,-1
 236 85 l 1,18,-1
 236 0 l 1,19,-1
 5 0 l 1,20,-1
 5 81 l 1,21,-1
 38 84 l 2,22,23
 59 86 59 86 68 112 c 2,0,-1
323 553 m 1,24,-1
 230 268 l 1,25,-1
 416 268 l 1,26,-1
 326 553 l 1,27,-1
 323 553 l 1,24,-1
181 708 m 1,28,-1
 140 742 l 1,29,-1
 258 870 l 2,30,31
 279 893 279 893 300 893 c 1,32,-1
 340 872 l 1,33,-1
 460 743 l 1,34,-1
 419 708 l 1,35,-1
 299 794 l 1,36,-1
 181 708 l 1,28,-1
EndSplineSet
EndChar

StartChar: Atilde
Encoding: 195 195 133
Width: 662
GlyphClass: 2
Flags: W
LayerCount: 2
Fore
SplineSet
68 112 m 2,0,-1
 229 578 l 1,1,-1
 166 584 l 1,2,-1
 166 665 l 1,3,-1
 395 665 l 1,4,-1
 599 88 l 1,5,-1
 600 88 l 1,6,-1
 657 85 l 1,7,-1
 657 0 l 1,8,-1
 399 0 l 1,9,-1
 399 81 l 1,10,-1
 437 84 l 2,11,12
 454 86 454 86 460 92 c 128,-1,13
 466 98 466 98 461 114 c 2,14,-1
 440 176 l 1,15,-1
 206 176 l 1,16,-1
 176 88 l 1,17,-1
 236 85 l 1,18,-1
 236 0 l 1,19,-1
 5 0 l 1,20,-1
 5 81 l 1,21,-1
 38 84 l 2,22,23
 59 86 59 86 68 112 c 2,0,-1
323 553 m 1,24,-1
 230 268 l 1,25,-1
 416 268 l 1,26,-1
 326 553 l 1,27,-1
 323 553 l 1,24,-1
184 728 m 1,28,-1
 136 763 l 1,29,30
 172 842 172 842 238 842 c 0,31,32
 262 842 262 842 308 828 c 128,-1,33
 354 814 354 814 375.5 814 c 128,-1,34
 397 814 397 814 416 846 c 1,35,-1
 470 817 l 1,36,37
 437 730 437 730 367 730 c 0,38,39
 346 730 346 730 302 743.5 c 128,-1,40
 258 757 258 757 240 757 c 128,-1,41
 222 757 222 757 211 751.5 c 128,-1,42
 200 746 200 746 184 728 c 1,28,-1
EndSplineSet
EndChar

StartChar: Adieresis
Encoding: 196 196 134
Width: 662
GlyphClass: 2
Flags: W
LayerCount: 2
Fore
SplineSet
68 112 m 2,0,-1
 229 578 l 1,1,-1
 166 584 l 1,2,-1
 166 665 l 1,3,-1
 395 665 l 1,4,-1
 599 88 l 1,5,-1
 600 88 l 1,6,-1
 657 85 l 1,7,-1
 657 0 l 1,8,-1
 399 0 l 1,9,-1
 399 81 l 1,10,-1
 437 84 l 2,11,12
 454 86 454 86 460 92 c 128,-1,13
 466 98 466 98 461 114 c 2,14,-1
 440 176 l 1,15,-1
 206 176 l 1,16,-1
 176 88 l 1,17,-1
 236 85 l 1,18,-1
 236 0 l 1,19,-1
 5 0 l 1,20,-1
 5 81 l 1,21,-1
 38 84 l 2,22,23
 59 86 59 86 68 112 c 2,0,-1
323 553 m 1,24,-1
 230 268 l 1,25,-1
 416 268 l 1,26,-1
 326 553 l 1,27,-1
 323 553 l 1,24,-1
353 739.5 m 128,-1,29
 334 758 334 758 334 786.5 c 128,-1,30
 334 815 334 815 353.5 834.5 c 128,-1,31
 373 854 373 854 403 854 c 128,-1,32
 433 854 433 854 452.5 834.5 c 128,-1,33
 472 815 472 815 472 786.5 c 128,-1,34
 472 758 472 758 452.5 739.5 c 128,-1,35
 433 721 433 721 402.5 721 c 128,-1,28
 372 721 372 721 353 739.5 c 128,-1,29
153 739.5 m 128,-1,37
 134 758 134 758 134 786.5 c 128,-1,38
 134 815 134 815 153.5 834.5 c 128,-1,39
 173 854 173 854 203 854 c 128,-1,40
 233 854 233 854 252.5 834.5 c 128,-1,41
 272 815 272 815 272 786.5 c 128,-1,42
 272 758 272 758 252.5 739.5 c 128,-1,43
 233 721 233 721 202.5 721 c 128,-1,36
 172 721 172 721 153 739.5 c 128,-1,37
EndSplineSet
EndChar

StartChar: Aring
Encoding: 197 197 135
Width: 662
GlyphClass: 2
Flags: W
LayerCount: 2
Fore
SplineSet
68 112 m 2,0,-1
 229 578 l 1,1,-1
 166 584 l 1,2,-1
 166 665 l 1,3,-1
 395 665 l 1,4,-1
 599 88 l 1,5,-1
 600 88 l 1,6,-1
 657 85 l 1,7,-1
 657 0 l 1,8,-1
 399 0 l 1,9,-1
 399 81 l 1,10,-1
 437 84 l 2,11,12
 454 86 454 86 460 92 c 128,-1,13
 466 98 466 98 461 114 c 2,14,-1
 440 176 l 1,15,-1
 206 176 l 1,16,-1
 176 88 l 1,17,-1
 236 85 l 1,18,-1
 236 0 l 1,19,-1
 5 0 l 1,20,-1
 5 81 l 1,21,-1
 38 84 l 2,22,23
 59 86 59 86 68 112 c 2,0,-1
323 553 m 1,24,-1
 230 268 l 1,25,-1
 416 268 l 1,26,-1
 326 553 l 1,27,-1
 323 553 l 1,24,-1
234.5 726.5 m 128,-1,29
 210 753 210 753 210 793.5 c 128,-1,30
 210 834 210 834 236.5 860 c 128,-1,31
 263 886 263 886 305.5 886 c 128,-1,32
 348 886 348 886 373 860.5 c 128,-1,33
 398 835 398 835 398 795 c 128,-1,34
 398 755 398 755 372 727.5 c 128,-1,35
 346 700 346 700 302.5 700 c 128,-1,28
 259 700 259 700 234.5 726.5 c 128,-1,29
305 834 m 128,-1,37
 269 834 269 834 269 792.5 c 128,-1,38
 269 751 269 751 305 751 c 0,39,40
 322 751 322 751 331.5 763 c 128,-1,41
 341 775 341 775 341 793 c 0,42,36
 341 834 341 834 305 834 c 128,-1,37
EndSplineSet
EndChar

StartChar: AE
Encoding: 198 198 136
Width: 854
GlyphClass: 2
Flags: W
LayerCount: 2
Fore
SplineSet
63 112 m 2,0,-1
 224 578 l 1,1,-1
 161 584 l 1,2,-1
 161 665 l 1,3,-1
 802 665 l 1,4,-1
 802 499 l 1,5,-1
 700 492 l 1,6,-1
 700 532 l 2,7,8
 700 549 700 549 695 556 c 128,-1,9
 690 563 690 563 671 563 c 2,10,-1
 446 563 l 1,11,-1
 505 392 l 1,12,-1
 754 392 l 1,13,-1
 754 290 l 1,14,-1
 523 290 l 1,15,-1
 589 103 l 1,16,-1
 684 103 l 2,17,18
 702 103 702 103 707 110.5 c 128,-1,19
 712 118 712 118 712 135 c 2,20,-1
 712 185 l 1,21,-1
 814 178 l 1,22,-1
 814 0 l 1,23,-1
 394 0 l 1,24,-1
 394 81 l 1,25,-1
 432 84 l 2,26,27
 449 86 449 86 455 92 c 128,-1,28
 461 98 461 98 456 114 c 2,29,-1
 435 176 l 1,30,-1
 201 176 l 1,31,-1
 171 88 l 1,32,-1
 231 85 l 1,33,-1
 231 0 l 1,34,-1
 0 0 l 1,35,-1
 0 81 l 1,36,-1
 33 84 l 2,37,38
 54 86 54 86 63 112 c 2,0,-1
318 553 m 1,39,-1
 225 268 l 1,40,-1
 411 268 l 1,41,-1
 321 553 l 1,42,-1
 318 553 l 1,39,-1
EndSplineSet
EndChar

StartChar: Ccedilla
Encoding: 199 199 137
Width: 602
GlyphClass: 2
Flags: W
LayerCount: 2
Fore
SplineSet
436 559 m 0,0,1
 425 578 425 578 354 578 c 0,2,3
 261 578 261 578 213 515 c 128,-1,4
 165 452 165 452 165 333 c 0,5,6
 165 86 165 86 350 86 c 0,7,8
 353 86 353 86 376.5 86 c 128,-1,9
 400 86 400 86 421 92.5 c 128,-1,10
 442 99 442 99 446 106 c 128,-1,11
 450 113 450 113 450 128 c 2,12,-1
 450 208 l 1,13,-1
 552 201 l 1,14,-1
 552 28 l 1,15,16
 474 -13 474 -13 355 -13 c 1,17,-1
 342 -63 l 1,18,19
 384 -66 384 -66 409.5 -87 c 128,-1,20
 435 -108 435 -108 435 -151.5 c 128,-1,21
 435 -195 435 -195 398.5 -218.5 c 128,-1,22
 362 -242 362 -242 313 -242 c 128,-1,23
 264 -242 264 -242 223 -224 c 1,24,-1
 239 -172 l 1,25,26
 278 -185 278 -185 306 -185 c 0,27,28
 354 -185 354 -185 354 -147.5 c 128,-1,29
 354 -110 354 -110 266 -110 c 1,30,-1
 298 -9 l 1,31,32
 172 5 172 5 106 90.5 c 128,-1,33
 40 176 40 176 40 329 c 0,34,35
 40 423 40 423 67 493 c 128,-1,36
 94 563 94 563 140 602 c 0,37,38
 230 677 230 677 354 677 c 0,39,40
 454 677 454 677 542 636 c 1,41,-1
 542 466 l 1,42,-1
 440 459 l 1,43,-1
 440 537 l 2,44,45
 440 552 440 552 436 559 c 0,0,1
EndSplineSet
EndChar

StartChar: Egrave
Encoding: 200 200 138
Width: 549
GlyphClass: 2
Flags: W
LayerCount: 2
Fore
SplineSet
509 0 m 1,0,-1
 34 0 l 1,1,-1
 34 81 l 1,2,-1
 67 84 l 2,3,4
 96 87 96 87 96 112 c 2,5,-1
 96 577 l 1,6,-1
 39 580 l 1,7,-1
 39 665 l 1,8,-1
 497 665 l 1,9,-1
 497 499 l 1,10,-1
 395 492 l 1,11,-1
 395 532 l 2,12,13
 395 549 395 549 390 556 c 128,-1,14
 385 563 385 563 366 563 c 2,15,-1
 218 563 l 1,16,-1
 218 392 l 1,17,-1
 449 392 l 1,18,-1
 449 290 l 1,19,-1
 218 290 l 1,20,-1
 218 103 l 1,21,-1
 379 103 l 2,22,23
 397 103 397 103 402 110.5 c 128,-1,24
 407 118 407 118 407 135 c 2,25,-1
 407 185 l 1,26,-1
 509 178 l 1,27,-1
 509 0 l 1,0,-1
214 907 m 1,28,-1
 376 750 l 1,29,-1
 346 709 l 1,30,-1
 191 796 l 2,31,32
 155 816 155 816 155 836 c 128,-1,33
 155 856 155 856 174 874 c 1,34,-1
 214 907 l 1,28,-1
EndSplineSet
EndChar

StartChar: Eacute
Encoding: 201 201 139
Width: 549
GlyphClass: 2
Flags: W
LayerCount: 2
Fore
SplineSet
509 0 m 1,0,-1
 34 0 l 1,1,-1
 34 81 l 1,2,-1
 67 84 l 2,3,4
 96 87 96 87 96 112 c 2,5,-1
 96 577 l 1,6,-1
 39 580 l 1,7,-1
 39 665 l 1,8,-1
 497 665 l 1,9,-1
 497 499 l 1,10,-1
 395 492 l 1,11,-1
 395 532 l 2,12,13
 395 549 395 549 390 556 c 128,-1,14
 385 563 385 563 366 563 c 2,15,-1
 218 563 l 1,16,-1
 218 392 l 1,17,-1
 449 392 l 1,18,-1
 449 290 l 1,19,-1
 218 290 l 1,20,-1
 218 103 l 1,21,-1
 379 103 l 2,22,23
 397 103 397 103 402 110.5 c 128,-1,24
 407 118 407 118 407 135 c 2,25,-1
 407 185 l 1,26,-1
 509 178 l 1,27,-1
 509 0 l 1,0,-1
184 750 m 1,28,-1
 346 907 l 1,29,-1
 386 874 l 1,30,31
 404 857 404 857 404 841 c 0,32,33
 404 816 404 816 369 796 c 2,34,-1
 214 709 l 1,35,-1
 184 750 l 1,28,-1
EndSplineSet
EndChar

StartChar: Ecircumflex
Encoding: 202 202 140
Width: 549
GlyphClass: 2
Flags: W
LayerCount: 2
Fore
SplineSet
509 0 m 1,0,-1
 34 0 l 1,1,-1
 34 81 l 1,2,-1
 67 84 l 2,3,4
 96 87 96 87 96 112 c 2,5,-1
 96 577 l 1,6,-1
 39 580 l 1,7,-1
 39 665 l 1,8,-1
 497 665 l 1,9,-1
 497 499 l 1,10,-1
 395 492 l 1,11,-1
 395 532 l 2,12,13
 395 549 395 549 390 556 c 128,-1,14
 385 563 385 563 366 563 c 2,15,-1
 218 563 l 1,16,-1
 218 392 l 1,17,-1
 449 392 l 1,18,-1
 449 290 l 1,19,-1
 218 290 l 1,20,-1
 218 103 l 1,21,-1
 379 103 l 2,22,23
 397 103 397 103 402 110.5 c 128,-1,24
 407 118 407 118 407 135 c 2,25,-1
 407 185 l 1,26,-1
 509 178 l 1,27,-1
 509 0 l 1,0,-1
155 708 m 1,28,-1
 114 742 l 1,29,-1
 232 870 l 2,30,31
 253 893 253 893 274 893 c 1,32,-1
 314 872 l 1,33,-1
 434 743 l 1,34,-1
 393 708 l 1,35,-1
 273 794 l 1,36,-1
 155 708 l 1,28,-1
EndSplineSet
EndChar

StartChar: Edieresis
Encoding: 203 203 141
Width: 549
GlyphClass: 2
Flags: W
LayerCount: 2
Fore
SplineSet
509 0 m 1,0,-1
 34 0 l 1,1,-1
 34 81 l 1,2,-1
 67 84 l 2,3,4
 96 87 96 87 96 112 c 2,5,-1
 96 577 l 1,6,-1
 39 580 l 1,7,-1
 39 665 l 1,8,-1
 497 665 l 1,9,-1
 497 499 l 1,10,-1
 395 492 l 1,11,-1
 395 532 l 2,12,13
 395 549 395 549 390 556 c 128,-1,14
 385 563 385 563 366 563 c 2,15,-1
 218 563 l 1,16,-1
 218 392 l 1,17,-1
 449 392 l 1,18,-1
 449 290 l 1,19,-1
 218 290 l 1,20,-1
 218 103 l 1,21,-1
 379 103 l 2,22,23
 397 103 397 103 402 110.5 c 128,-1,24
 407 118 407 118 407 135 c 2,25,-1
 407 185 l 1,26,-1
 509 178 l 1,27,-1
 509 0 l 1,0,-1
326 739.5 m 128,-1,29
 307 758 307 758 307 786.5 c 128,-1,30
 307 815 307 815 326.5 834.5 c 128,-1,31
 346 854 346 854 376 854 c 128,-1,32
 406 854 406 854 425.5 834.5 c 128,-1,33
 445 815 445 815 445 786.5 c 128,-1,34
 445 758 445 758 425.5 739.5 c 128,-1,35
 406 721 406 721 375.5 721 c 128,-1,28
 345 721 345 721 326 739.5 c 128,-1,29
126 739.5 m 128,-1,37
 107 758 107 758 107 786.5 c 128,-1,38
 107 815 107 815 126.5 834.5 c 128,-1,39
 146 854 146 854 176 854 c 128,-1,40
 206 854 206 854 225.5 834.5 c 128,-1,41
 245 815 245 815 245 786.5 c 128,-1,42
 245 758 245 758 225.5 739.5 c 128,-1,43
 206 721 206 721 175.5 721 c 128,-1,36
 145 721 145 721 126 739.5 c 128,-1,37
EndSplineSet
EndChar

StartChar: Igrave
Encoding: 204 204 142
Width: 307
GlyphClass: 2
Flags: W
LayerCount: 2
Fore
SplineSet
94 117 m 2,0,-1
 94 577 l 1,1,-1
 37 580 l 1,2,-1
 37 665 l 1,3,-1
 279 665 l 1,4,-1
 279 584 l 1,5,-1
 246 581 l 2,6,7
 217 578 217 578 217 549 c 2,8,-1
 217 88 l 1,9,-1
 274 85 l 1,10,-1
 274 0 l 1,11,-1
 32 0 l 1,12,-1
 32 81 l 1,13,-1
 65 84 l 2,14,15
 80 86 80 86 87 92.5 c 128,-1,16
 94 99 94 99 94 117 c 2,0,-1
86 907 m 1,17,-1
 248 750 l 1,18,-1
 218 709 l 1,19,-1
 63 796 l 2,20,21
 27 816 27 816 27 836 c 128,-1,22
 27 856 27 856 46 874 c 1,23,-1
 86 907 l 1,17,-1
EndSplineSet
EndChar

StartChar: Iacute
Encoding: 205 205 143
Width: 307
GlyphClass: 2
Flags: W
LayerCount: 2
Fore
SplineSet
94 117 m 2,0,-1
 94 577 l 1,1,-1
 37 580 l 1,2,-1
 37 665 l 1,3,-1
 279 665 l 1,4,-1
 279 584 l 1,5,-1
 246 581 l 2,6,7
 217 578 217 578 217 549 c 2,8,-1
 217 88 l 1,9,-1
 274 85 l 1,10,-1
 274 0 l 1,11,-1
 32 0 l 1,12,-1
 32 81 l 1,13,-1
 65 84 l 2,14,15
 80 86 80 86 87 92.5 c 128,-1,16
 94 99 94 99 94 117 c 2,0,-1
64 750 m 1,17,-1
 226 907 l 1,18,-1
 266 874 l 1,19,20
 284 857 284 857 284 841 c 0,21,22
 284 816 284 816 249 796 c 2,23,-1
 94 709 l 1,24,-1
 64 750 l 1,17,-1
EndSplineSet
EndChar

StartChar: Icircumflex
Encoding: 206 206 144
Width: 307
GlyphClass: 2
Flags: W
LayerCount: 2
Fore
SplineSet
94 117 m 2,0,-1
 94 577 l 1,1,-1
 37 580 l 1,2,-1
 37 665 l 1,3,-1
 279 665 l 1,4,-1
 279 584 l 1,5,-1
 246 581 l 2,6,7
 217 578 217 578 217 549 c 2,8,-1
 217 88 l 1,9,-1
 274 85 l 1,10,-1
 274 0 l 1,11,-1
 32 0 l 1,12,-1
 32 81 l 1,13,-1
 65 84 l 2,14,15
 80 86 80 86 87 92.5 c 128,-1,16
 94 99 94 99 94 117 c 2,0,-1
38 708 m 1,17,-1
 -3 742 l 1,18,-1
 115 870 l 2,19,20
 136 893 136 893 157 893 c 1,21,-1
 197 872 l 1,22,-1
 317 743 l 1,23,-1
 276 708 l 1,24,-1
 156 794 l 1,25,-1
 38 708 l 1,17,-1
EndSplineSet
EndChar

StartChar: Idieresis
Encoding: 207 207 145
Width: 307
GlyphClass: 2
Flags: W
LayerCount: 2
Fore
SplineSet
94 117 m 2,0,-1
 94 577 l 1,1,-1
 37 580 l 1,2,-1
 37 665 l 1,3,-1
 279 665 l 1,4,-1
 279 584 l 1,5,-1
 246 581 l 2,6,7
 217 578 217 578 217 549 c 2,8,-1
 217 88 l 1,9,-1
 274 85 l 1,10,-1
 274 0 l 1,11,-1
 32 0 l 1,12,-1
 32 81 l 1,13,-1
 65 84 l 2,14,15
 80 86 80 86 87 92.5 c 128,-1,16
 94 99 94 99 94 117 c 2,0,-1
209 739.5 m 128,-1,18
 190 758 190 758 190 786.5 c 128,-1,19
 190 815 190 815 209.5 834.5 c 128,-1,20
 229 854 229 854 259 854 c 128,-1,21
 289 854 289 854 308.5 834.5 c 128,-1,22
 328 815 328 815 328 786.5 c 128,-1,23
 328 758 328 758 308.5 739.5 c 128,-1,24
 289 721 289 721 258.5 721 c 128,-1,17
 228 721 228 721 209 739.5 c 128,-1,18
9 739.5 m 128,-1,26
 -10 758 -10 758 -10 786.5 c 128,-1,27
 -10 815 -10 815 9.5 834.5 c 128,-1,28
 29 854 29 854 59 854 c 128,-1,29
 89 854 89 854 108.5 834.5 c 128,-1,30
 128 815 128 815 128 786.5 c 128,-1,31
 128 758 128 758 108.5 739.5 c 128,-1,32
 89 721 89 721 58.5 721 c 128,-1,25
 28 721 28 721 9 739.5 c 128,-1,26
EndSplineSet
EndChar

StartChar: Eth
Encoding: 208 208 146
Width: 679
GlyphClass: 2
Flags: W
LayerCount: 2
Fore
SplineSet
48 0 m 1,0,-1
 48 81 l 1,1,-1
 81 84 l 2,2,3
 110 87 110 87 110 112 c 2,4,-1
 110 290 l 1,5,-1
 36 290 l 1,6,-1
 36 380 l 1,7,-1
 110 380 l 1,8,-1
 110 577 l 1,9,-1
 53 580 l 1,10,-1
 53 665 l 1,11,-1
 327 665 l 2,12,13
 474 665 474 665 556.5 587 c 128,-1,14
 639 509 639 509 639 356 c 0,15,16
 639 261 639 261 614 190.5 c 128,-1,17
 589 120 589 120 546 80 c 0,18,19
 460 0 460 0 332 0 c 2,20,-1
 48 0 l 1,0,-1
232 568 m 1,21,-1
 232 380 l 1,22,-1
 401 380 l 1,23,-1
 401 290 l 1,24,-1
 232 290 l 1,25,-1
 232 96 l 1,26,-1
 334 96 l 2,27,28
 420 96 420 96 468 158 c 128,-1,29
 516 220 516 220 516 338 c 0,30,31
 516 568 516 568 321 568 c 2,32,-1
 232 568 l 1,21,-1
EndSplineSet
EndChar

StartChar: Ntilde
Encoding: 209 209 147
Width: 705
GlyphClass: 2
Flags: W
LayerCount: 2
Fore
SplineSet
32 0 m 1,0,-1
 32 81 l 1,1,-1
 68 84 l 2,2,3
 94 86 94 86 94 112 c 2,4,-1
 94 577 l 1,5,-1
 37 580 l 1,6,-1
 37 665 l 1,7,-1
 217 665 l 1,8,-1
 500 206 l 1,9,-1
 502 206 l 1,10,-1
 502 577 l 1,11,-1
 436 580 l 1,12,-1
 436 665 l 1,13,-1
 680 665 l 1,14,-1
 680 584 l 1,15,-1
 644 581 l 2,16,17
 620 579 620 579 620 550 c 2,18,-1
 620 0 l 1,19,-1
 503 0 l 1,20,-1
 214 466 l 1,21,-1
 212 466 l 1,22,-1
 212 88 l 1,23,-1
 277 85 l 1,24,-1
 277 0 l 1,25,-1
 32 0 l 1,0,-1
222 728 m 1,26,-1
 174 763 l 1,27,28
 210 842 210 842 276 842 c 0,29,30
 300 842 300 842 346 828 c 128,-1,31
 392 814 392 814 413.5 814 c 128,-1,32
 435 814 435 814 454 846 c 1,33,-1
 508 817 l 1,34,35
 475 730 475 730 405 730 c 0,36,37
 384 730 384 730 340 743.5 c 128,-1,38
 296 757 296 757 278 757 c 128,-1,39
 260 757 260 757 249 751.5 c 128,-1,40
 238 746 238 746 222 728 c 1,26,-1
EndSplineSet
EndChar

StartChar: Ograve
Encoding: 210 210 148
Width: 664
GlyphClass: 2
Flags: W
LayerCount: 2
Fore
SplineSet
544 593 m 128,-1,1
 624 509 624 509 624 336.5 c 128,-1,2
 624 164 624 164 544.5 75.5 c 128,-1,3
 465 -13 465 -13 329.5 -13 c 128,-1,4
 194 -13 194 -13 117 75 c 128,-1,5
 40 163 40 163 40 331 c 0,6,7
 40 423 40 423 67 492.5 c 128,-1,8
 94 562 94 562 138 600 c 0,9,10
 227 677 227 677 345.5 677 c 128,-1,0
 464 677 464 677 544 593 c 128,-1,1
165 336 m 0,11,12
 165 88 165 88 337 88 c 0,13,14
 429 88 429 88 466 164 c 1,15,16
 500 231 500 231 500 328 c 0,17,18
 500 415 500 415 470 488 c 0,19,20
 453 528 453 528 418.5 551 c 128,-1,21
 384 574 384 574 329 574 c 128,-1,22
 274 574 274 574 234.5 538 c 128,-1,23
 195 502 195 502 180 451 c 128,-1,24
 165 400 165 400 165 336 c 0,11,12
282 907 m 1,25,-1
 444 750 l 1,26,-1
 414 709 l 1,27,-1
 259 796 l 2,28,29
 223 816 223 816 223 836 c 128,-1,30
 223 856 223 856 242 874 c 1,31,-1
 282 907 l 1,25,-1
EndSplineSet
EndChar

StartChar: Oacute
Encoding: 211 211 149
Width: 664
GlyphClass: 2
Flags: W
LayerCount: 2
Fore
SplineSet
544 593 m 128,-1,1
 624 509 624 509 624 336.5 c 128,-1,2
 624 164 624 164 544.5 75.5 c 128,-1,3
 465 -13 465 -13 329.5 -13 c 128,-1,4
 194 -13 194 -13 117 75 c 128,-1,5
 40 163 40 163 40 331 c 0,6,7
 40 423 40 423 67 492.5 c 128,-1,8
 94 562 94 562 138 600 c 0,9,10
 227 677 227 677 345.5 677 c 128,-1,0
 464 677 464 677 544 593 c 128,-1,1
165 336 m 0,11,12
 165 88 165 88 337 88 c 0,13,14
 429 88 429 88 466 164 c 1,15,16
 500 231 500 231 500 328 c 0,17,18
 500 415 500 415 470 488 c 0,19,20
 453 528 453 528 418.5 551 c 128,-1,21
 384 574 384 574 329 574 c 128,-1,22
 274 574 274 574 234.5 538 c 128,-1,23
 195 502 195 502 180 451 c 128,-1,24
 165 400 165 400 165 336 c 0,11,12
237 750 m 1,25,-1
 399 907 l 1,26,-1
 439 874 l 1,27,28
 457 857 457 857 457 841 c 0,29,30
 457 816 457 816 422 796 c 2,31,-1
 267 709 l 1,32,-1
 237 750 l 1,25,-1
EndSplineSet
EndChar

StartChar: Ocircumflex
Encoding: 212 212 150
Width: 664
GlyphClass: 2
Flags: W
LayerCount: 2
Fore
SplineSet
544 593 m 128,-1,1
 624 509 624 509 624 336.5 c 128,-1,2
 624 164 624 164 544.5 75.5 c 128,-1,3
 465 -13 465 -13 329.5 -13 c 128,-1,4
 194 -13 194 -13 117 75 c 128,-1,5
 40 163 40 163 40 331 c 0,6,7
 40 423 40 423 67 492.5 c 128,-1,8
 94 562 94 562 138 600 c 0,9,10
 227 677 227 677 345.5 677 c 128,-1,0
 464 677 464 677 544 593 c 128,-1,1
165 336 m 0,11,12
 165 88 165 88 337 88 c 0,13,14
 429 88 429 88 466 164 c 1,15,16
 500 231 500 231 500 328 c 0,17,18
 500 415 500 415 470 488 c 0,19,20
 453 528 453 528 418.5 551 c 128,-1,21
 384 574 384 574 329 574 c 128,-1,22
 274 574 274 574 234.5 538 c 128,-1,23
 195 502 195 502 180 451 c 128,-1,24
 165 400 165 400 165 336 c 0,11,12
220 708 m 1,25,-1
 179 742 l 1,26,-1
 297 870 l 2,27,28
 318 893 318 893 339 893 c 1,29,-1
 379 872 l 1,30,-1
 499 743 l 1,31,-1
 458 708 l 1,32,-1
 338 794 l 1,33,-1
 220 708 l 1,25,-1
EndSplineSet
EndChar

StartChar: Otilde
Encoding: 213 213 151
Width: 664
GlyphClass: 2
Flags: W
LayerCount: 2
Fore
SplineSet
544 593 m 128,-1,1
 624 509 624 509 624 336.5 c 128,-1,2
 624 164 624 164 544.5 75.5 c 128,-1,3
 465 -13 465 -13 329.5 -13 c 128,-1,4
 194 -13 194 -13 117 75 c 128,-1,5
 40 163 40 163 40 331 c 0,6,7
 40 423 40 423 67 492.5 c 128,-1,8
 94 562 94 562 138 600 c 0,9,10
 227 677 227 677 345.5 677 c 128,-1,0
 464 677 464 677 544 593 c 128,-1,1
165 336 m 0,11,12
 165 88 165 88 337 88 c 0,13,14
 429 88 429 88 466 164 c 1,15,16
 500 231 500 231 500 328 c 0,17,18
 500 415 500 415 470 488 c 0,19,20
 453 528 453 528 418.5 551 c 128,-1,21
 384 574 384 574 329 574 c 128,-1,22
 274 574 274 574 234.5 538 c 128,-1,23
 195 502 195 502 180 451 c 128,-1,24
 165 400 165 400 165 336 c 0,11,12
220 728 m 1,25,-1
 172 763 l 1,26,27
 208 842 208 842 274 842 c 0,28,29
 298 842 298 842 344 828 c 128,-1,30
 390 814 390 814 411.5 814 c 128,-1,31
 433 814 433 814 452 846 c 1,32,-1
 506 817 l 1,33,34
 473 730 473 730 403 730 c 0,35,36
 382 730 382 730 338 743.5 c 128,-1,37
 294 757 294 757 276 757 c 128,-1,38
 258 757 258 757 247 751.5 c 128,-1,39
 236 746 236 746 220 728 c 1,25,-1
EndSplineSet
EndChar

StartChar: Odieresis
Encoding: 214 214 152
Width: 664
GlyphClass: 2
Flags: W
LayerCount: 2
Fore
SplineSet
544 593 m 128,-1,1
 624 509 624 509 624 336.5 c 128,-1,2
 624 164 624 164 544.5 75.5 c 128,-1,3
 465 -13 465 -13 329.5 -13 c 128,-1,4
 194 -13 194 -13 117 75 c 128,-1,5
 40 163 40 163 40 331 c 0,6,7
 40 423 40 423 67 492.5 c 128,-1,8
 94 562 94 562 138 600 c 0,9,10
 227 677 227 677 345.5 677 c 128,-1,0
 464 677 464 677 544 593 c 128,-1,1
165 336 m 0,11,12
 165 88 165 88 337 88 c 0,13,14
 429 88 429 88 466 164 c 1,15,16
 500 231 500 231 500 328 c 0,17,18
 500 415 500 415 470 488 c 0,19,20
 453 528 453 528 418.5 551 c 128,-1,21
 384 574 384 574 329 574 c 128,-1,22
 274 574 274 574 234.5 538 c 128,-1,23
 195 502 195 502 180 451 c 128,-1,24
 165 400 165 400 165 336 c 0,11,12
388 739.5 m 128,-1,26
 369 758 369 758 369 786.5 c 128,-1,27
 369 815 369 815 388.5 834.5 c 128,-1,28
 408 854 408 854 438 854 c 128,-1,29
 468 854 468 854 487.5 834.5 c 128,-1,30
 507 815 507 815 507 786.5 c 128,-1,31
 507 758 507 758 487.5 739.5 c 128,-1,32
 468 721 468 721 437.5 721 c 128,-1,25
 407 721 407 721 388 739.5 c 128,-1,26
188 739.5 m 128,-1,34
 169 758 169 758 169 786.5 c 128,-1,35
 169 815 169 815 188.5 834.5 c 128,-1,36
 208 854 208 854 238 854 c 128,-1,37
 268 854 268 854 287.5 834.5 c 128,-1,38
 307 815 307 815 307 786.5 c 128,-1,39
 307 758 307 758 287.5 739.5 c 128,-1,40
 268 721 268 721 237.5 721 c 128,-1,33
 207 721 207 721 188 739.5 c 128,-1,34
EndSplineSet
EndChar

StartChar: multiply
Encoding: 215 215 153
Width: 535
GlyphClass: 2
Flags: W
LayerCount: 2
Fore
SplineSet
197 314 m 1,0,-1
 83 428 l 1,1,-1
 155 500 l 1,2,-1
 269 386 l 1,3,-1
 381 498 l 1,4,-1
 450 429 l 1,5,-1
 338 316 l 1,6,-1
 451 203 l 1,7,-1
 379 131 l 1,8,-1
 266 244 l 1,9,-1
 153 131 l 1,10,-1
 83 200 l 1,11,-1
 197 314 l 1,0,-1
EndSplineSet
EndChar

StartChar: Oslash
Encoding: 216 216 154
Width: 664
GlyphClass: 2
Flags: W
LayerCount: 2
Fore
SplineSet
528 608 m 1,0,1
 624 519 624 519 624 341.5 c 128,-1,2
 624 164 624 164 544.5 75.5 c 128,-1,3
 465 -13 465 -13 330 -13 c 0,4,5
 274 -13 274 -13 223 3 c 1,6,-1
 173 -100 l 1,7,-1
 86 -58 l 1,8,-1
 139 52 l 1,9,10
 40 140 40 140 40 331 c 0,11,12
 40 423 40 423 67 492.5 c 128,-1,13
 94 562 94 562 138 600 c 0,14,15
 227 677 227 677 341 677 c 0,16,17
 395 677 395 677 444 660 c 1,18,-1
 488 751 l 1,19,-1
 577 710 l 1,20,-1
 528 608 l 1,0,1
165 336 m 0,21,22
 165 226 165 226 199 164 c 1,23,-1
 391 564 l 1,24,25
 363 574 363 574 335 574 c 0,26,27
 274 574 274 574 234.5 538 c 128,-1,28
 195 502 195 502 180 451 c 128,-1,29
 165 400 165 400 165 336 c 0,21,22
466 495 m 1,30,-1
 275 98 l 1,31,32
 301 88 301 88 342 88 c 128,-1,33
 383 88 383 88 416 108 c 128,-1,34
 449 128 449 128 466 164 c 1,35,36
 500 231 500 231 500 330.5 c 128,-1,37
 500 430 500 430 466 495 c 1,30,-1
EndSplineSet
EndChar

StartChar: Ugrave
Encoding: 217 217 155
Width: 659
GlyphClass: 2
Flags: W
LayerCount: 2
Fore
SplineSet
201 548 m 2,0,-1
 201 216 l 2,1,2
 201 146 201 146 234.5 117.5 c 128,-1,3
 268 89 268 89 330.5 89 c 128,-1,4
 393 89 393 89 427.5 120 c 128,-1,5
 462 151 462 151 462 211 c 2,6,-1
 462 577 l 1,7,-1
 404 580 l 1,8,-1
 404 665 l 1,9,-1
 641 665 l 1,10,-1
 641 584 l 1,11,-1
 608 581 l 2,12,13
 579 578 579 578 579 551 c 2,14,-1
 579 194 l 2,15,16
 579 97 579 97 511 42 c 128,-1,17
 443 -13 443 -13 323 -13 c 128,-1,18
 203 -13 203 -13 141.5 40.5 c 128,-1,19
 80 94 80 94 80 210 c 2,20,-1
 80 577 l 1,21,-1
 22 580 l 1,22,-1
 22 665 l 1,23,-1
 264 665 l 1,24,-1
 264 584 l 1,25,-1
 231 581 l 2,26,27
 215 579 215 579 208 572.5 c 128,-1,28
 201 566 201 566 201 548 c 2,0,-1
257 907 m 1,29,-1
 419 750 l 1,30,-1
 389 709 l 1,31,-1
 234 796 l 2,32,33
 198 816 198 816 198 836 c 128,-1,34
 198 856 198 856 217 874 c 1,35,-1
 257 907 l 1,29,-1
EndSplineSet
EndChar

StartChar: Uacute
Encoding: 218 218 156
Width: 659
GlyphClass: 2
Flags: W
LayerCount: 2
Fore
SplineSet
201 548 m 2,0,-1
 201 216 l 2,1,2
 201 146 201 146 234.5 117.5 c 128,-1,3
 268 89 268 89 330.5 89 c 128,-1,4
 393 89 393 89 427.5 120 c 128,-1,5
 462 151 462 151 462 211 c 2,6,-1
 462 577 l 1,7,-1
 404 580 l 1,8,-1
 404 665 l 1,9,-1
 641 665 l 1,10,-1
 641 584 l 1,11,-1
 608 581 l 2,12,13
 579 578 579 578 579 551 c 2,14,-1
 579 194 l 2,15,16
 579 97 579 97 511 42 c 128,-1,17
 443 -13 443 -13 323 -13 c 128,-1,18
 203 -13 203 -13 141.5 40.5 c 128,-1,19
 80 94 80 94 80 210 c 2,20,-1
 80 577 l 1,21,-1
 22 580 l 1,22,-1
 22 665 l 1,23,-1
 264 665 l 1,24,-1
 264 584 l 1,25,-1
 231 581 l 2,26,27
 215 579 215 579 208 572.5 c 128,-1,28
 201 566 201 566 201 548 c 2,0,-1
243 750 m 1,29,-1
 405 907 l 1,30,-1
 445 874 l 1,31,32
 463 857 463 857 463 841 c 0,33,34
 463 816 463 816 428 796 c 2,35,-1
 273 709 l 1,36,-1
 243 750 l 1,29,-1
EndSplineSet
EndChar

StartChar: Ucircumflex
Encoding: 219 219 157
Width: 659
GlyphClass: 2
Flags: W
LayerCount: 2
Fore
SplineSet
201 548 m 2,0,-1
 201 216 l 2,1,2
 201 146 201 146 234.5 117.5 c 128,-1,3
 268 89 268 89 330.5 89 c 128,-1,4
 393 89 393 89 427.5 120 c 128,-1,5
 462 151 462 151 462 211 c 2,6,-1
 462 577 l 1,7,-1
 404 580 l 1,8,-1
 404 665 l 1,9,-1
 641 665 l 1,10,-1
 641 584 l 1,11,-1
 608 581 l 2,12,13
 579 578 579 578 579 551 c 2,14,-1
 579 194 l 2,15,16
 579 97 579 97 511 42 c 128,-1,17
 443 -13 443 -13 323 -13 c 128,-1,18
 203 -13 203 -13 141.5 40.5 c 128,-1,19
 80 94 80 94 80 210 c 2,20,-1
 80 577 l 1,21,-1
 22 580 l 1,22,-1
 22 665 l 1,23,-1
 264 665 l 1,24,-1
 264 584 l 1,25,-1
 231 581 l 2,26,27
 215 579 215 579 208 572.5 c 128,-1,28
 201 566 201 566 201 548 c 2,0,-1
209 708 m 1,29,-1
 168 742 l 1,30,-1
 286 870 l 2,31,32
 307 893 307 893 328 893 c 1,33,-1
 368 872 l 1,34,-1
 488 743 l 1,35,-1
 447 708 l 1,36,-1
 327 794 l 1,37,-1
 209 708 l 1,29,-1
EndSplineSet
EndChar

StartChar: Udieresis
Encoding: 220 220 158
Width: 659
GlyphClass: 2
Flags: W
LayerCount: 2
Fore
SplineSet
201 548 m 2,0,-1
 201 216 l 2,1,2
 201 146 201 146 234.5 117.5 c 128,-1,3
 268 89 268 89 330.5 89 c 128,-1,4
 393 89 393 89 427.5 120 c 128,-1,5
 462 151 462 151 462 211 c 2,6,-1
 462 577 l 1,7,-1
 404 580 l 1,8,-1
 404 665 l 1,9,-1
 641 665 l 1,10,-1
 641 584 l 1,11,-1
 608 581 l 2,12,13
 579 578 579 578 579 551 c 2,14,-1
 579 194 l 2,15,16
 579 97 579 97 511 42 c 128,-1,17
 443 -13 443 -13 323 -13 c 128,-1,18
 203 -13 203 -13 141.5 40.5 c 128,-1,19
 80 94 80 94 80 210 c 2,20,-1
 80 577 l 1,21,-1
 22 580 l 1,22,-1
 22 665 l 1,23,-1
 264 665 l 1,24,-1
 264 584 l 1,25,-1
 231 581 l 2,26,27
 215 579 215 579 208 572.5 c 128,-1,28
 201 566 201 566 201 548 c 2,0,-1
388 739.5 m 128,-1,30
 369 758 369 758 369 786.5 c 128,-1,31
 369 815 369 815 388.5 834.5 c 128,-1,32
 408 854 408 854 438 854 c 128,-1,33
 468 854 468 854 487.5 834.5 c 128,-1,34
 507 815 507 815 507 786.5 c 128,-1,35
 507 758 507 758 487.5 739.5 c 128,-1,36
 468 721 468 721 437.5 721 c 128,-1,29
 407 721 407 721 388 739.5 c 128,-1,30
188 739.5 m 128,-1,38
 169 758 169 758 169 786.5 c 128,-1,39
 169 815 169 815 188.5 834.5 c 128,-1,40
 208 854 208 854 238 854 c 128,-1,41
 268 854 268 854 287.5 834.5 c 128,-1,42
 307 815 307 815 307 786.5 c 128,-1,43
 307 758 307 758 287.5 739.5 c 128,-1,44
 268 721 268 721 237.5 721 c 128,-1,37
 207 721 207 721 188 739.5 c 128,-1,38
EndSplineSet
EndChar

StartChar: Yacute
Encoding: 221 221 159
Width: 570
GlyphClass: 2
Flags: W
LayerCount: 2
Fore
SplineSet
222 112 m 2,0,-1
 222 254 l 1,1,-1
 52 577 l 1,2,-1
 5 580 l 1,3,-1
 5 665 l 1,4,-1
 249 665 l 1,5,-1
 249 584 l 1,6,-1
 219 581 l 2,7,8
 203 580 203 580 198.5 569 c 128,-1,9
 194 558 194 558 202 542 c 2,10,-1
 287 368 l 1,11,-1
 291 368 l 1,12,-1
 400 576 l 1,13,-1
 350 580 l 1,14,-1
 350 665 l 1,15,-1
 565 665 l 1,16,-1
 565 584 l 1,17,-1
 535 581 l 2,18,19
 516 579 516 579 501 551 c 2,20,-1
 344 254 l 1,21,-1
 344 88 l 1,22,-1
 422 85 l 1,23,-1
 422 0 l 1,24,-1
 140 0 l 1,25,-1
 140 81 l 1,26,-1
 193 84 l 2,27,28
 222 86 222 86 222 112 c 2,0,-1
191 750 m 1,29,-1
 353 907 l 1,30,-1
 393 874 l 1,31,32
 411 857 411 857 411 841 c 0,33,34
 411 816 411 816 376 796 c 2,35,-1
 221 709 l 1,36,-1
 191 750 l 1,29,-1
EndSplineSet
EndChar

StartChar: Thorn
Encoding: 222 222 160
Width: 590
GlyphClass: 2
Flags: W
LayerCount: 2
Fore
SplineSet
216 227 m 1,0,-1
 288 227 l 2,1,2
 434 227 434 227 434 336 c 0,3,4
 434 402 434 402 396.5 423.5 c 128,-1,5
 359 445 359 445 277 445 c 2,6,-1
 216 445 l 1,7,-1
 216 227 l 1,0,-1
216 559 m 2,8,-1
 216 542 l 1,9,-1
 323 542 l 2,10,11
 435 542 435 542 497.5 492 c 128,-1,12
 560 442 560 442 560 342 c 128,-1,13
 560 242 560 242 489 186 c 128,-1,14
 418 130 418 130 301 130 c 2,15,-1
 216 130 l 1,16,-1
 216 84 l 1,17,-1
 312 81 l 1,18,-1
 312 0 l 1,19,-1
 32 0 l 1,20,-1
 32 78 l 1,21,-1
 65 81 l 2,22,23
 94 84 94 84 94 109 c 2,24,-1
 94 579 l 1,25,-1
 32 583 l 1,26,-1
 32 665 l 1,27,-1
 309 665 l 1,28,-1
 309 590 l 1,29,-1
 245 587 l 2,30,31
 216 585 216 585 216 559 c 2,8,-1
EndSplineSet
EndChar

StartChar: germandbls
Encoding: 223 223 161
Width: 625
GlyphClass: 2
Flags: W
LayerCount: 2
Fore
SplineSet
90 112 m 2,0,-1
 90 510 l 2,1,2
 90 713 90 713 330 713 c 0,3,4
 439 713 439 713 492.5 672.5 c 128,-1,5
 546 632 546 632 546 568 c 0,6,7
 546 514 546 514 500 471 c 0,8,9
 480 453 480 453 461 437 c 0,10,11
 415 398 415 398 415 370 c 0,12,13
 415 338 415 338 478 300 c 1,14,15
 505 285 505 285 531.5 266.5 c 128,-1,16
 558 248 558 248 576.5 217 c 128,-1,17
 595 186 595 186 595 146 c 0,18,19
 595 70 595 70 544.5 28.5 c 128,-1,20
 494 -13 494 -13 408.5 -13 c 128,-1,21
 323 -13 323 -13 255 18 c 1,22,-1
 255 157 l 1,23,-1
 345 164 l 1,24,-1
 345 116 l 2,25,26
 345 100 345 100 348 93 c 128,-1,27
 351 86 351 86 367.5 79.5 c 128,-1,28
 384 73 384 73 412.5 73.5 c 128,-1,29
 441 74 441 74 459 91 c 128,-1,30
 477 108 477 108 477 136.5 c 128,-1,31
 477 165 477 165 459 185 c 128,-1,32
 441 205 441 205 416 219.5 c 128,-1,33
 391 234 391 234 365.5 249.5 c 128,-1,34
 340 265 340 265 322 290.5 c 128,-1,35
 304 316 304 316 304 350 c 128,-1,36
 304 384 304 384 324 414 c 128,-1,37
 344 444 344 444 368.5 463 c 128,-1,38
 393 482 393 482 413 507 c 128,-1,39
 433 532 433 532 433 556 c 0,40,41
 433 623 433 623 321 623 c 128,-1,42
 209 623 209 623 209 516 c 2,43,-1
 209 0 l 1,44,-1
 28 0 l 1,45,-1
 28 76 l 1,46,-1
 61 79 l 2,47,48
 76 81 76 81 83 87.5 c 128,-1,49
 90 94 90 94 90 112 c 2,0,-1
EndSplineSet
EndChar

StartChar: aacute
Encoding: 225 225 163
Width: 567
GlyphClass: 2
Flags: W
LayerCount: 2
Fore
SplineSet
482 483 m 1,0,-1
 482 111 l 2,1,2
 482 95 482 95 487.5 89 c 128,-1,3
 493 83 493 83 507 82 c 2,4,-1
 539 80 l 1,5,-1
 539 0 l 1,6,-1
 380 0 l 1,7,-1
 380 58 l 1,8,-1
 377 59 l 1,9,10
 327 -13 327 -13 240 -13 c 0,11,12
 138 -13 138 -13 89 52 c 128,-1,13
 40 117 40 117 40 230 c 0,14,15
 40 366 40 366 106 442 c 128,-1,16
 172 518 172 518 304 518 c 0,17,18
 389 518 389 518 482 483 c 1,0,-1
366 159 m 2,19,-1
 366 418 l 1,20,21
 338 431 338 431 289 431 c 0,22,23
 222 431 222 431 192 377 c 128,-1,24
 162 323 162 323 162 234 c 0,25,26
 162 72 162 72 266 72 c 0,27,28
 310 72 310 72 338 98.5 c 128,-1,29
 366 125 366 125 366 159 c 2,19,-1
214 594 m 1,30,-1
 330 786 l 1,31,-1
 377 764 l 1,32,33
 406 748 406 748 406 728 c 128,-1,34
 406 708 406 708 381 685 c 2,35,-1
 253 561 l 1,36,-1
 214 594 l 1,30,-1
EndSplineSet
EndChar

StartChar: atilde
Encoding: 227 227 165
Width: 567
GlyphClass: 2
Flags: W
LayerCount: 2
Fore
SplineSet
482 483 m 1,0,-1
 482 111 l 2,1,2
 482 95 482 95 487.5 89 c 128,-1,3
 493 83 493 83 507 82 c 2,4,-1
 539 80 l 1,5,-1
 539 0 l 1,6,-1
 380 0 l 1,7,-1
 380 58 l 1,8,-1
 377 59 l 1,9,10
 327 -13 327 -13 240 -13 c 0,11,12
 138 -13 138 -13 89 52 c 128,-1,13
 40 117 40 117 40 230 c 0,14,15
 40 366 40 366 106 442 c 128,-1,16
 172 518 172 518 304 518 c 0,17,18
 389 518 389 518 482 483 c 1,0,-1
366 159 m 2,19,-1
 366 418 l 1,20,21
 338 431 338 431 289 431 c 0,22,23
 222 431 222 431 192 377 c 128,-1,24
 162 323 162 323 162 234 c 0,25,26
 162 72 162 72 266 72 c 0,27,28
 310 72 310 72 338 98.5 c 128,-1,29
 366 125 366 125 366 159 c 2,19,-1
175 596 m 1,30,-1
 127 631 l 1,31,32
 163 710 163 710 229 710 c 0,33,34
 253 710 253 710 299 696 c 128,-1,35
 345 682 345 682 366.5 682 c 128,-1,36
 388 682 388 682 407 714 c 1,37,-1
 461 685 l 1,38,39
 428 598 428 598 358 598 c 0,40,41
 336 598 336 598 292 611.5 c 128,-1,42
 248 625 248 625 230.5 625 c 128,-1,43
 213 625 213 625 202 619.5 c 128,-1,44
 191 614 191 614 175 596 c 1,30,-1
EndSplineSet
EndChar

StartChar: aring
Encoding: 229 229 167
Width: 567
GlyphClass: 2
Flags: W
LayerCount: 2
Fore
SplineSet
482 483 m 1,0,-1
 482 111 l 2,1,2
 482 95 482 95 487.5 89 c 128,-1,3
 493 83 493 83 507 82 c 2,4,-1
 539 80 l 1,5,-1
 539 0 l 1,6,-1
 380 0 l 1,7,-1
 380 58 l 1,8,-1
 377 59 l 1,9,10
 327 -13 327 -13 240 -13 c 0,11,12
 138 -13 138 -13 89 52 c 128,-1,13
 40 117 40 117 40 230 c 0,14,15
 40 366 40 366 106 442 c 128,-1,16
 172 518 172 518 304 518 c 0,17,18
 389 518 389 518 482 483 c 1,0,-1
366 159 m 2,19,-1
 366 418 l 1,20,21
 338 431 338 431 289 431 c 0,22,23
 222 431 222 431 192 377 c 128,-1,24
 162 323 162 323 162 234 c 0,25,26
 162 72 162 72 266 72 c 0,27,28
 310 72 310 72 338 98.5 c 128,-1,29
 366 125 366 125 366 159 c 2,19,-1
216.5 590.5 m 128,-1,31
 192 617 192 617 192 657.5 c 128,-1,32
 192 698 192 698 218.5 724 c 128,-1,33
 245 750 245 750 287.5 750 c 128,-1,34
 330 750 330 750 355 724.5 c 128,-1,35
 380 699 380 699 380 659 c 128,-1,36
 380 619 380 619 354 591.5 c 128,-1,37
 328 564 328 564 284.5 564 c 128,-1,30
 241 564 241 564 216.5 590.5 c 128,-1,31
287 698 m 128,-1,39
 251 698 251 698 251 656.5 c 128,-1,40
 251 615 251 615 287 615 c 0,41,42
 304 615 304 615 313.5 627 c 128,-1,43
 323 639 323 639 323 657 c 0,44,38
 323 698 323 698 287 698 c 128,-1,39
EndSplineSet
EndChar

StartChar: ae
Encoding: 230 230 168
Width: 765
GlyphClass: 2
Flags: W
LayerCount: 2
Fore
SplineSet
442 484 m 1,0,1
 495 518 495 518 568 518 c 128,-1,2
 641 518 641 518 684.5 481.5 c 128,-1,3
 728 445 728 445 728 379 c 0,4,5
 728 200 728 200 443 198 c 1,6,7
 446 143 446 143 477 111 c 128,-1,8
 508 79 508 79 567 79 c 128,-1,9
 626 79 626 79 692 124 c 1,10,-1
 730 43 l 1,11,12
 707 24 707 24 660 5.5 c 128,-1,13
 613 -13 613 -13 550 -13 c 0,14,15
 446 -13 446 -13 392 41 c 1,16,17
 326 -13 326 -13 244 -13 c 0,18,19
 136 -13 136 -13 88 54.5 c 128,-1,20
 40 122 40 122 40 244 c 128,-1,21
 40 366 40 366 107 442 c 128,-1,22
 174 518 174 518 299 518 c 0,23,24
 372 518 372 518 442 484 c 1,0,1
287 431 m 0,25,26
 224 431 224 431 193 378 c 128,-1,27
 162 325 162 325 162 241.5 c 128,-1,28
 162 158 162 158 186.5 115 c 128,-1,29
 211 72 211 72 269 72 c 0,30,31
 312 72 312 72 344 104 c 1,32,33
 318 159 318 159 318 250 c 128,-1,34
 318 341 318 341 369 416 c 1,35,36
 332 431 332 431 287 431 c 0,25,26
618 375 m 128,-1,38
 618 402 618 402 602 417.5 c 128,-1,39
 586 433 586 433 559 433 c 0,40,41
 503 433 503 433 472.5 388 c 128,-1,42
 442 343 442 343 439 281 c 1,43,44
 493 281 493 281 535.5 294.5 c 128,-1,45
 578 308 578 308 598 328 c 128,-1,37
 618 348 618 348 618 375 c 128,-1,38
EndSplineSet
EndChar

StartChar: ccedilla
Encoding: 231 231 169
Width: 471
GlyphClass: 2
Flags: W
LayerCount: 2
Fore
SplineSet
186 125 m 128,-1,1
 218 78 218 78 278.5 78 c 128,-1,2
 339 78 339 78 398 121 c 1,3,-1
 441 44 l 1,4,5
 378 -9 378 -9 284 -13 c 1,6,-1
 272 -63 l 1,7,8
 314 -66 314 -66 339.5 -87 c 128,-1,9
 365 -108 365 -108 365 -151.5 c 128,-1,10
 365 -195 365 -195 328.5 -218.5 c 128,-1,11
 292 -242 292 -242 243 -242 c 128,-1,12
 194 -242 194 -242 153 -224 c 1,13,-1
 169 -172 l 1,14,15
 208 -185 208 -185 236 -185 c 0,16,17
 284 -185 284 -185 284 -147.5 c 128,-1,18
 284 -110 284 -110 196 -110 c 1,19,-1
 227 -11 l 1,20,21
 134 0 134 0 83.5 66 c 128,-1,22
 33 132 33 132 33 245 c 0,23,24
 33 385 33 385 103.5 451.5 c 128,-1,25
 174 518 174 518 262.5 518 c 128,-1,26
 351 518 351 518 427 477 c 1,27,-1
 427 347 l 1,28,-1
 335 340 l 1,29,-1
 335 388 l 2,30,31
 335 415 335 415 315.5 421.5 c 128,-1,32
 296 428 296 428 275 428 c 0,33,34
 154 428 154 428 154 257 c 0,35,0
 154 172 154 172 186 125 c 128,-1,1
EndSplineSet
EndChar

StartChar: eacute
Encoding: 233 233 171
Width: 484
GlyphClass: 2
Flags: W
LayerCount: 2
Fore
SplineSet
284 518 m 0,0,1
 359 518 359 518 403 481.5 c 128,-1,2
 447 445 447 445 447 379 c 0,3,4
 447 335 447 335 428 301.5 c 128,-1,5
 409 268 409 268 381 249 c 128,-1,6
 353 230 353 230 313 218 c 0,7,8
 246 198 246 198 162 198 c 1,9,10
 165 145 165 145 195 112.5 c 128,-1,11
 225 80 225 80 287 80 c 128,-1,12
 349 80 349 80 411 124 c 1,13,-1
 449 43 l 1,14,15
 429 25 429 25 381.5 6 c 128,-1,16
 334 -13 334 -13 273 -13 c 0,17,18
 151 -13 151 -13 94 54.5 c 128,-1,19
 37 122 37 122 37 240 c 128,-1,20
 37 358 37 358 102 438 c 128,-1,21
 167 518 167 518 284 518 c 0,0,1
306 318.5 m 128,-1,23
 337 341 337 341 337 372 c 0,24,25
 337 433 337 433 277 433 c 0,26,27
 221 433 221 433 191 388.5 c 128,-1,28
 161 344 161 344 158 282 c 1,29,30
 202 283 202 283 238.5 289.5 c 128,-1,22
 275 296 275 296 306 318.5 c 128,-1,23
173 594 m 1,31,-1
 289 786 l 1,32,-1
 336 764 l 1,33,34
 365 748 365 748 365 728 c 128,-1,35
 365 708 365 708 340 685 c 2,36,-1
 212 561 l 1,37,-1
 173 594 l 1,31,-1
EndSplineSet
EndChar

StartChar: edieresis
Encoding: 235 235 173
Width: 484
GlyphClass: 2
Flags: W
LayerCount: 2
Fore
SplineSet
284 518 m 0,0,1
 359 518 359 518 403 481.5 c 128,-1,2
 447 445 447 445 447 379 c 0,3,4
 447 335 447 335 428 301.5 c 128,-1,5
 409 268 409 268 381 249 c 0,6,7
 306 198 306 198 162 198 c 1,8,9
 165 145 165 145 195 112.5 c 128,-1,10
 225 80 225 80 287 80 c 128,-1,11
 349 80 349 80 411 124 c 1,12,-1
 449 43 l 1,13,14
 429 25 429 25 381.5 6 c 128,-1,15
 334 -13 334 -13 273 -13 c 0,16,17
 151 -13 151 -13 94 54.5 c 128,-1,18
 37 122 37 122 37 240 c 128,-1,19
 37 358 37 358 102 438 c 128,-1,20
 167 518 167 518 284 518 c 0,0,1
277 433 m 0,21,22
 221 433 221 433 191 388.5 c 128,-1,23
 161 344 161 344 158 282 c 1,24,25
 202 283 202 283 238.5 289.5 c 128,-1,26
 275 296 275 296 306 318.5 c 128,-1,27
 337 341 337 341 337 372 c 0,28,29
 337 433 337 433 277 433 c 0,21,22
310 599.5 m 128,-1,31
 291 618 291 618 291 646.5 c 128,-1,32
 291 675 291 675 310.5 694.5 c 128,-1,33
 330 714 330 714 360 714 c 128,-1,34
 390 714 390 714 409.5 694.5 c 128,-1,35
 429 675 429 675 429 646.5 c 128,-1,36
 429 618 429 618 409.5 599.5 c 128,-1,37
 390 581 390 581 359.5 581 c 128,-1,30
 329 581 329 581 310 599.5 c 128,-1,31
110 599.5 m 128,-1,39
 91 618 91 618 91 646.5 c 128,-1,40
 91 675 91 675 110.5 694.5 c 128,-1,41
 130 714 130 714 160 714 c 128,-1,42
 190 714 190 714 209.5 694.5 c 128,-1,43
 229 675 229 675 229 646.5 c 128,-1,44
 229 618 229 618 209.5 599.5 c 128,-1,45
 190 581 190 581 159.5 581 c 128,-1,38
 129 581 129 581 110 599.5 c 128,-1,39
EndSplineSet
EndChar

StartChar: iacute
Encoding: 237 237 175
Width: 296
GlyphClass: 2
Flags: W
LayerCount: 2
Fore
SplineSet
214 503 m 1,0,-1
 214 83 l 1,1,-1
 271 80 l 1,2,-1
 271 0 l 1,3,-1
 33 0 l 1,4,-1
 33 76 l 1,5,-1
 66 79 l 2,6,7
 95 82 95 82 95 111 c 2,8,-1
 95 389 l 2,9,10
 95 406 95 406 89.5 412 c 128,-1,11
 84 418 84 418 70 418 c 2,12,-1
 35 420 l 1,13,-1
 35 503 l 1,14,-1
 214 503 l 1,0,-1
82 594 m 1,15,-1
 198 786 l 1,16,-1
 245 764 l 1,17,18
 274 748 274 748 274 728 c 128,-1,19
 274 708 274 708 249 685 c 2,20,-1
 121 561 l 1,21,-1
 82 594 l 1,15,-1
EndSplineSet
EndChar

StartChar: idieresis
Encoding: 239 239 177
Width: 296
GlyphClass: 2
Flags: W
LayerCount: 2
Fore
SplineSet
214 503 m 1,0,-1
 214 83 l 1,1,-1
 271 80 l 1,2,-1
 271 0 l 1,3,-1
 33 0 l 1,4,-1
 33 76 l 1,5,-1
 66 79 l 2,6,7
 95 82 95 82 95 111 c 2,8,-1
 95 389 l 2,9,10
 95 406 95 406 89.5 412 c 128,-1,11
 84 418 84 418 70 418 c 2,12,-1
 35 420 l 1,13,-1
 35 503 l 1,14,-1
 214 503 l 1,0,-1
175 599.5 m 128,-1,16
 156 618 156 618 156 646.5 c 128,-1,17
 156 675 156 675 175.5 694.5 c 128,-1,18
 195 714 195 714 225 714 c 128,-1,19
 255 714 255 714 274.5 694.5 c 128,-1,20
 294 675 294 675 294 646.5 c 128,-1,21
 294 618 294 618 274.5 599.5 c 128,-1,22
 255 581 255 581 224.5 581 c 128,-1,15
 194 581 194 581 175 599.5 c 128,-1,16
-25 599.5 m 128,-1,24
 -44 618 -44 618 -44 646.5 c 128,-1,25
 -44 675 -44 675 -24.5 694.5 c 128,-1,26
 -5 714 -5 714 25 714 c 128,-1,27
 55 714 55 714 74.5 694.5 c 128,-1,28
 94 675 94 675 94 646.5 c 128,-1,29
 94 618 94 618 74.5 599.5 c 128,-1,30
 55 581 55 581 24.5 581 c 128,-1,23
 -6 581 -6 581 -25 599.5 c 128,-1,24
EndSplineSet
EndChar

StartChar: eth
Encoding: 240 240 178
Width: 512
GlyphClass: 2
Flags: W
LayerCount: 2
Fore
SplineSet
202 477 m 1,0,-1
 156 542 l 1,1,-1
 222 587 l 1,2,3
 178 614 178 614 122 624 c 1,4,-1
 146 717 l 1,5,6
 246 704 246 704 317 652 c 1,7,-1
 401 709 l 1,8,-1
 446 644 l 1,9,-1
 379 597 l 1,10,11
 478 474 478 474 478 276 c 0,12,13
 478 145 478 145 421 65.5 c 128,-1,14
 364 -14 364 -14 249 -14 c 128,-1,15
 134 -14 134 -14 82 47 c 128,-1,16
 30 108 30 108 30 210.5 c 128,-1,17
 30 313 30 313 84.5 379 c 128,-1,18
 139 445 139 445 233 445 c 0,19,20
 298 445 298 445 347 413 c 1,21,22
 328 483 328 483 285 534 c 1,23,-1
 202 477 l 1,0,-1
153 213 m 0,24,25
 153 150 153 150 177.5 115.5 c 128,-1,26
 202 81 202 81 252 81 c 128,-1,27
 302 81 302 81 328.5 130.5 c 128,-1,28
 355 180 355 180 355 261 c 0,29,30
 355 302 355 302 354 316 c 1,31,32
 309 353 309 353 250 353 c 0,33,34
 153 353 153 353 153 213 c 0,24,25
EndSplineSet
EndChar

StartChar: oacute
Encoding: 243 243 181
Width: 528
GlyphClass: 2
Flags: W
LayerCount: 2
Fore
SplineSet
263 73 m 0,0,1
 372 73 372 73 372 249 c 0,2,3
 372 338 372 338 347.5 384 c 128,-1,4
 323 430 323 430 265.5 430 c 128,-1,5
 208 430 208 430 181 386 c 128,-1,6
 154 342 154 342 154 266 c 0,7,8
 154 125 154 125 206 89 c 0,9,10
 229 73 229 73 263 73 c 0,0,1
33 252 m 0,11,12
 33 326 33 326 55 380.5 c 128,-1,13
 77 435 77 435 114 464 c 0,14,15
 185 518 185 518 271 518 c 0,16,17
 331 518 331 518 372.5 498.5 c 128,-1,18
 414 479 414 479 437.5 453.5 c 128,-1,19
 461 428 461 428 477.5 379.5 c 128,-1,20
 494 331 494 331 494 265 c 0,21,22
 494 127 494 127 427 56 c 128,-1,23
 360 -15 360 -15 255.5 -15 c 128,-1,24
 151 -15 151 -15 92 52.5 c 128,-1,25
 33 120 33 120 33 252 c 0,11,12
186 594 m 1,26,-1
 302 786 l 1,27,-1
 349 764 l 1,28,29
 378 748 378 748 378 728 c 128,-1,30
 378 708 378 708 353 685 c 2,31,-1
 225 561 l 1,32,-1
 186 594 l 1,26,-1
EndSplineSet
EndChar

StartChar: otilde
Encoding: 245 245 183
Width: 528
GlyphClass: 2
Flags: W
LayerCount: 2
Fore
SplineSet
263 73 m 0,0,1
 372 73 372 73 372 249 c 0,2,3
 372 338 372 338 347.5 384 c 128,-1,4
 323 430 323 430 265.5 430 c 128,-1,5
 208 430 208 430 181 386 c 128,-1,6
 154 342 154 342 154 266 c 0,7,8
 154 125 154 125 206 89 c 0,9,10
 229 73 229 73 263 73 c 0,0,1
33 252 m 0,11,12
 33 326 33 326 55 380.5 c 128,-1,13
 77 435 77 435 114 464 c 0,14,15
 185 518 185 518 271 518 c 0,16,17
 331 518 331 518 372.5 498.5 c 128,-1,18
 414 479 414 479 437.5 453.5 c 128,-1,19
 461 428 461 428 477.5 379.5 c 128,-1,20
 494 331 494 331 494 265 c 0,21,22
 494 127 494 127 427 56 c 128,-1,23
 360 -15 360 -15 255.5 -15 c 128,-1,24
 151 -15 151 -15 92 52.5 c 128,-1,25
 33 120 33 120 33 252 c 0,11,12
147 596 m 1,26,-1
 99 631 l 1,27,28
 135 710 135 710 201 710 c 0,29,30
 225 710 225 710 271 696 c 128,-1,31
 317 682 317 682 338.5 682 c 128,-1,32
 360 682 360 682 379 714 c 1,33,-1
 433 685 l 1,34,35
 400 598 400 598 330 598 c 0,36,37
 308 598 308 598 264 611.5 c 128,-1,38
 220 625 220 625 202.5 625 c 128,-1,39
 185 625 185 625 174 619.5 c 128,-1,40
 163 614 163 614 147 596 c 1,26,-1
EndSplineSet
EndChar

StartChar: divide
Encoding: 247 247 185
Width: 535
GlyphClass: 2
Flags: W
LayerCount: 2
Fore
SplineSet
221 78.5 m 128,-1,1
 204 97 204 97 204 126.5 c 128,-1,2
 204 156 204 156 221.5 175.5 c 128,-1,3
 239 195 239 195 268.5 195 c 128,-1,4
 298 195 298 195 316 177 c 128,-1,5
 334 159 334 159 334 129 c 128,-1,6
 334 99 334 99 316 79.5 c 128,-1,7
 298 60 298 60 268 60 c 128,-1,0
 238 60 238 60 221 78.5 c 128,-1,1
221 455.5 m 128,-1,9
 204 474 204 474 204 503.5 c 128,-1,10
 204 533 204 533 221.5 552.5 c 128,-1,11
 239 572 239 572 268.5 572 c 128,-1,12
 298 572 298 572 316 554 c 128,-1,13
 334 536 334 536 334 506 c 128,-1,14
 334 476 334 476 316 456.5 c 128,-1,15
 298 437 298 437 268 437 c 128,-1,8
 238 437 238 437 221 455.5 c 128,-1,9
470 362 m 1,16,-1
 470 266 l 1,17,-1
 65 266 l 1,18,-1
 65 362 l 1,19,-1
 470 362 l 1,16,-1
EndSplineSet
EndChar

StartChar: oslash
Encoding: 248 248 186
Width: 528
GlyphClass: 2
Flags: W
LayerCount: 2
Fore
SplineSet
137 -84 m 1,0,-1
 65 -48 l 1,1,-1
 107 38 l 1,2,3
 35 107 35 107 35 252 c 0,4,5
 35 326 35 326 57 380.5 c 128,-1,6
 79 435 79 435 116 464 c 0,7,8
 187 518 187 518 273 518 c 0,9,10
 317 518 317 518 352 507 c 1,11,-1
 390 583 l 1,12,-1
 463 548 l 1,13,-1
 423 468 l 1,14,15
 496 404 496 404 496 265.5 c 128,-1,16
 496 127 496 127 429 56 c 128,-1,17
 362 -15 362 -15 257 -15 c 0,18,19
 213 -15 213 -15 177 -3 c 1,20,-1
 137 -84 l 1,0,-1
265 73 m 0,21,22
 374 73 374 73 374 249 c 0,23,24
 374 313 374 313 361 353 c 1,25,-1
 222 81 l 1,26,27
 241 73 241 73 265 73 c 0,21,22
267 430 m 0,28,29
 210 430 210 430 183 386 c 128,-1,30
 156 342 156 342 156 267.5 c 128,-1,31
 156 193 156 193 168 152 c 1,32,-1
 306 423 l 1,33,34
 291 430 291 430 267 430 c 0,28,29
EndSplineSet
EndChar

StartChar: uacute
Encoding: 250 250 188
Width: 591
GlyphClass: 2
Flags: W
LayerCount: 2
Fore
SplineSet
563 79 m 1,0,-1
 563 0 l 1,1,-1
 401 0 l 1,2,-1
 401 65 l 1,3,4
 346 -13 346 -13 239 -13 c 0,5,6
 84 -13 84 -13 84 160 c 2,7,-1
 84 391 l 2,8,9
 84 418 84 418 59 419 c 2,10,-1
 27 421 l 1,11,-1
 27 503 l 1,12,-1
 203 503 l 1,13,-1
 203 186 l 2,14,15
 203 133 203 133 218 106 c 128,-1,16
 233 79 233 79 280 79 c 128,-1,17
 327 79 327 79 355.5 108 c 128,-1,18
 384 137 384 137 384 178 c 2,19,-1
 384 389 l 2,20,21
 384 405 384 405 378.5 411.5 c 128,-1,22
 373 418 373 418 359 419 c 2,23,-1
 327 421 l 1,24,-1
 327 503 l 1,25,-1
 503 503 l 1,26,-1
 503 111 l 2,27,28
 503 95 503 95 508 89.5 c 128,-1,29
 513 84 513 84 528 82 c 2,30,-1
 563 79 l 1,0,-1
204 594 m 1,31,-1
 320 786 l 1,32,-1
 367 764 l 1,33,34
 396 748 396 748 396 728 c 128,-1,35
 396 708 396 708 371 685 c 2,36,-1
 243 561 l 1,37,-1
 204 594 l 1,31,-1
EndSplineSet
EndChar

StartChar: udieresis
Encoding: 252 252 190
Width: 591
GlyphClass: 2
Flags: W
LayerCount: 2
Fore
SplineSet
563 79 m 1,0,-1
 563 0 l 1,1,-1
 401 0 l 1,2,-1
 401 65 l 1,3,4
 346 -13 346 -13 239 -13 c 0,5,6
 84 -13 84 -13 84 160 c 2,7,-1
 84 391 l 2,8,9
 84 418 84 418 59 419 c 2,10,-1
 27 421 l 1,11,-1
 27 503 l 1,12,-1
 203 503 l 1,13,-1
 203 186 l 2,14,15
 203 133 203 133 218 106 c 128,-1,16
 233 79 233 79 280 79 c 128,-1,17
 327 79 327 79 355.5 108 c 128,-1,18
 384 137 384 137 384 178 c 2,19,-1
 384 389 l 2,20,21
 384 405 384 405 378.5 411.5 c 128,-1,22
 373 418 373 418 359 419 c 2,23,-1
 327 421 l 1,24,-1
 327 503 l 1,25,-1
 503 503 l 1,26,-1
 503 111 l 2,27,28
 503 95 503 95 508 89.5 c 128,-1,29
 513 84 513 84 528 82 c 2,30,-1
 563 79 l 1,0,-1
327 599.5 m 128,-1,32
 308 618 308 618 308 646.5 c 128,-1,33
 308 675 308 675 327.5 694.5 c 128,-1,34
 347 714 347 714 377 714 c 128,-1,35
 407 714 407 714 426.5 694.5 c 128,-1,36
 446 675 446 675 446 646.5 c 128,-1,37
 446 618 446 618 426.5 599.5 c 128,-1,38
 407 581 407 581 376.5 581 c 128,-1,31
 346 581 346 581 327 599.5 c 128,-1,32
127 599.5 m 128,-1,40
 108 618 108 618 108 646.5 c 128,-1,41
 108 675 108 675 127.5 694.5 c 128,-1,42
 147 714 147 714 177 714 c 128,-1,43
 207 714 207 714 226.5 694.5 c 128,-1,44
 246 675 246 675 246 646.5 c 128,-1,45
 246 618 246 618 226.5 599.5 c 128,-1,46
 207 581 207 581 176.5 581 c 128,-1,39
 146 581 146 581 127 599.5 c 128,-1,40
EndSplineSet
EndChar

StartChar: thorn
Encoding: 254 254 192
Width: 568
GlyphClass: 2
Flags: W
LayerCount: 2
Fore
SplineSet
406 260 m 0,0,1
 406 429 406 429 294 429 c 0,2,3
 258 429 258 429 231 408 c 128,-1,4
 204 387 204 387 204 354 c 2,5,-1
 204 105 l 1,6,7
 242 80 242 80 297 80 c 128,-1,8
 352 80 352 80 379 129.5 c 128,-1,9
 406 179 406 179 406 260 c 0,0,1
529 276 m 0,10,11
 529 138 529 138 471.5 61.5 c 128,-1,12
 414 -15 414 -15 311 -15 c 0,13,14
 251 -15 251 -15 204 14 c 1,15,-1
 204 -124 l 1,16,-1
 285 -128 l 1,17,-1
 285 -207 l 1,18,-1
 27 -207 l 1,19,-1
 27 -131 l 1,20,-1
 60 -128 l 2,21,22
 75 -126 75 -126 82 -119.5 c 128,-1,23
 89 -113 89 -113 89 -95 c 2,24,-1
 89 604 l 2,25,26
 89 627 89 627 64 628 c 2,27,-1
 29 630 l 1,28,-1
 29 713 l 1,29,-1
 204 713 l 1,30,-1
 204 476 l 1,31,32
 249 518 249 518 325 518 c 0,33,34
 418 518 418 518 473.5 453.5 c 128,-1,35
 529 389 529 389 529 276 c 0,10,11
EndSplineSet
EndChar

StartChar: ydieresis
Encoding: 255 255 193
Width: 573
GlyphClass: 2
Flags: W
LayerCount: 2
Fore
SplineSet
401 19 m 2,0,-1
 401 95 l 1,1,2
 346 17 346 17 239 17 c 0,3,4
 84 17 84 17 84 190 c 2,5,-1
 84 391 l 2,6,7
 84 418 84 418 59 419 c 2,8,-1
 27 421 l 1,9,-1
 27 503 l 1,10,-1
 203 503 l 1,11,-1
 203 216 l 2,12,13
 203 163 203 163 218 136 c 128,-1,14
 233 109 233 109 280 109 c 128,-1,15
 327 109 327 109 355.5 138 c 128,-1,16
 384 167 384 167 384 208 c 2,17,-1
 384 389 l 2,18,19
 384 406 384 406 378.5 412.5 c 128,-1,20
 373 419 373 419 359 419 c 2,21,-1
 327 421 l 1,22,-1
 327 503 l 1,23,-1
 503 503 l 1,24,-1
 503 19 l 2,25,26
 503 -102 503 -102 444.5 -158 c 128,-1,27
 386 -214 386 -214 267.5 -214 c 128,-1,28
 149 -214 149 -214 83 -181 c 1,29,-1
 83 -42 l 1,30,-1
 178 -34 l 1,31,-1
 178 -82 l 2,32,33
 178 -109 178 -109 203 -118.5 c 128,-1,34
 228 -128 228 -128 272 -128 c 0,35,36
 401 -128 401 -128 401 19 c 2,0,-1
320 599.5 m 128,-1,38
 301 618 301 618 301 646.5 c 128,-1,39
 301 675 301 675 320.5 694.5 c 128,-1,40
 340 714 340 714 370 714 c 128,-1,41
 400 714 400 714 419.5 694.5 c 128,-1,42
 439 675 439 675 439 646.5 c 128,-1,43
 439 618 439 618 419.5 599.5 c 128,-1,44
 400 581 400 581 369.5 581 c 128,-1,37
 339 581 339 581 320 599.5 c 128,-1,38
120 599.5 m 128,-1,46
 101 618 101 618 101 646.5 c 128,-1,47
 101 675 101 675 120.5 694.5 c 128,-1,48
 140 714 140 714 170 714 c 128,-1,49
 200 714 200 714 219.5 694.5 c 128,-1,50
 239 675 239 675 239 646.5 c 128,-1,51
 239 618 239 618 219.5 599.5 c 128,-1,52
 200 581 200 581 169.5 581 c 128,-1,45
 139 581 139 581 120 599.5 c 128,-1,46
EndSplineSet
EndChar

StartChar: Amacron
Encoding: 256 256 194
Width: 662
GlyphClass: 2
Flags: W
LayerCount: 2
Fore
SplineSet
68 112 m 2,0,-1
 229 578 l 1,1,-1
 166 584 l 1,2,-1
 166 665 l 1,3,-1
 395 665 l 1,4,-1
 599 88 l 1,5,-1
 600 88 l 1,6,-1
 657 85 l 1,7,-1
 657 0 l 1,8,-1
 399 0 l 1,9,-1
 399 81 l 1,10,-1
 437 84 l 2,11,12
 454 86 454 86 460 92 c 128,-1,13
 466 98 466 98 461 114 c 2,14,-1
 440 176 l 1,15,-1
 206 176 l 1,16,-1
 176 88 l 1,17,-1
 236 85 l 1,18,-1
 236 0 l 1,19,-1
 5 0 l 1,20,-1
 5 81 l 1,21,-1
 38 84 l 2,22,23
 59 86 59 86 68 112 c 2,0,-1
323 553 m 1,24,-1
 230 268 l 1,25,-1
 416 268 l 1,26,-1
 326 553 l 1,27,-1
 323 553 l 1,24,-1
159 734 m 1,28,-1
 159 821 l 1,29,-1
 446 821 l 1,30,-1
 446 734 l 1,31,-1
 159 734 l 1,28,-1
EndSplineSet
EndChar

StartChar: Abreve
Encoding: 258 258 196
Width: 662
GlyphClass: 2
Flags: W
LayerCount: 2
Fore
SplineSet
68 112 m 2,0,-1
 229 578 l 1,1,-1
 166 584 l 1,2,-1
 166 665 l 1,3,-1
 395 665 l 1,4,-1
 599 88 l 1,5,-1
 600 88 l 1,6,-1
 657 85 l 1,7,-1
 657 0 l 1,8,-1
 399 0 l 1,9,-1
 399 81 l 1,10,-1
 437 84 l 2,11,12
 454 86 454 86 460 92 c 128,-1,13
 466 98 466 98 461 114 c 2,14,-1
 440 176 l 1,15,-1
 206 176 l 1,16,-1
 176 88 l 1,17,-1
 236 85 l 1,18,-1
 236 0 l 1,19,-1
 5 0 l 1,20,-1
 5 81 l 1,21,-1
 38 84 l 2,22,23
 59 86 59 86 68 112 c 2,0,-1
323 553 m 1,24,-1
 230 268 l 1,25,-1
 416 268 l 1,26,-1
 326 553 l 1,27,-1
 323 553 l 1,24,-1
406 874 m 1,28,-1
 472 847 l 1,29,30
 430 720 430 720 302.5 720 c 128,-1,31
 175 720 175 720 140 846 c 1,32,-1
 207 874 l 1,33,34
 238 796 238 796 307 796 c 0,35,36
 344 796 344 796 366.5 814.5 c 128,-1,37
 389 833 389 833 406 874 c 1,28,-1
EndSplineSet
EndChar

StartChar: Aogonek
Encoding: 260 260 198
Width: 662
GlyphClass: 2
Flags: W
LayerCount: 2
Fore
SplineSet
68 112 m 2,0,-1
 229 578 l 1,1,-1
 166 584 l 1,2,-1
 166 665 l 1,3,-1
 395 665 l 1,4,-1
 599 88 l 1,5,-1
 600 88 l 1,6,-1
 657 85 l 1,7,-1
 657 0 l 1,8,-1
 612 0 l 1,9,10
 513 -43 513 -43 513 -97 c 0,11,12
 513 -135 513 -135 554 -135 c 0,13,14
 576 -135 576 -135 601 -124 c 1,15,-1
 623 -190 l 1,16,17
 573 -214 573 -214 518.5 -214 c 128,-1,18
 464 -214 464 -214 438.5 -186.5 c 128,-1,19
 413 -159 413 -159 413 -118 c 0,20,21
 413 -49 413 -49 501 0 c 1,22,-1
 399 0 l 1,23,-1
 399 81 l 1,24,-1
 437 84 l 2,25,26
 454 86 454 86 460 92 c 128,-1,27
 466 98 466 98 461 114 c 2,28,-1
 440 176 l 1,29,-1
 206 176 l 1,30,-1
 176 88 l 1,31,-1
 236 85 l 1,32,-1
 236 0 l 1,33,-1
 5 0 l 1,34,-1
 5 81 l 1,35,-1
 38 84 l 2,36,37
 59 86 59 86 68 112 c 2,0,-1
323 553 m 1,38,-1
 230 268 l 1,39,-1
 416 268 l 1,40,-1
 326 553 l 1,41,-1
 323 553 l 1,38,-1
EndSplineSet
EndChar

StartChar: aogonek
Encoding: 261 261 199
Width: 567
GlyphClass: 2
Flags: W
LayerCount: 2
Fore
SplineSet
482 483 m 1,0,-1
 482 111 l 2,1,2
 482 95 482 95 487.5 89 c 128,-1,3
 493 83 493 83 507 82 c 2,4,-1
 539 80 l 1,5,-1
 539 0 l 1,6,7
 430 -42 430 -42 430 -95 c 0,8,9
 430 -135 430 -135 471 -135 c 0,10,11
 493 -135 493 -135 518 -124 c 1,12,-1
 540 -190 l 1,13,14
 490 -214 490 -214 435.5 -214 c 128,-1,15
 381 -214 381 -214 355.5 -186.5 c 128,-1,16
 330 -159 330 -159 330 -118 c 0,17,18
 330 -43 330 -43 425 -7 c 1,19,-1
 425 0 l 1,20,-1
 380 0 l 1,21,-1
 380 58 l 1,22,-1
 377 59 l 1,23,24
 327 -13 327 -13 240 -13 c 0,25,26
 138 -13 138 -13 89 52 c 128,-1,27
 40 117 40 117 40 230 c 0,28,29
 40 366 40 366 106 442 c 128,-1,30
 172 518 172 518 304 518 c 0,31,32
 389 518 389 518 482 483 c 1,0,-1
366 159 m 2,33,-1
 366 418 l 1,34,35
 338 431 338 431 289 431 c 0,36,37
 222 431 222 431 192 377 c 128,-1,38
 162 323 162 323 162 234 c 0,39,40
 162 72 162 72 266 72 c 0,41,42
 310 72 310 72 338 98.5 c 128,-1,43
 366 125 366 125 366 159 c 2,33,-1
EndSplineSet
EndChar

StartChar: Cacute
Encoding: 262 262 200
Width: 602
GlyphClass: 2
Flags: W
LayerCount: 2
Fore
SplineSet
436 559 m 0,0,1
 425 578 425 578 354 578 c 0,2,3
 261 578 261 578 213 515 c 128,-1,4
 165 452 165 452 165 333 c 0,5,6
 165 86 165 86 350 86 c 0,7,8
 353 86 353 86 376.5 86 c 128,-1,9
 400 86 400 86 421 92.5 c 128,-1,10
 442 99 442 99 446 106 c 128,-1,11
 450 113 450 113 450 128 c 2,12,-1
 450 208 l 1,13,-1
 552 201 l 1,14,-1
 552 28 l 1,15,16
 474 -13 474 -13 354 -13 c 0,17,18
 201 -13 201 -13 120.5 73 c 128,-1,19
 40 159 40 159 40 329 c 0,20,21
 40 423 40 423 67 493 c 128,-1,22
 94 563 94 563 140 602 c 0,23,24
 230 677 230 677 354 677 c 0,25,26
 454 677 454 677 542 636 c 1,27,-1
 542 466 l 1,28,-1
 440 459 l 1,29,-1
 440 537 l 2,30,31
 440 552 440 552 436 559 c 0,0,1
238 750 m 1,32,-1
 400 907 l 1,33,-1
 440 874 l 1,34,35
 458 857 458 857 458 841 c 0,36,37
 458 816 458 816 423 796 c 2,38,-1
 268 709 l 1,39,-1
 238 750 l 1,32,-1
EndSplineSet
EndChar

StartChar: Ccircumflex
Encoding: 264 264 202
Width: 602
GlyphClass: 2
Flags: W
LayerCount: 2
Fore
SplineSet
436 559 m 0,0,1
 425 578 425 578 354 578 c 0,2,3
 261 578 261 578 213 515 c 128,-1,4
 165 452 165 452 165 333 c 0,5,6
 165 86 165 86 350 86 c 0,7,8
 353 86 353 86 376.5 86 c 128,-1,9
 400 86 400 86 421 92.5 c 128,-1,10
 442 99 442 99 446 106 c 128,-1,11
 450 113 450 113 450 128 c 2,12,-1
 450 208 l 1,13,-1
 552 201 l 1,14,-1
 552 28 l 1,15,16
 474 -13 474 -13 354 -13 c 0,17,18
 201 -13 201 -13 120.5 73 c 128,-1,19
 40 159 40 159 40 329 c 0,20,21
 40 423 40 423 67 493 c 128,-1,22
 94 563 94 563 140 602 c 0,23,24
 230 677 230 677 354 677 c 0,25,26
 454 677 454 677 542 636 c 1,27,-1
 542 466 l 1,28,-1
 440 459 l 1,29,-1
 440 537 l 2,30,31
 440 552 440 552 436 559 c 0,0,1
224 708 m 1,32,-1
 183 742 l 1,33,-1
 301 870 l 2,34,35
 322 893 322 893 343 893 c 1,36,-1
 383 872 l 1,37,-1
 503 743 l 1,38,-1
 462 708 l 1,39,-1
 342 794 l 1,40,-1
 224 708 l 1,32,-1
EndSplineSet
EndChar

StartChar: Cdotaccent
Encoding: 266 266 204
Width: 602
GlyphClass: 2
Flags: W
LayerCount: 2
Fore
SplineSet
436 559 m 0,0,1
 425 578 425 578 354 578 c 0,2,3
 261 578 261 578 213 515 c 128,-1,4
 165 452 165 452 165 333 c 0,5,6
 165 86 165 86 350 86 c 0,7,8
 353 86 353 86 376.5 86 c 128,-1,9
 400 86 400 86 421 92.5 c 128,-1,10
 442 99 442 99 446 106 c 128,-1,11
 450 113 450 113 450 128 c 2,12,-1
 450 208 l 1,13,-1
 552 201 l 1,14,-1
 552 28 l 1,15,16
 474 -13 474 -13 354 -13 c 0,17,18
 201 -13 201 -13 120.5 73 c 128,-1,19
 40 159 40 159 40 329 c 0,20,21
 40 423 40 423 67 493 c 128,-1,22
 94 563 94 563 140 602 c 0,23,24
 230 677 230 677 354 677 c 0,25,26
 454 677 454 677 542 636 c 1,27,-1
 542 466 l 1,28,-1
 440 459 l 1,29,-1
 440 537 l 2,30,31
 440 552 440 552 436 559 c 0,0,1
295 745.5 m 128,-1,33
 276 764 276 764 276 792.5 c 128,-1,34
 276 821 276 821 295.5 840.5 c 128,-1,35
 315 860 315 860 345 860 c 128,-1,36
 375 860 375 860 394.5 840.5 c 128,-1,37
 414 821 414 821 414 792.5 c 128,-1,38
 414 764 414 764 394.5 745.5 c 128,-1,39
 375 727 375 727 344.5 727 c 128,-1,32
 314 727 314 727 295 745.5 c 128,-1,33
EndSplineSet
EndChar

StartChar: Ccaron
Encoding: 268 268 206
Width: 602
GlyphClass: 2
Flags: W
LayerCount: 2
Fore
SplineSet
436 559 m 0,0,1
 425 578 425 578 354 578 c 0,2,3
 261 578 261 578 213 515 c 128,-1,4
 165 452 165 452 165 333 c 0,5,6
 165 86 165 86 350 86 c 0,7,8
 353 86 353 86 376.5 86 c 128,-1,9
 400 86 400 86 421 92.5 c 128,-1,10
 442 99 442 99 446 106 c 128,-1,11
 450 113 450 113 450 128 c 2,12,-1
 450 208 l 1,13,-1
 552 201 l 1,14,-1
 552 28 l 1,15,16
 474 -13 474 -13 354 -13 c 0,17,18
 201 -13 201 -13 120.5 73 c 128,-1,19
 40 159 40 159 40 329 c 0,20,21
 40 423 40 423 67 493 c 128,-1,22
 94 563 94 563 140 602 c 0,23,24
 230 677 230 677 354 677 c 0,25,26
 454 677 454 677 542 636 c 1,27,-1
 542 466 l 1,28,-1
 440 459 l 1,29,-1
 440 537 l 2,30,31
 440 552 440 552 436 559 c 0,0,1
458 893 m 1,32,-1
 499 859 l 1,33,-1
 381 731 l 2,34,35
 360 708 360 708 339 708 c 1,36,-1
 299 729 l 1,37,-1
 179 858 l 1,38,-1
 220 893 l 1,39,-1
 340 807 l 1,40,-1
 458 893 l 1,32,-1
EndSplineSet
EndChar

StartChar: Dcaron
Encoding: 270 270 208
Width: 665
GlyphClass: 2
Flags: W
LayerCount: 2
Fore
SplineSet
34 0 m 1,0,-1
 34 81 l 1,1,-1
 67 84 l 2,2,3
 96 87 96 87 96 112 c 2,4,-1
 96 577 l 1,5,-1
 39 580 l 1,6,-1
 39 665 l 1,7,-1
 313 665 l 2,8,9
 460 665 460 665 542.5 587 c 128,-1,10
 625 509 625 509 625 356 c 0,11,12
 625 261 625 261 600 190.5 c 128,-1,13
 575 120 575 120 532 80 c 0,14,15
 446 0 446 0 318 0 c 2,16,-1
 34 0 l 1,0,-1
218 568 m 1,17,-1
 218 96 l 1,18,-1
 320 96 l 2,19,20
 406 96 406 96 454 158 c 128,-1,21
 502 220 502 220 502 338 c 0,22,23
 502 568 502 568 307 568 c 2,24,-1
 218 568 l 1,17,-1
418 893 m 1,25,-1
 459 859 l 1,26,-1
 341 731 l 2,27,28
 320 708 320 708 299 708 c 1,29,-1
 259 729 l 1,30,-1
 139 858 l 1,31,-1
 180 893 l 1,32,-1
 300 807 l 1,33,-1
 418 893 l 1,25,-1
EndSplineSet
EndChar

StartChar: dcaron
Encoding: 271 271 209
Width: 650
GlyphClass: 2
Flags: W
LayerCount: 2
Fore
SplineSet
284 518 m 0,0,1
 327 518 327 518 366 506 c 1,2,-1
 366 607 l 2,3,4
 366 629 366 629 340 631 c 2,5,-1
 297 634 l 1,6,-1
 297 713 l 1,7,-1
 483 713 l 1,8,-1
 483 105 l 1,9,10
 484 82 484 82 508 82 c 1,11,-1
 543 80 l 1,12,-1
 543 0 l 1,13,-1
 381 0 l 1,14,-1
 381 59 l 1,15,-1
 378 60 l 1,16,17
 333 -13 333 -13 242 -13 c 0,18,19
 128 -13 128 -13 82 63 c 0,20,21
 40 132 40 132 40 232 c 0,22,23
 40 362 40 362 104.5 440 c 128,-1,24
 169 518 169 518 284 518 c 0,0,1
366 156 m 2,25,-1
 366 415 l 1,26,27
 330 431 330 431 290 431 c 0,28,29
 224 431 224 431 193.5 378 c 128,-1,30
 163 325 163 325 163 243 c 0,31,32
 163 75 163 75 271 75 c 0,33,34
 312 75 312 75 339 98.5 c 128,-1,35
 366 122 366 122 366 156 c 2,25,-1
609 718 m 0,36,37
 649 718 649 718 649 678 c 0,38,39
 649 666 649 666 645 652 c 2,40,-1
 599 493 l 1,41,-1
 551 502 l 1,42,-1
 551 713 l 1,43,-1
 601 718 l 2,44,45
 605 718 605 718 609 718 c 0,36,37
EndSplineSet
EndChar

StartChar: Dcroat
Encoding: 272 272 210
Width: 679
GlyphClass: 2
Flags: W
LayerCount: 2
Fore
SplineSet
48 0 m 1,0,-1
 48 81 l 1,1,-1
 81 84 l 2,2,3
 110 87 110 87 110 112 c 2,4,-1
 110 290 l 1,5,-1
 36 290 l 1,6,-1
 36 380 l 1,7,-1
 110 380 l 1,8,-1
 110 577 l 1,9,-1
 53 580 l 1,10,-1
 53 665 l 1,11,-1
 327 665 l 2,12,13
 474 665 474 665 556.5 587 c 128,-1,14
 639 509 639 509 639 356 c 0,15,16
 639 261 639 261 614 190.5 c 128,-1,17
 589 120 589 120 546 80 c 0,18,19
 460 0 460 0 332 0 c 2,20,-1
 48 0 l 1,0,-1
232 568 m 1,21,-1
 232 380 l 1,22,-1
 401 380 l 1,23,-1
 401 290 l 1,24,-1
 232 290 l 1,25,-1
 232 96 l 1,26,-1
 334 96 l 2,27,28
 420 96 420 96 468 158 c 128,-1,29
 516 220 516 220 516 338 c 0,30,31
 516 568 516 568 321 568 c 2,32,-1
 232 568 l 1,21,-1
EndSplineSet
EndChar

StartChar: dcroat
Encoding: 273 273 211
Width: 568
GlyphClass: 2
Flags: W
LayerCount: 2
Fore
SplineSet
543 536 m 1,0,-1
 483 536 l 1,1,-1
 483 105 l 1,2,3
 484 82 484 82 508 82 c 1,4,-1
 543 80 l 1,5,-1
 543 0 l 1,6,-1
 381 0 l 1,7,-1
 381 59 l 1,8,-1
 378 60 l 1,9,10
 333 -13 333 -13 242 -13 c 0,11,12
 128 -13 128 -13 82 63 c 0,13,14
 40 132 40 132 40 241.5 c 128,-1,15
 40 351 40 351 104.5 423 c 128,-1,16
 169 495 169 495 284 495 c 0,17,18
 327 495 327 495 366 483 c 1,19,-1
 366 536 l 1,20,-1
 196 536 l 1,21,-1
 196 608 l 1,22,-1
 366 608 l 1,23,-1
 366 624 l 2,24,25
 366 646 366 646 340 648 c 2,26,-1
 297 651 l 1,27,-1
 297 713 l 1,28,-1
 483 713 l 1,29,-1
 483 608 l 1,30,-1
 543 608 l 1,31,-1
 543 536 l 1,0,-1
366 156 m 2,32,-1
 366 392 l 1,33,34
 330 408 330 408 290 408 c 0,35,36
 223 408 223 408 193 361.5 c 128,-1,37
 163 315 163 315 163 243 c 0,38,39
 163 75 163 75 271 75 c 0,40,41
 312 75 312 75 339 98.5 c 128,-1,42
 366 122 366 122 366 156 c 2,32,-1
EndSplineSet
EndChar

StartChar: Emacron
Encoding: 274 274 212
Width: 549
GlyphClass: 2
Flags: W
LayerCount: 2
Fore
SplineSet
509 0 m 1,0,-1
 34 0 l 1,1,-1
 34 81 l 1,2,-1
 67 84 l 2,3,4
 96 87 96 87 96 112 c 2,5,-1
 96 577 l 1,6,-1
 39 580 l 1,7,-1
 39 665 l 1,8,-1
 497 665 l 1,9,-1
 497 499 l 1,10,-1
 395 492 l 1,11,-1
 395 532 l 2,12,13
 395 549 395 549 390 556 c 128,-1,14
 385 563 385 563 366 563 c 2,15,-1
 218 563 l 1,16,-1
 218 392 l 1,17,-1
 449 392 l 1,18,-1
 449 290 l 1,19,-1
 218 290 l 1,20,-1
 218 103 l 1,21,-1
 379 103 l 2,22,23
 397 103 397 103 402 110.5 c 128,-1,24
 407 118 407 118 407 135 c 2,25,-1
 407 185 l 1,26,-1
 509 178 l 1,27,-1
 509 0 l 1,0,-1
128 734 m 1,28,-1
 128 821 l 1,29,-1
 415 821 l 1,30,-1
 415 734 l 1,31,-1
 128 734 l 1,28,-1
EndSplineSet
EndChar

StartChar: Ebreve
Encoding: 276 276 214
Width: 549
GlyphClass: 2
Flags: W
LayerCount: 2
Fore
SplineSet
509 0 m 1,0,-1
 34 0 l 1,1,-1
 34 81 l 1,2,-1
 67 84 l 2,3,4
 96 87 96 87 96 112 c 2,5,-1
 96 577 l 1,6,-1
 39 580 l 1,7,-1
 39 665 l 1,8,-1
 497 665 l 1,9,-1
 497 499 l 1,10,-1
 395 492 l 1,11,-1
 395 532 l 2,12,13
 395 549 395 549 390 556 c 128,-1,14
 385 563 385 563 366 563 c 2,15,-1
 218 563 l 1,16,-1
 218 392 l 1,17,-1
 449 392 l 1,18,-1
 449 290 l 1,19,-1
 218 290 l 1,20,-1
 218 103 l 1,21,-1
 379 103 l 2,22,23
 397 103 397 103 402 110.5 c 128,-1,24
 407 118 407 118 407 135 c 2,25,-1
 407 185 l 1,26,-1
 509 178 l 1,27,-1
 509 0 l 1,0,-1
376 874 m 1,28,-1
 442 847 l 1,29,30
 400 720 400 720 272.5 720 c 128,-1,31
 145 720 145 720 110 846 c 1,32,-1
 177 874 l 1,33,34
 208 796 208 796 277 796 c 0,35,36
 314 796 314 796 336.5 814.5 c 128,-1,37
 359 833 359 833 376 874 c 1,28,-1
EndSplineSet
EndChar

StartChar: Edotaccent
Encoding: 278 278 216
Width: 549
GlyphClass: 2
Flags: W
LayerCount: 2
Fore
SplineSet
509 0 m 1,0,-1
 34 0 l 1,1,-1
 34 81 l 1,2,-1
 67 84 l 2,3,4
 96 87 96 87 96 112 c 2,5,-1
 96 577 l 1,6,-1
 39 580 l 1,7,-1
 39 665 l 1,8,-1
 497 665 l 1,9,-1
 497 499 l 1,10,-1
 395 492 l 1,11,-1
 395 532 l 2,12,13
 395 549 395 549 390 556 c 128,-1,14
 385 563 385 563 366 563 c 2,15,-1
 218 563 l 1,16,-1
 218 392 l 1,17,-1
 449 392 l 1,18,-1
 449 290 l 1,19,-1
 218 290 l 1,20,-1
 218 103 l 1,21,-1
 379 103 l 2,22,23
 397 103 397 103 402 110.5 c 128,-1,24
 407 118 407 118 407 135 c 2,25,-1
 407 185 l 1,26,-1
 509 178 l 1,27,-1
 509 0 l 1,0,-1
227 745.5 m 128,-1,29
 208 764 208 764 208 792.5 c 128,-1,30
 208 821 208 821 227.5 840.5 c 128,-1,31
 247 860 247 860 277 860 c 128,-1,32
 307 860 307 860 326.5 840.5 c 128,-1,33
 346 821 346 821 346 792.5 c 128,-1,34
 346 764 346 764 326.5 745.5 c 128,-1,35
 307 727 307 727 276.5 727 c 128,-1,28
 246 727 246 727 227 745.5 c 128,-1,29
EndSplineSet
EndChar

StartChar: Eogonek
Encoding: 280 280 218
Width: 549
GlyphClass: 2
Flags: W
LayerCount: 2
Fore
SplineSet
509 0 m 1,0,1
 396 -39 396 -39 396 -97 c 0,2,3
 396 -135 396 -135 437 -135 c 0,4,5
 459 -135 459 -135 484 -124 c 1,6,-1
 506 -190 l 1,7,8
 456 -214 456 -214 401.5 -214 c 128,-1,9
 347 -214 347 -214 321.5 -186.5 c 128,-1,10
 296 -159 296 -159 296 -118 c 0,11,12
 296 -49 296 -49 384 0 c 1,13,-1
 34 0 l 1,14,-1
 34 81 l 1,15,-1
 67 84 l 2,16,17
 96 87 96 87 96 112 c 2,18,-1
 96 577 l 1,19,-1
 39 580 l 1,20,-1
 39 665 l 1,21,-1
 497 665 l 1,22,-1
 497 499 l 1,23,-1
 395 492 l 1,24,-1
 395 532 l 2,25,26
 395 549 395 549 390 556 c 128,-1,27
 385 563 385 563 366 563 c 2,28,-1
 218 563 l 1,29,-1
 218 392 l 1,30,-1
 449 392 l 1,31,-1
 449 290 l 1,32,-1
 218 290 l 1,33,-1
 218 103 l 1,34,-1
 379 103 l 2,35,36
 397 103 397 103 402 110.5 c 128,-1,37
 407 118 407 118 407 135 c 2,38,-1
 407 185 l 1,39,-1
 509 178 l 1,40,-1
 509 0 l 1,0,1
EndSplineSet
EndChar

StartChar: eogonek
Encoding: 281 281 219
Width: 484
GlyphClass: 2
Flags: W
LayerCount: 2
Fore
SplineSet
449 43 m 1,0,1
 435 31 435 31 389 7 c 128,-1,2
 343 -17 343 -17 316.5 -42 c 128,-1,3
 290 -67 290 -67 290 -97 c 0,4,5
 290 -135 290 -135 331 -135 c 0,6,7
 353 -135 353 -135 378 -124 c 1,8,-1
 400 -190 l 1,9,10
 350 -214 350 -214 295.5 -214 c 128,-1,11
 241 -214 241 -214 215.5 -186.5 c 128,-1,12
 190 -159 190 -159 190 -118 c 0,13,14
 190 -56 190 -56 257 -13 c 1,15,16
 143 -8 143 -8 90 59 c 128,-1,17
 37 126 37 126 37 242 c 128,-1,18
 37 358 37 358 102 438 c 128,-1,19
 167 518 167 518 284 518 c 0,20,21
 359 518 359 518 403 481.5 c 128,-1,22
 447 445 447 445 447 379 c 0,23,24
 447 335 447 335 428 301.5 c 128,-1,25
 409 268 409 268 381 249 c 128,-1,26
 353 230 353 230 313 218 c 0,27,28
 246 198 246 198 162 198 c 1,29,30
 165 145 165 145 195 112.5 c 128,-1,31
 225 80 225 80 287 80 c 128,-1,32
 349 80 349 80 411 124 c 1,33,-1
 449 43 l 1,0,1
306 318.5 m 128,-1,35
 337 341 337 341 337 372 c 0,36,37
 337 433 337 433 277 433 c 0,38,39
 221 433 221 433 191 388.5 c 128,-1,40
 161 344 161 344 158 282 c 1,41,42
 202 283 202 283 238.5 289.5 c 128,-1,34
 275 296 275 296 306 318.5 c 128,-1,35
EndSplineSet
EndChar

StartChar: Ecaron
Encoding: 282 282 220
Width: 549
GlyphClass: 2
Flags: W
LayerCount: 2
Fore
SplineSet
509 0 m 1,0,-1
 34 0 l 1,1,-1
 34 81 l 1,2,-1
 67 84 l 2,3,4
 96 87 96 87 96 112 c 2,5,-1
 96 577 l 1,6,-1
 39 580 l 1,7,-1
 39 665 l 1,8,-1
 497 665 l 1,9,-1
 497 499 l 1,10,-1
 395 492 l 1,11,-1
 395 532 l 2,12,13
 395 549 395 549 390 556 c 128,-1,14
 385 563 385 563 366 563 c 2,15,-1
 218 563 l 1,16,-1
 218 392 l 1,17,-1
 449 392 l 1,18,-1
 449 290 l 1,19,-1
 218 290 l 1,20,-1
 218 103 l 1,21,-1
 379 103 l 2,22,23
 397 103 397 103 402 110.5 c 128,-1,24
 407 118 407 118 407 135 c 2,25,-1
 407 185 l 1,26,-1
 509 178 l 1,27,-1
 509 0 l 1,0,-1
402 893 m 1,28,-1
 443 859 l 1,29,-1
 325 731 l 2,30,31
 304 708 304 708 283 708 c 1,32,-1
 243 729 l 1,33,-1
 123 858 l 1,34,-1
 164 893 l 1,35,-1
 284 807 l 1,36,-1
 402 893 l 1,28,-1
EndSplineSet
EndChar

StartChar: Gcircumflex
Encoding: 284 284 222
Width: 641
GlyphClass: 2
Flags: W
LayerCount: 2
Fore
SplineSet
564 233 m 2,0,-1
 564 52 l 1,1,2
 471 -12 471 -12 333 -12 c 128,-1,3
 195 -12 195 -12 117.5 74.5 c 128,-1,4
 40 161 40 161 40 331 c 0,5,6
 40 406 40 406 59.5 466 c 128,-1,7
 79 526 79 526 110.5 565 c 128,-1,8
 142 604 142 604 184 630 c 1,9,10
 264 677 264 677 365.5 677 c 128,-1,11
 467 677 467 677 555 636 c 1,12,-1
 555 466 l 1,13,-1
 453 459 l 1,14,-1
 453 537 l 2,15,16
 453 552 453 552 449 559 c 0,17,18
 438 578 438 578 358 578 c 0,19,20
 165 578 165 578 165 339 c 0,21,22
 165 87 165 87 339 87 c 0,23,24
 408 87 408 87 445 111 c 1,25,-1
 445 260 l 1,26,-1
 444 260 l 1,27,-1
 367 263 l 1,28,-1
 367 348 l 1,29,-1
 616 348 l 1,30,-1
 616 268 l 1,31,-1
 593 266 l 2,32,33
 577 264 577 264 570.5 257.5 c 128,-1,34
 564 251 564 251 564 233 c 2,0,-1
229 708 m 1,35,-1
 188 742 l 1,36,-1
 306 870 l 2,37,38
 327 893 327 893 348 893 c 1,39,-1
 388 872 l 1,40,-1
 508 743 l 1,41,-1
 467 708 l 1,42,-1
 347 794 l 1,43,-1
 229 708 l 1,35,-1
EndSplineSet
EndChar

StartChar: Gbreve
Encoding: 286 286 224
Width: 641
GlyphClass: 2
Flags: W
LayerCount: 2
Fore
SplineSet
564 233 m 2,0,-1
 564 52 l 1,1,2
 471 -12 471 -12 333 -12 c 128,-1,3
 195 -12 195 -12 117.5 74.5 c 128,-1,4
 40 161 40 161 40 331 c 0,5,6
 40 406 40 406 59.5 466 c 128,-1,7
 79 526 79 526 110.5 565 c 128,-1,8
 142 604 142 604 184 630 c 1,9,10
 264 677 264 677 365.5 677 c 128,-1,11
 467 677 467 677 555 636 c 1,12,-1
 555 466 l 1,13,-1
 453 459 l 1,14,-1
 453 537 l 2,15,16
 453 552 453 552 449 559 c 0,17,18
 438 578 438 578 358 578 c 0,19,20
 165 578 165 578 165 339 c 0,21,22
 165 87 165 87 339 87 c 0,23,24
 408 87 408 87 445 111 c 1,25,-1
 445 260 l 1,26,-1
 444 260 l 1,27,-1
 367 263 l 1,28,-1
 367 348 l 1,29,-1
 616 348 l 1,30,-1
 616 268 l 1,31,-1
 593 266 l 2,32,33
 577 264 577 264 570.5 257.5 c 128,-1,34
 564 251 564 251 564 233 c 2,0,-1
440 874 m 1,35,-1
 506 847 l 1,36,37
 464 720 464 720 336.5 720 c 128,-1,38
 209 720 209 720 174 846 c 1,39,-1
 241 874 l 1,40,41
 272 796 272 796 341 796 c 0,42,43
 378 796 378 796 400.5 814.5 c 128,-1,44
 423 833 423 833 440 874 c 1,35,-1
EndSplineSet
EndChar

StartChar: Gdotaccent
Encoding: 288 288 226
Width: 641
GlyphClass: 2
Flags: W
LayerCount: 2
Fore
SplineSet
564 233 m 2,0,-1
 564 52 l 1,1,2
 471 -12 471 -12 333 -12 c 128,-1,3
 195 -12 195 -12 117.5 74.5 c 128,-1,4
 40 161 40 161 40 331 c 0,5,6
 40 406 40 406 59.5 466 c 128,-1,7
 79 526 79 526 110.5 565 c 128,-1,8
 142 604 142 604 184 630 c 1,9,10
 264 677 264 677 365.5 677 c 128,-1,11
 467 677 467 677 555 636 c 1,12,-1
 555 466 l 1,13,-1
 453 459 l 1,14,-1
 453 537 l 2,15,16
 453 552 453 552 449 559 c 0,17,18
 438 578 438 578 358 578 c 0,19,20
 165 578 165 578 165 339 c 0,21,22
 165 87 165 87 339 87 c 0,23,24
 408 87 408 87 445 111 c 1,25,-1
 445 260 l 1,26,-1
 444 260 l 1,27,-1
 367 263 l 1,28,-1
 367 348 l 1,29,-1
 616 348 l 1,30,-1
 616 268 l 1,31,-1
 593 266 l 2,32,33
 577 264 577 264 570.5 257.5 c 128,-1,34
 564 251 564 251 564 233 c 2,0,-1
303 745.5 m 128,-1,36
 284 764 284 764 284 792.5 c 128,-1,37
 284 821 284 821 303.5 840.5 c 128,-1,38
 323 860 323 860 353 860 c 128,-1,39
 383 860 383 860 402.5 840.5 c 128,-1,40
 422 821 422 821 422 792.5 c 128,-1,41
 422 764 422 764 402.5 745.5 c 128,-1,42
 383 727 383 727 352.5 727 c 128,-1,35
 322 727 322 727 303 745.5 c 128,-1,36
EndSplineSet
EndChar

StartChar: Gcommaaccent
Encoding: 290 290 228
Width: 641
GlyphClass: 2
Flags: W
LayerCount: 2
Fore
SplineSet
564 233 m 2,0,-1
 564 52 l 1,1,2
 471 -12 471 -12 333 -12 c 128,-1,3
 195 -12 195 -12 117.5 74.5 c 128,-1,4
 40 161 40 161 40 331 c 0,5,6
 40 406 40 406 59.5 466 c 128,-1,7
 79 526 79 526 110.5 565 c 128,-1,8
 142 604 142 604 184 630 c 1,9,10
 264 677 264 677 365.5 677 c 128,-1,11
 467 677 467 677 555 636 c 1,12,-1
 555 466 l 1,13,-1
 453 459 l 1,14,-1
 453 537 l 2,15,16
 453 552 453 552 449 559 c 0,17,18
 438 578 438 578 358 578 c 0,19,20
 165 578 165 578 165 339 c 0,21,22
 165 87 165 87 339 87 c 0,23,24
 408 87 408 87 445 111 c 1,25,-1
 445 260 l 1,26,-1
 444 260 l 1,27,-1
 367 263 l 1,28,-1
 367 348 l 1,29,-1
 616 348 l 1,30,-1
 616 268 l 1,31,-1
 593 266 l 2,32,33
 577 264 577 264 570.5 257.5 c 128,-1,34
 564 251 564 251 564 233 c 2,0,-1
312 -61 m 1,35,-1
 361 -71 l 2,36,37
 393 -77 393 -77 398 -100 c 0,38,39
 399 -104 399 -104 399 -115.5 c 128,-1,40
 399 -127 399 -127 385 -146 c 1,41,-1
 299 -281 l 1,42,-1
 253 -259 l 1,43,-1
 312 -61 l 1,35,-1
EndSplineSet
EndChar

StartChar: gcommaaccent
Encoding: 291 291 229
Width: 544
GlyphClass: 2
Flags: W
LayerCount: 2
Fore
SplineSet
414 -162 m 128,-1,1
 359 -214 359 -214 242 -214 c 128,-1,2
 125 -214 125 -214 59 -181 c 1,3,-1
 59 -42 l 1,4,-1
 154 -34 l 1,5,-1
 154 -82 l 2,6,7
 154 -109 154 -109 179 -118.5 c 128,-1,8
 204 -128 204 -128 248 -128 c 0,9,10
 312 -128 312 -128 338 -89.5 c 128,-1,11
 364 -51 364 -51 364 19 c 2,12,-1
 364 74 l 1,13,14
 316 18 316 18 231 18 c 0,15,16
 179 18 179 18 139.5 38 c 128,-1,17
 100 58 100 58 78 92 c 0,18,19
 35 160 35 160 35 252 c 0,20,21
 35 383 35 383 106 450.5 c 128,-1,22
 177 518 177 518 295 518 c 0,23,24
 393 518 393 518 480 481 c 1,25,-1
 480 110 l 2,26,27
 480 25 480 25 478 1 c 0,28,0
 469 -110 469 -110 414 -162 c 128,-1,1
364 204 m 2,29,-1
 364 419 l 1,30,31
 329 431 329 431 284 431 c 0,32,33
 223 431 223 431 190.5 386 c 128,-1,34
 158 341 158 341 158 264 c 0,35,36
 158 106 158 106 262 106 c 0,37,38
 305 106 305 106 334.5 132.5 c 128,-1,39
 364 159 364 159 364 204 c 2,29,-1
372 772 m 1,40,-1
 313 574 l 1,41,-1
 264 584 l 2,42,43
 226 591 226 591 226 622 c 0,44,45
 226 640 226 640 240 659 c 1,46,-1
 326 794 l 1,47,-1
 372 772 l 1,40,-1
EndSplineSet
EndChar

StartChar: Hcircumflex
Encoding: 292 292 230
Width: 712
GlyphClass: 2
Flags: W
LayerCount: 2
Fore
SplineSet
499 117 m 2,0,-1
 499 290 l 1,1,-1
 216 290 l 1,2,-1
 216 88 l 1,3,-1
 274 85 l 1,4,-1
 274 0 l 1,5,-1
 32 0 l 1,6,-1
 32 81 l 1,7,-1
 65 84 l 2,8,9
 94 87 94 87 94 112 c 2,10,-1
 94 577 l 1,11,-1
 37 580 l 1,12,-1
 37 665 l 1,13,-1
 279 665 l 1,14,-1
 279 584 l 1,15,-1
 246 581 l 2,16,17
 230 579 230 579 223 572.5 c 128,-1,18
 216 566 216 566 216 548 c 2,19,-1
 216 393 l 1,20,-1
 499 393 l 1,21,-1
 499 577 l 1,22,-1
 442 580 l 1,23,-1
 442 665 l 1,24,-1
 684 665 l 1,25,-1
 684 584 l 1,26,-1
 651 581 l 2,27,28
 622 578 622 578 622 549 c 2,29,-1
 622 88 l 1,30,-1
 679 85 l 1,31,-1
 679 0 l 1,32,-1
 437 0 l 1,33,-1
 437 81 l 1,34,-1
 470 84 l 2,35,36
 485 86 485 86 492 92.5 c 128,-1,37
 499 99 499 99 499 117 c 2,0,-1
236 708 m 1,38,-1
 195 742 l 1,39,-1
 313 870 l 2,40,41
 334 893 334 893 355 893 c 1,42,-1
 395 872 l 1,43,-1
 515 743 l 1,44,-1
 474 708 l 1,45,-1
 354 794 l 1,46,-1
 236 708 l 1,38,-1
EndSplineSet
EndChar

StartChar: hcircumflex
Encoding: 293 293 231
Width: 600
GlyphClass: 2
Flags: W
LayerCount: 2
Fore
SplineSet
94 112 m 2,0,-1
 94 599 l 2,1,2
 94 615 94 615 88.5 621 c 128,-1,3
 83 627 83 627 69 628 c 2,4,-1
 34 630 l 1,5,-1
 34 713 l 1,6,-1
 212 713 l 1,7,-1
 212 444 l 1,8,9
 264 518 264 518 358 518 c 0,10,11
 434 518 434 518 475.5 474.5 c 128,-1,12
 517 431 517 431 517 344 c 2,13,-1
 517 83 l 1,14,-1
 574 80 l 1,15,-1
 574 0 l 1,16,-1
 336 0 l 1,17,-1
 336 76 l 1,18,-1
 369 79 l 2,19,20
 384 81 384 81 391 87.5 c 128,-1,21
 398 94 398 94 398 112 c 2,22,-1
 398 318 l 2,23,24
 398 370 398 370 381.5 398 c 128,-1,25
 365 426 365 426 317.5 426 c 128,-1,26
 270 426 270 426 241.5 396.5 c 128,-1,27
 213 367 213 367 213 325 c 2,28,-1
 213 83 l 1,29,-1
 270 80 l 1,30,-1
 270 0 l 1,31,-1
 32 0 l 1,32,-1
 32 76 l 1,33,-1
 65 79 l 2,34,35
 80 81 80 81 87 87.5 c 128,-1,36
 94 94 94 94 94 112 c 2,0,-1
7 736 m 1,37,-1
 -34 770 l 1,38,-1
 84 898 l 2,39,40
 105 921 105 921 126 921 c 1,41,-1
 166 900 l 1,42,-1
 286 771 l 1,43,-1
 245 736 l 1,44,-1
 125 822 l 1,45,-1
 7 736 l 1,37,-1
EndSplineSet
EndChar

StartChar: Hbar
Encoding: 294 294 232
Width: 728
GlyphClass: 2
Flags: W
LayerCount: 2
Fore
SplineSet
505 117 m 2,0,-1
 505 290 l 1,1,-1
 222 290 l 1,2,-1
 222 88 l 1,3,-1
 280 85 l 1,4,-1
 280 0 l 1,5,-1
 38 0 l 1,6,-1
 38 81 l 1,7,-1
 71 84 l 2,8,9
 100 87 100 87 100 112 c 2,10,-1
 100 452 l 1,11,-1
 38 452 l 1,12,-1
 38 529 l 1,13,-1
 100 529 l 1,14,-1
 100 577 l 1,15,-1
 43 580 l 1,16,-1
 43 665 l 1,17,-1
 285 665 l 1,18,-1
 285 584 l 1,19,-1
 252 581 l 2,20,21
 236 579 236 579 229 572.5 c 128,-1,22
 222 566 222 566 222 548 c 2,23,-1
 222 529 l 1,24,-1
 505 529 l 1,25,-1
 505 577 l 1,26,-1
 448 580 l 1,27,-1
 448 665 l 1,28,-1
 690 665 l 1,29,-1
 690 584 l 1,30,-1
 657 581 l 2,31,32
 628 578 628 578 628 549 c 2,33,-1
 628 529 l 1,34,-1
 695 529 l 1,35,-1
 695 452 l 1,36,-1
 628 452 l 1,37,-1
 628 88 l 1,38,-1
 685 85 l 1,39,-1
 685 0 l 1,40,-1
 443 0 l 1,41,-1
 443 81 l 1,42,-1
 476 84 l 2,43,44
 491 86 491 86 498 92.5 c 128,-1,45
 505 99 505 99 505 117 c 2,0,-1
222 393 m 1,46,-1
 505 393 l 1,47,-1
 505 452 l 1,48,-1
 222 452 l 1,49,-1
 222 393 l 1,46,-1
EndSplineSet
EndChar

StartChar: hbar
Encoding: 295 295 233
Width: 600
GlyphClass: 2
Flags: W
LayerCount: 2
Fore
SplineSet
376 528 m 1,0,-1
 212 528 l 1,1,-1
 212 419 l 1,2,3
 264 493 264 493 358 493 c 0,4,5
 434 493 434 493 475.5 449.5 c 128,-1,6
 517 406 517 406 517 319 c 2,7,-1
 517 83 l 1,8,-1
 574 80 l 1,9,-1
 574 0 l 1,10,-1
 336 0 l 1,11,-1
 336 76 l 1,12,-1
 369 79 l 2,13,14
 384 81 384 81 391 87.5 c 128,-1,15
 398 94 398 94 398 112 c 2,16,-1
 398 293 l 2,17,18
 398 345 398 345 381.5 373 c 128,-1,19
 365 401 365 401 317.5 401 c 128,-1,20
 270 401 270 401 241.5 371.5 c 128,-1,21
 213 342 213 342 213 300 c 2,22,-1
 213 83 l 1,23,-1
 270 80 l 1,24,-1
 270 0 l 1,25,-1
 32 0 l 1,26,-1
 32 76 l 1,27,-1
 65 79 l 2,28,29
 80 81 80 81 87 87.5 c 128,-1,30
 94 94 94 94 94 112 c 2,31,-1
 94 528 l 1,32,-1
 29 528 l 1,33,-1
 29 600 l 1,34,-1
 94 600 l 1,35,-1
 94 604 l 2,36,37
 94 620 94 620 88.5 626 c 128,-1,38
 83 632 83 632 69 633 c 2,39,-1
 34 635 l 1,40,-1
 34 713 l 1,41,-1
 212 713 l 1,42,-1
 212 600 l 1,43,-1
 376 600 l 1,44,-1
 376 528 l 1,0,-1
EndSplineSet
EndChar

StartChar: Itilde
Encoding: 296 296 234
Width: 307
GlyphClass: 2
Flags: W
LayerCount: 2
Fore
SplineSet
94 117 m 2,0,-1
 94 577 l 1,1,-1
 37 580 l 1,2,-1
 37 665 l 1,3,-1
 279 665 l 1,4,-1
 279 584 l 1,5,-1
 246 581 l 2,6,7
 217 578 217 578 217 549 c 2,8,-1
 217 88 l 1,9,-1
 274 85 l 1,10,-1
 274 0 l 1,11,-1
 32 0 l 1,12,-1
 32 81 l 1,13,-1
 65 84 l 2,14,15
 80 86 80 86 87 92.5 c 128,-1,16
 94 99 94 99 94 117 c 2,0,-1
43 728 m 1,17,-1
 -5 763 l 1,18,19
 31 842 31 842 97 842 c 0,20,21
 121 842 121 842 167 828 c 128,-1,22
 213 814 213 814 234.5 814 c 128,-1,23
 256 814 256 814 275 846 c 1,24,-1
 329 817 l 1,25,26
 296 730 296 730 226 730 c 0,27,28
 204 730 204 730 160 743.5 c 128,-1,29
 116 757 116 757 98.5 757 c 128,-1,30
 81 757 81 757 70 751.5 c 128,-1,31
 59 746 59 746 43 728 c 1,17,-1
EndSplineSet
EndChar

StartChar: Imacron
Encoding: 298 298 236
Width: 307
GlyphClass: 2
Flags: W
LayerCount: 2
Fore
SplineSet
94 117 m 2,0,-1
 94 577 l 1,1,-1
 37 580 l 1,2,-1
 37 665 l 1,3,-1
 279 665 l 1,4,-1
 279 584 l 1,5,-1
 246 581 l 2,6,7
 217 578 217 578 217 549 c 2,8,-1
 217 88 l 1,9,-1
 274 85 l 1,10,-1
 274 0 l 1,11,-1
 32 0 l 1,12,-1
 32 81 l 1,13,-1
 65 84 l 2,14,15
 80 86 80 86 87 92.5 c 128,-1,16
 94 99 94 99 94 117 c 2,0,-1
12 734 m 1,17,-1
 12 821 l 1,18,-1
 299 821 l 1,19,-1
 299 734 l 1,20,-1
 12 734 l 1,17,-1
EndSplineSet
EndChar

StartChar: Ibreve
Encoding: 300 300 238
Width: 307
GlyphClass: 2
Flags: W
LayerCount: 2
Fore
SplineSet
94 117 m 2,0,-1
 94 577 l 1,1,-1
 37 580 l 1,2,-1
 37 665 l 1,3,-1
 279 665 l 1,4,-1
 279 584 l 1,5,-1
 246 581 l 2,6,7
 217 578 217 578 217 549 c 2,8,-1
 217 88 l 1,9,-1
 274 85 l 1,10,-1
 274 0 l 1,11,-1
 32 0 l 1,12,-1
 32 81 l 1,13,-1
 65 84 l 2,14,15
 80 86 80 86 87 92.5 c 128,-1,16
 94 99 94 99 94 117 c 2,0,-1
258 874 m 1,17,-1
 324 847 l 1,18,19
 282 720 282 720 154.5 720 c 128,-1,20
 27 720 27 720 -8 846 c 1,21,-1
 59 874 l 1,22,23
 90 796 90 796 159 796 c 0,24,25
 196 796 196 796 218.5 814.5 c 128,-1,26
 241 833 241 833 258 874 c 1,17,-1
EndSplineSet
EndChar

StartChar: Iogonek
Encoding: 302 302 240
Width: 307
GlyphClass: 2
Flags: W
LayerCount: 2
Fore
SplineSet
94 117 m 2,0,-1
 94 577 l 1,1,-1
 37 580 l 1,2,-1
 37 665 l 1,3,-1
 279 665 l 1,4,-1
 279 584 l 1,5,-1
 246 581 l 2,6,7
 217 578 217 578 217 549 c 2,8,-1
 217 88 l 1,9,-1
 274 85 l 1,10,-1
 274 0 l 1,11,12
 168 -41 168 -41 168 -97 c 0,13,14
 168 -135 168 -135 209 -135 c 0,15,16
 231 -135 231 -135 256 -124 c 1,17,-1
 278 -190 l 1,18,19
 228 -214 228 -214 173.5 -214 c 128,-1,20
 119 -214 119 -214 93.5 -186.5 c 128,-1,21
 68 -159 68 -159 68 -118.5 c 128,-1,22
 68 -78 68 -78 90.5 -54 c 128,-1,23
 113 -30 113 -30 155 -7 c 1,24,-1
 155 0 l 1,25,-1
 32 0 l 1,26,-1
 32 81 l 1,27,-1
 65 84 l 2,28,29
 80 86 80 86 87 92.5 c 128,-1,30
 94 99 94 99 94 117 c 2,0,-1
EndSplineSet
EndChar

StartChar: iogonek
Encoding: 303 303 241
Width: 296
GlyphClass: 2
Flags: W
LayerCount: 2
Fore
SplineSet
214 503 m 1,0,-1
 214 83 l 1,1,-1
 271 80 l 1,2,-1
 271 0 l 1,3,4
 154 -38 154 -38 154 -97 c 0,5,6
 154 -135 154 -135 195 -135 c 0,7,8
 217 -135 217 -135 242 -124 c 1,9,-1
 264 -190 l 1,10,11
 214 -214 214 -214 159.5 -214 c 128,-1,12
 105 -214 105 -214 79.5 -186.5 c 128,-1,13
 54 -159 54 -159 54 -118.5 c 128,-1,14
 54 -78 54 -78 78 -53 c 128,-1,15
 102 -28 102 -28 143 -9 c 1,16,-1
 143 0 l 1,17,-1
 33 0 l 1,18,-1
 33 76 l 1,19,-1
 66 79 l 2,20,21
 95 82 95 82 95 111 c 2,22,-1
 95 389 l 2,23,24
 95 406 95 406 89.5 412 c 128,-1,25
 84 418 84 418 70 418 c 2,26,-1
 35 420 l 1,27,-1
 35 503 l 1,28,-1
 214 503 l 1,0,-1
67 642 m 128,-1,30
 67 674 67 674 88 695.5 c 128,-1,31
 109 717 109 717 143 717 c 128,-1,32
 177 717 177 717 198.5 695.5 c 128,-1,33
 220 674 220 674 220 642 c 128,-1,34
 220 610 220 610 198.5 589.5 c 128,-1,35
 177 569 177 569 143 569 c 128,-1,36
 109 569 109 569 88 589.5 c 128,-1,29
 67 610 67 610 67 642 c 128,-1,30
EndSplineSet
EndChar

StartChar: Idotaccent
Encoding: 304 304 242
Width: 307
GlyphClass: 2
Flags: W
LayerCount: 2
Fore
SplineSet
94 117 m 2,0,-1
 94 577 l 1,1,-1
 37 580 l 1,2,-1
 37 665 l 1,3,-1
 279 665 l 1,4,-1
 279 584 l 1,5,-1
 246 581 l 2,6,7
 217 578 217 578 217 549 c 2,8,-1
 217 88 l 1,9,-1
 274 85 l 1,10,-1
 274 0 l 1,11,-1
 32 0 l 1,12,-1
 32 81 l 1,13,-1
 65 84 l 2,14,15
 80 86 80 86 87 92.5 c 128,-1,16
 94 99 94 99 94 117 c 2,0,-1
108 745.5 m 128,-1,18
 89 764 89 764 89 792.5 c 128,-1,19
 89 821 89 821 108.5 840.5 c 128,-1,20
 128 860 128 860 158 860 c 128,-1,21
 188 860 188 860 207.5 840.5 c 128,-1,22
 227 821 227 821 227 792.5 c 128,-1,23
 227 764 227 764 207.5 745.5 c 128,-1,24
 188 727 188 727 157.5 727 c 128,-1,17
 127 727 127 727 108 745.5 c 128,-1,18
EndSplineSet
EndChar

StartChar: dotlessi
Encoding: 305 305 243
Width: 296
GlyphClass: 2
Flags: W
LayerCount: 2
Fore
SplineSet
214 503 m 1,0,-1
 214 83 l 1,1,-1
 271 80 l 1,2,-1
 271 0 l 1,3,-1
 33 0 l 1,4,-1
 33 76 l 1,5,-1
 66 79 l 2,6,7
 95 82 95 82 95 111 c 2,8,-1
 95 389 l 2,9,10
 95 406 95 406 89.5 412 c 128,-1,11
 84 418 84 418 70 418 c 2,12,-1
 35 420 l 1,13,-1
 35 503 l 1,14,-1
 214 503 l 1,0,-1
EndSplineSet
EndChar

StartChar: IJ
Encoding: 306 306 244
Width: 781
GlyphClass: 2
Flags: W
LayerCount: 2
Fore
SplineSet
94 117 m 2,0,-1
 94 577 l 1,1,-1
 37 580 l 1,2,-1
 37 665 l 1,3,-1
 279 665 l 1,4,-1
 279 584 l 1,5,-1
 246 581 l 2,6,7
 217 578 217 578 217 549 c 2,8,-1
 217 88 l 1,9,-1
 274 85 l 1,10,-1
 274 0 l 1,11,-1
 32 0 l 1,12,-1
 32 81 l 1,13,-1
 65 84 l 2,14,15
 80 86 80 86 87 92.5 c 128,-1,16
 94 99 94 99 94 117 c 2,0,-1
700 134 m 0,17,18
 683 -13 683 -13 504 -13 c 0,19,20
 409 -13 409 -13 335 29 c 1,21,-1
 335 204 l 1,22,-1
 437 211 l 1,23,-1
 437 132 l 2,24,25
 437 117 437 117 441 110 c 128,-1,26
 445 103 445 103 462 96.5 c 128,-1,27
 479 90 479 90 514.5 90 c 128,-1,28
 550 90 550 90 566 111.5 c 128,-1,29
 582 133 582 133 582 181 c 2,30,-1
 582 576 l 1,31,-1
 504 580 l 1,32,-1
 504 665 l 1,33,-1
 766 665 l 1,34,-1
 766 584 l 1,35,-1
 733 581 l 2,36,37
 704 578 704 578 704 550 c 2,38,-1
 704 239 l 2,39,40
 704 168 704 168 700 134 c 0,17,18
EndSplineSet
EndChar

StartChar: ij
Encoding: 307 307 245
Width: 579
GlyphClass: 2
Flags: W
LayerCount: 2
Fore
SplineSet
214 503 m 1,0,-1
 214 83 l 1,1,-1
 271 80 l 1,2,-1
 271 0 l 1,3,-1
 33 0 l 1,4,-1
 33 76 l 1,5,-1
 66 79 l 2,6,7
 95 82 95 82 95 111 c 2,8,-1
 95 389 l 2,9,10
 95 406 95 406 89.5 412 c 128,-1,11
 84 418 84 418 70 418 c 2,12,-1
 35 420 l 1,13,-1
 35 503 l 1,14,-1
 214 503 l 1,0,-1
67 642 m 128,-1,16
 67 674 67 674 88 695.5 c 128,-1,17
 109 717 109 717 143 717 c 128,-1,18
 177 717 177 717 198.5 695.5 c 128,-1,19
 220 674 220 674 220 642 c 128,-1,20
 220 610 220 610 198.5 589.5 c 128,-1,21
 177 569 177 569 143 569 c 128,-1,22
 109 569 109 569 88 589.5 c 128,-1,15
 67 610 67 610 67 642 c 128,-1,16
504 503 m 1,23,-1
 504 -24 l 2,24,25
 504 -104 504 -104 478 -154 c 1,26,27
 445 -214 445 -214 344 -214 c 0,28,29
 272 -214 272 -214 216 -179 c 1,30,-1
 252 -96 l 1,31,32
 291 -117 291 -117 323.5 -117 c 128,-1,33
 356 -117 356 -117 370.5 -97 c 128,-1,34
 385 -77 385 -77 385 -29 c 2,35,-1
 385 389 l 2,36,37
 385 405 385 405 379.5 411 c 128,-1,38
 374 417 374 417 360 418 c 2,39,-1
 325 420 l 1,40,-1
 325 503 l 1,41,-1
 504 503 l 1,23,-1
357 642 m 128,-1,43
 357 674 357 674 378 695.5 c 128,-1,44
 399 717 399 717 433 717 c 128,-1,45
 467 717 467 717 488.5 695.5 c 128,-1,46
 510 674 510 674 510 642 c 128,-1,47
 510 610 510 610 488.5 589.5 c 128,-1,48
 467 569 467 569 433 569 c 128,-1,49
 399 569 399 569 378 589.5 c 128,-1,42
 357 610 357 610 357 642 c 128,-1,43
EndSplineSet
EndChar

StartChar: Jcircumflex
Encoding: 308 308 246
Width: 474
GlyphClass: 2
Flags: W
LayerCount: 2
Fore
SplineSet
393 134 m 0,0,1
 376 -13 376 -13 196 -13 c 0,2,3
 102 -13 102 -13 28 29 c 1,4,-1
 28 204 l 1,5,-1
 130 211 l 1,6,-1
 130 132 l 2,7,8
 130 117 130 117 134 110 c 128,-1,9
 138 103 138 103 155 96.5 c 128,-1,10
 172 90 172 90 207.5 90 c 128,-1,11
 243 90 243 90 259 111.5 c 128,-1,12
 275 133 275 133 275 181 c 2,13,-1
 275 576 l 1,14,-1
 197 580 l 1,15,-1
 197 665 l 1,16,-1
 459 665 l 1,17,-1
 459 584 l 1,18,-1
 426 581 l 2,19,20
 397 578 397 578 397 550 c 2,21,-1
 397 239 l 2,22,23
 397 168 397 168 393 134 c 0,0,1
208 709 m 1,24,-1
 167 743 l 1,25,-1
 285 871 l 2,26,27
 306 894 306 894 327 894 c 1,28,-1
 367 873 l 1,29,-1
 487 744 l 1,30,-1
 446 709 l 1,31,-1
 326 795 l 1,32,-1
 208 709 l 1,24,-1
EndSplineSet
EndChar

StartChar: jcircumflex
Encoding: 309 309 247
Width: 283
GlyphClass: 2
Flags: W
LayerCount: 2
Fore
SplineSet
208 503 m 1,0,-1
 208 -24 l 2,1,2
 208 -104 208 -104 182 -154 c 1,3,4
 149 -214 149 -214 48 -214 c 0,5,6
 -24 -214 -24 -214 -80 -179 c 1,7,-1
 -44 -96 l 1,8,9
 -5 -117 -5 -117 27.5 -117 c 128,-1,10
 60 -117 60 -117 74.5 -97 c 128,-1,11
 89 -77 89 -77 89 -29 c 2,12,-1
 89 389 l 2,13,14
 89 405 89 405 83.5 411 c 128,-1,15
 78 417 78 417 64 418 c 2,16,-1
 29 420 l 1,17,-1
 29 503 l 1,18,-1
 208 503 l 1,0,-1
7 562 m 1,19,-1
 -34 594 l 1,20,-1
 81 745 l 2,21,22
 101 771 101 771 124 771 c 0,23,24
 149 771 149 771 170 743 c 2,25,-1
 283 595 l 1,26,-1
 242 561 l 1,27,-1
 124 665 l 1,28,-1
 7 562 l 1,19,-1
EndSplineSet
EndChar

StartChar: Kcommaaccent
Encoding: 310 310 248
Width: 622
GlyphClass: 2
Flags: W
LayerCount: 2
Fore
SplineSet
94 117 m 2,0,-1
 94 577 l 1,1,-1
 37 580 l 1,2,-1
 37 665 l 1,3,-1
 277 665 l 1,4,-1
 277 584 l 1,5,-1
 244 581 l 2,6,7
 215 578 215 578 215 549 c 2,8,-1
 215 329 l 1,9,-1
 419 577 l 1,10,-1
 363 580 l 1,11,-1
 363 665 l 1,12,-1
 597 665 l 1,13,-1
 597 584 l 1,14,-1
 564 581 l 2,15,16
 545 579 545 579 524 553 c 2,17,-1
 382 379 l 1,18,-1
 559 88 l 1,19,-1
 612 85 l 1,20,-1
 612 0 l 1,21,-1
 356 0 l 1,22,-1
 356 81 l 1,23,-1
 387 84 l 2,24,25
 407 86 407 86 407 100 c 0,26,27
 407 106 407 106 402 116 c 2,28,-1
 303 287 l 1,29,-1
 215 181 l 1,30,-1
 215 88 l 1,31,-1
 272 85 l 1,32,-1
 272 0 l 1,33,-1
 32 0 l 1,34,-1
 32 81 l 1,35,-1
 65 84 l 2,36,37
 80 86 80 86 87 92.5 c 128,-1,38
 94 99 94 99 94 117 c 2,0,-1
279 -61 m 1,39,-1
 328 -71 l 2,40,41
 360 -77 360 -77 365 -100 c 0,42,43
 366 -104 366 -104 366 -115.5 c 128,-1,44
 366 -127 366 -127 352 -146 c 1,45,-1
 266 -281 l 1,46,-1
 220 -259 l 1,47,-1
 279 -61 l 1,39,-1
EndSplineSet
EndChar

StartChar: kcommaaccent
Encoding: 311 311 249
Width: 556
GlyphClass: 2
Flags: W
LayerCount: 2
Fore
SplineSet
95 112 m 2,0,-1
 95 599 l 2,1,2
 95 615 95 615 89.5 621 c 128,-1,3
 84 627 84 627 70 628 c 2,4,-1
 35 630 l 1,5,-1
 35 713 l 1,6,-1
 213 713 l 1,7,-1
 213 280 l 1,8,9
 268 285 268 285 309 314 c 128,-1,10
 350 343 350 343 365 390 c 0,11,12
 368 400 368 400 368 406 c 0,13,14
 368 423 368 423 349 423 c 2,15,-1
 311 425 l 1,16,-1
 311 503 l 1,17,-1
 518 503 l 1,18,-1
 518 422 l 1,19,-1
 470 420 l 1,20,21
 457 318 457 318 382 259 c 1,22,-1
 480 83 l 1,23,-1
 541 80 l 1,24,-1
 541 0 l 1,25,-1
 395 0 l 1,26,-1
 281 208 l 1,27,28
 248 199 248 199 213 194 c 1,29,-1
 213 83 l 1,30,-1
 214 83 l 1,31,-1
 271 80 l 1,32,-1
 271 0 l 1,33,-1
 33 0 l 1,34,-1
 33 76 l 1,35,-1
 66 79 l 2,36,37
 81 81 81 81 88 87.5 c 128,-1,38
 95 94 95 94 95 112 c 2,0,-1
249 -61 m 1,39,-1
 298 -71 l 2,40,41
 330 -77 330 -77 335 -100 c 0,42,43
 336 -104 336 -104 336 -115.5 c 128,-1,44
 336 -127 336 -127 322 -146 c 1,45,-1
 236 -281 l 1,46,-1
 190 -259 l 1,47,-1
 249 -61 l 1,39,-1
EndSplineSet
EndChar

StartChar: kgreenlandic
Encoding: 312 312 250
Width: 556
GlyphClass: 2
Flags: W
LayerCount: 2
Fore
SplineSet
95 112 m 2,0,-1
 95 389 l 2,1,2
 95 405 95 405 89.5 411 c 128,-1,3
 84 417 84 417 70 418 c 2,4,-1
 35 420 l 1,5,-1
 35 503 l 1,6,-1
 213 503 l 1,7,-1
 213 280 l 1,8,9
 268 285 268 285 309 314 c 128,-1,10
 350 343 350 343 365 390 c 0,11,12
 368 400 368 400 368 406 c 0,13,14
 368 423 368 423 349 423 c 2,15,-1
 311 425 l 1,16,-1
 311 503 l 1,17,-1
 518 503 l 1,18,-1
 518 422 l 1,19,-1
 470 420 l 1,20,21
 457 318 457 318 382 259 c 1,22,-1
 480 83 l 1,23,-1
 541 80 l 1,24,-1
 541 0 l 1,25,-1
 395 0 l 1,26,-1
 281 208 l 1,27,28
 248 199 248 199 213 194 c 1,29,-1
 213 83 l 1,30,-1
 214 83 l 1,31,-1
 271 80 l 1,32,-1
 271 0 l 1,33,-1
 33 0 l 1,34,-1
 33 76 l 1,35,-1
 66 79 l 2,36,37
 81 81 81 81 88 87.5 c 128,-1,38
 95 94 95 94 95 112 c 2,0,-1
EndSplineSet
EndChar

StartChar: Lacute
Encoding: 313 313 251
Width: 537
GlyphClass: 2
Flags: W
LayerCount: 2
Fore
SplineSet
507 0 m 1,0,-1
 32 0 l 1,1,-1
 32 81 l 1,2,-1
 65 84 l 2,3,4
 94 87 94 87 94 112 c 2,5,-1
 94 577 l 1,6,-1
 37 580 l 1,7,-1
 37 665 l 1,8,-1
 278 665 l 1,9,-1
 278 584 l 1,10,-1
 245 581 l 2,11,12
 216 578 216 578 216 549 c 2,13,-1
 216 103 l 1,14,-1
 382 103 l 2,15,16
 396 103 396 103 400.5 110.5 c 128,-1,17
 405 118 405 118 405 135 c 2,18,-1
 405 205 l 1,19,-1
 507 198 l 1,20,-1
 507 0 l 1,0,-1
58 750 m 1,21,-1
 220 907 l 1,22,-1
 260 874 l 1,23,24
 278 857 278 857 278 841 c 0,25,26
 278 816 278 816 243 796 c 2,27,-1
 88 709 l 1,28,-1
 58 750 l 1,21,-1
EndSplineSet
EndChar

StartChar: lacute
Encoding: 314 314 252
Width: 298
GlyphClass: 2
Flags: W
LayerCount: 2
Fore
SplineSet
212 713 m 1,0,-1
 212 83 l 1,1,-1
 269 80 l 1,2,-1
 269 0 l 1,3,-1
 31 0 l 1,4,-1
 31 76 l 1,5,-1
 64 79 l 2,6,7
 93 82 93 82 93 111 c 2,8,-1
 93 604 l 2,9,10
 93 626 93 626 68 628 c 2,11,-1
 33 630 l 1,12,-1
 33 713 l 1,13,-1
 212 713 l 1,0,-1
34 781 m 1,14,-1
 196 938 l 1,15,-1
 236 905 l 1,16,17
 254 888 254 888 254 872 c 0,18,19
 254 847 254 847 219 827 c 2,20,-1
 64 740 l 1,21,-1
 34 781 l 1,14,-1
EndSplineSet
EndChar

StartChar: Lcommaaccent
Encoding: 315 315 253
Width: 537
GlyphClass: 2
Flags: W
LayerCount: 2
Fore
SplineSet
507 0 m 1,0,-1
 32 0 l 1,1,-1
 32 81 l 1,2,-1
 65 84 l 2,3,4
 94 87 94 87 94 112 c 2,5,-1
 94 577 l 1,6,-1
 37 580 l 1,7,-1
 37 665 l 1,8,-1
 278 665 l 1,9,-1
 278 584 l 1,10,-1
 245 581 l 2,11,12
 216 578 216 578 216 549 c 2,13,-1
 216 103 l 1,14,-1
 382 103 l 2,15,16
 396 103 396 103 400.5 110.5 c 128,-1,17
 405 118 405 118 405 135 c 2,18,-1
 405 205 l 1,19,-1
 507 198 l 1,20,-1
 507 0 l 1,0,-1
257 -61 m 1,21,-1
 306 -71 l 2,22,23
 338 -77 338 -77 343 -100 c 0,24,25
 344 -104 344 -104 344 -115.5 c 128,-1,26
 344 -127 344 -127 330 -146 c 1,27,-1
 244 -281 l 1,28,-1
 198 -259 l 1,29,-1
 257 -61 l 1,21,-1
EndSplineSet
EndChar

StartChar: lcommaaccent
Encoding: 316 316 254
Width: 298
GlyphClass: 2
Flags: W
LayerCount: 2
Fore
SplineSet
212 713 m 1,0,-1
 212 83 l 1,1,-1
 269 80 l 1,2,-1
 269 0 l 1,3,-1
 31 0 l 1,4,-1
 31 76 l 1,5,-1
 64 79 l 2,6,7
 93 82 93 82 93 111 c 2,8,-1
 93 604 l 2,9,10
 93 626 93 626 68 628 c 2,11,-1
 33 630 l 1,12,-1
 33 713 l 1,13,-1
 212 713 l 1,0,-1
122 -61 m 1,14,-1
 171 -71 l 2,15,16
 203 -77 203 -77 208 -100 c 0,17,18
 209 -104 209 -104 209 -115.5 c 128,-1,19
 209 -127 209 -127 195 -146 c 1,20,-1
 109 -281 l 1,21,-1
 63 -259 l 1,22,-1
 122 -61 l 1,14,-1
EndSplineSet
EndChar

StartChar: Lcaron
Encoding: 317 317 255
Width: 537
GlyphClass: 2
Flags: W
LayerCount: 2
Fore
SplineSet
507 0 m 1,0,-1
 32 0 l 1,1,-1
 32 81 l 1,2,-1
 65 84 l 2,3,4
 94 87 94 87 94 112 c 2,5,-1
 94 577 l 1,6,-1
 37 580 l 1,7,-1
 37 665 l 1,8,-1
 278 665 l 1,9,-1
 278 584 l 1,10,-1
 245 581 l 2,11,12
 216 578 216 578 216 549 c 2,13,-1
 216 103 l 1,14,-1
 382 103 l 2,15,16
 396 103 396 103 400.5 110.5 c 128,-1,17
 405 118 405 118 405 135 c 2,18,-1
 405 205 l 1,19,-1
 507 198 l 1,20,-1
 507 0 l 1,0,-1
420 663 m 0,21,22
 460 663 460 663 460 623 c 0,23,24
 460 611 460 611 456 597 c 2,25,-1
 410 438 l 1,26,-1
 362 447 l 1,27,-1
 362 658 l 1,28,-1
 412 663 l 2,29,30
 416 663 416 663 420 663 c 0,21,22
EndSplineSet
EndChar

StartChar: lcaron
Encoding: 318 318 256
Width: 378
GlyphClass: 2
Flags: W
LayerCount: 2
Fore
SplineSet
212 713 m 1,0,-1
 212 83 l 1,1,-1
 269 80 l 1,2,-1
 269 0 l 1,3,-1
 31 0 l 1,4,-1
 31 76 l 1,5,-1
 64 79 l 2,6,7
 93 82 93 82 93 111 c 2,8,-1
 93 604 l 2,9,10
 93 626 93 626 68 628 c 2,11,-1
 33 630 l 1,12,-1
 33 713 l 1,13,-1
 212 713 l 1,0,-1
337 718 m 0,14,15
 377 718 377 718 377 678 c 0,16,17
 377 666 377 666 373 652 c 2,18,-1
 327 493 l 1,19,-1
 279 502 l 1,20,-1
 279 713 l 1,21,-1
 329 718 l 2,22,23
 333 718 333 718 337 718 c 0,14,15
EndSplineSet
EndChar

StartChar: Ldot
Encoding: 319 319 257
Width: 537
GlyphClass: 2
Flags: W
LayerCount: 2
Fore
SplineSet
507 0 m 1,0,-1
 32 0 l 1,1,-1
 32 81 l 1,2,-1
 65 84 l 2,3,4
 94 87 94 87 94 112 c 2,5,-1
 94 577 l 1,6,-1
 37 580 l 1,7,-1
 37 665 l 1,8,-1
 278 665 l 1,9,-1
 278 584 l 1,10,-1
 245 581 l 2,11,12
 216 578 216 578 216 549 c 2,13,-1
 216 103 l 1,14,-1
 382 103 l 2,15,16
 396 103 396 103 400.5 110.5 c 128,-1,17
 405 118 405 118 405 135 c 2,18,-1
 405 205 l 1,19,-1
 507 198 l 1,20,-1
 507 0 l 1,0,-1
357 332.5 m 128,-1,22
 338 351 338 351 338 379.5 c 128,-1,23
 338 408 338 408 357.5 427.5 c 128,-1,24
 377 447 377 447 407 447 c 128,-1,25
 437 447 437 447 456.5 427.5 c 128,-1,26
 476 408 476 408 476 379.5 c 128,-1,27
 476 351 476 351 456.5 332.5 c 128,-1,28
 437 314 437 314 406.5 314 c 128,-1,21
 376 314 376 314 357 332.5 c 128,-1,22
EndSplineSet
EndChar

StartChar: ldot
Encoding: 320 320 258
Width: 379
GlyphClass: 2
Flags: W
LayerCount: 2
Fore
SplineSet
212 713 m 1,0,-1
 212 83 l 1,1,-1
 269 80 l 1,2,-1
 269 0 l 1,3,-1
 31 0 l 1,4,-1
 31 76 l 1,5,-1
 64 79 l 2,6,7
 93 82 93 82 93 111 c 2,8,-1
 93 604 l 2,9,10
 93 626 93 626 68 628 c 2,11,-1
 33 630 l 1,12,-1
 33 713 l 1,13,-1
 212 713 l 1,0,-1
290 332.5 m 128,-1,15
 271 351 271 351 271 379.5 c 128,-1,16
 271 408 271 408 290.5 427.5 c 128,-1,17
 310 447 310 447 340 447 c 128,-1,18
 370 447 370 447 389.5 427.5 c 128,-1,19
 409 408 409 408 409 379.5 c 128,-1,20
 409 351 409 351 389.5 332.5 c 128,-1,21
 370 314 370 314 339.5 314 c 128,-1,14
 309 314 309 314 290 332.5 c 128,-1,15
EndSplineSet
EndChar

StartChar: Lslash
Encoding: 321 321 259
Width: 537
GlyphClass: 2
Flags: W
LayerCount: 2
Fore
SplineSet
507 0 m 1,0,-1
 32 0 l 1,1,-1
 32 81 l 1,2,-1
 65 84 l 2,3,4
 94 87 94 87 94 112 c 2,5,-1
 94 244 l 1,6,-1
 28 208 l 1,7,-1
 5 295 l 1,8,-1
 94 343 l 1,9,-1
 94 577 l 1,10,-1
 37 580 l 1,11,-1
 37 665 l 1,12,-1
 278 665 l 1,13,-1
 278 584 l 1,14,-1
 245 581 l 2,15,16
 216 578 216 578 216 549 c 2,17,-1
 216 394 l 1,18,-1
 401 491 l 1,19,-1
 425 403 l 1,20,-1
 216 295 l 1,21,-1
 216 103 l 1,22,-1
 382 103 l 2,23,24
 396 103 396 103 400.5 110.5 c 128,-1,25
 405 118 405 118 405 135 c 2,26,-1
 405 205 l 1,27,-1
 507 198 l 1,28,-1
 507 0 l 1,0,-1
EndSplineSet
EndChar

StartChar: lslash
Encoding: 322 322 260
Width: 328
GlyphClass: 2
Flags: W
LayerCount: 2
Fore
SplineSet
227 713 m 1,0,-1
 227 460 l 1,1,-1
 299 512 l 1,2,-1
 332 425 l 1,3,-1
 227 352 l 1,4,-1
 227 83 l 1,5,-1
 284 80 l 1,6,-1
 284 0 l 1,7,-1
 46 0 l 1,8,-1
 46 76 l 1,9,-1
 79 79 l 2,10,11
 108 82 108 82 108 111 c 2,12,-1
 108 290 l 1,13,-1
 43 243 l 1,14,-1
 10 330 l 1,15,-1
 108 397 l 1,16,-1
 108 604 l 2,17,18
 108 626 108 626 83 628 c 2,19,-1
 48 630 l 1,20,-1
 48 713 l 1,21,-1
 227 713 l 1,0,-1
EndSplineSet
EndChar

StartChar: Nacute
Encoding: 323 323 261
Width: 705
GlyphClass: 2
Flags: W
LayerCount: 2
Fore
SplineSet
32 0 m 1,0,-1
 32 81 l 1,1,-1
 68 84 l 2,2,3
 94 86 94 86 94 112 c 2,4,-1
 94 577 l 1,5,-1
 37 580 l 1,6,-1
 37 665 l 1,7,-1
 217 665 l 1,8,-1
 500 206 l 1,9,-1
 502 206 l 1,10,-1
 502 577 l 1,11,-1
 436 580 l 1,12,-1
 436 665 l 1,13,-1
 680 665 l 1,14,-1
 680 584 l 1,15,-1
 644 581 l 2,16,17
 620 579 620 579 620 550 c 2,18,-1
 620 0 l 1,19,-1
 503 0 l 1,20,-1
 214 466 l 1,21,-1
 212 466 l 1,22,-1
 212 88 l 1,23,-1
 277 85 l 1,24,-1
 277 0 l 1,25,-1
 32 0 l 1,0,-1
269 750 m 1,26,-1
 431 907 l 1,27,-1
 471 874 l 1,28,29
 489 857 489 857 489 841 c 0,30,31
 489 816 489 816 454 796 c 2,32,-1
 299 709 l 1,33,-1
 269 750 l 1,26,-1
EndSplineSet
EndChar

StartChar: Ncommaaccent
Encoding: 325 325 263
Width: 705
GlyphClass: 2
Flags: W
LayerCount: 2
Fore
SplineSet
32 0 m 1,0,-1
 32 81 l 1,1,-1
 68 84 l 2,2,3
 94 86 94 86 94 112 c 2,4,-1
 94 577 l 1,5,-1
 37 580 l 1,6,-1
 37 665 l 1,7,-1
 217 665 l 1,8,-1
 500 206 l 1,9,-1
 502 206 l 1,10,-1
 502 577 l 1,11,-1
 436 580 l 1,12,-1
 436 665 l 1,13,-1
 680 665 l 1,14,-1
 680 584 l 1,15,-1
 644 581 l 2,16,17
 620 579 620 579 620 550 c 2,18,-1
 620 0 l 1,19,-1
 503 0 l 1,20,-1
 214 466 l 1,21,-1
 212 466 l 1,22,-1
 212 88 l 1,23,-1
 277 85 l 1,24,-1
 277 0 l 1,25,-1
 32 0 l 1,0,-1
313 -61 m 1,26,-1
 362 -71 l 2,27,28
 394 -77 394 -77 399 -100 c 0,29,30
 400 -104 400 -104 400 -115.5 c 128,-1,31
 400 -127 400 -127 386 -146 c 1,32,-1
 300 -281 l 1,33,-1
 254 -259 l 1,34,-1
 313 -61 l 1,26,-1
EndSplineSet
EndChar

StartChar: ncommaaccent
Encoding: 326 326 264
Width: 600
GlyphClass: 2
Flags: W
LayerCount: 2
Fore
SplineSet
27 423 m 1,0,-1
 27 503 l 1,1,-1
 196 503 l 1,2,-1
 196 438 l 1,3,4
 222 475 222 475 265 496.5 c 128,-1,5
 308 518 308 518 358 518 c 0,6,7
 434 518 434 518 475.5 474.5 c 128,-1,8
 517 431 517 431 517 344 c 2,9,-1
 517 83 l 1,10,-1
 574 80 l 1,11,-1
 574 0 l 1,12,-1
 336 0 l 1,13,-1
 336 76 l 1,14,-1
 369 79 l 2,15,16
 384 81 384 81 391 87.5 c 128,-1,17
 398 94 398 94 398 112 c 2,18,-1
 398 318 l 2,19,20
 398 373 398 373 381 399.5 c 128,-1,21
 364 426 364 426 316.5 426 c 128,-1,22
 269 426 269 426 241 396 c 128,-1,23
 213 366 213 366 213 325 c 2,24,-1
 213 83 l 1,25,-1
 270 80 l 1,26,-1
 270 0 l 1,27,-1
 32 0 l 1,28,-1
 32 76 l 1,29,-1
 65 79 l 2,30,31
 80 81 80 81 87 87.5 c 128,-1,32
 94 94 94 94 94 112 c 2,33,-1
 94 389 l 2,34,35
 94 419 94 419 69 420 c 2,36,-1
 27 423 l 1,0,-1
270 -61 m 1,37,-1
 319 -71 l 2,38,39
 351 -77 351 -77 356 -100 c 0,40,41
 357 -104 357 -104 357 -115.5 c 128,-1,42
 357 -127 357 -127 343 -146 c 1,43,-1
 257 -281 l 1,44,-1
 211 -259 l 1,45,-1
 270 -61 l 1,37,-1
EndSplineSet
EndChar

StartChar: Ncaron
Encoding: 327 327 265
Width: 705
GlyphClass: 2
Flags: W
LayerCount: 2
Fore
SplineSet
32 0 m 1,0,-1
 32 81 l 1,1,-1
 68 84 l 2,2,3
 94 86 94 86 94 112 c 2,4,-1
 94 577 l 1,5,-1
 37 580 l 1,6,-1
 37 665 l 1,7,-1
 217 665 l 1,8,-1
 500 206 l 1,9,-1
 502 206 l 1,10,-1
 502 577 l 1,11,-1
 436 580 l 1,12,-1
 436 665 l 1,13,-1
 680 665 l 1,14,-1
 680 584 l 1,15,-1
 644 581 l 2,16,17
 620 579 620 579 620 550 c 2,18,-1
 620 0 l 1,19,-1
 503 0 l 1,20,-1
 214 466 l 1,21,-1
 212 466 l 1,22,-1
 212 88 l 1,23,-1
 277 85 l 1,24,-1
 277 0 l 1,25,-1
 32 0 l 1,0,-1
470 893 m 1,26,-1
 511 859 l 1,27,-1
 393 731 l 2,28,29
 372 708 372 708 351 708 c 1,30,-1
 311 729 l 1,31,-1
 191 858 l 1,32,-1
 232 893 l 1,33,-1
 352 807 l 1,34,-1
 470 893 l 1,26,-1
EndSplineSet
EndChar

StartChar: napostrophe
Encoding: 329 329 267
Width: 600
GlyphClass: 2
Flags: W
LayerCount: 2
Fore
SplineSet
27 423 m 1,0,-1
 27 503 l 1,1,-1
 196 503 l 1,2,-1
 196 438 l 1,3,4
 222 475 222 475 265 496.5 c 128,-1,5
 308 518 308 518 358 518 c 0,6,7
 434 518 434 518 475.5 474.5 c 128,-1,8
 517 431 517 431 517 344 c 2,9,-1
 517 83 l 1,10,-1
 574 80 l 1,11,-1
 574 0 l 1,12,-1
 336 0 l 1,13,-1
 336 76 l 1,14,-1
 369 79 l 2,15,16
 384 81 384 81 391 87.5 c 128,-1,17
 398 94 398 94 398 112 c 2,18,-1
 398 318 l 2,19,20
 398 373 398 373 381 399.5 c 128,-1,21
 364 426 364 426 316.5 426 c 128,-1,22
 269 426 269 426 241 396 c 128,-1,23
 213 366 213 366 213 325 c 2,24,-1
 213 83 l 1,25,-1
 270 80 l 1,26,-1
 270 0 l 1,27,-1
 32 0 l 1,28,-1
 32 76 l 1,29,-1
 65 79 l 2,30,31
 80 81 80 81 87 87.5 c 128,-1,32
 94 94 94 94 94 112 c 2,33,-1
 94 389 l 2,34,35
 94 419 94 419 69 420 c 2,36,-1
 27 423 l 1,0,-1
-73 481 m 1,37,-1
 -39 691 l 1,38,-1
 9 689 l 2,39,40
 39 688 39 688 46 667 c 0,41,42
 49 660 49 660 49 648.5 c 128,-1,43
 49 637 49 637 40 621 c 1,44,-1
 -29 466 l 1,45,-1
 -73 481 l 1,37,-1
EndSplineSet
EndChar

StartChar: Eng
Encoding: 330 330 268
Width: 705
GlyphClass: 2
Flags: W
LayerCount: 2
Fore
SplineSet
32 0 m 1,0,-1
 32 81 l 1,1,-1
 68 84 l 2,2,3
 94 86 94 86 94 112 c 2,4,-1
 94 577 l 1,5,-1
 37 580 l 1,6,-1
 37 665 l 1,7,-1
 217 665 l 1,8,-1
 497 212 l 1,9,-1
 499 212 l 1,10,-1
 499 577 l 1,11,-1
 433 580 l 1,12,-1
 433 665 l 1,13,-1
 680 665 l 1,14,-1
 680 584 l 1,15,-1
 644 581 l 2,16,17
 620 579 620 579 620 550 c 2,18,-1
 620 -22 l 2,19,20
 620 -120 620 -120 586.5 -168.5 c 128,-1,21
 553 -217 553 -217 461.5 -217 c 128,-1,22
 370 -217 370 -217 293 -172 c 1,23,-1
 337 -85 l 1,24,25
 389 -117 389 -117 429 -117 c 128,-1,26
 469 -117 469 -117 483.5 -95.5 c 128,-1,27
 498 -74 498 -74 498 -23 c 2,28,-1
 498 8 l 1,29,-1
 216 462 l 1,30,-1
 214 462 l 1,31,-1
 214 88 l 1,32,-1
 279 85 l 1,33,-1
 279 0 l 1,34,-1
 32 0 l 1,0,-1
EndSplineSet
EndChar

StartChar: eng
Encoding: 331 331 269
Width: 592
GlyphClass: 2
Flags: W
LayerCount: 2
Fore
SplineSet
27 423 m 1,0,-1
 27 503 l 1,1,-1
 196 503 l 1,2,-1
 196 438 l 1,3,4
 222 475 222 475 265 496.5 c 128,-1,5
 308 518 308 518 358 518 c 0,6,7
 434 518 434 518 475.5 474.5 c 128,-1,8
 517 431 517 431 517 344 c 2,9,-1
 517 -24 l 2,10,11
 517 -104 517 -104 490 -154 c 0,12,13
 458 -214 458 -214 357 -214 c 0,14,15
 285 -214 285 -214 229 -179 c 1,16,-1
 265 -96 l 1,17,18
 304 -117 304 -117 336.5 -117 c 128,-1,19
 369 -117 369 -117 383.5 -97 c 128,-1,20
 398 -77 398 -77 398 -29 c 2,21,-1
 398 318 l 2,22,23
 398 373 398 373 381 399.5 c 128,-1,24
 364 426 364 426 316.5 426 c 128,-1,25
 269 426 269 426 241 396 c 128,-1,26
 213 366 213 366 213 325 c 2,27,-1
 213 83 l 1,28,-1
 270 80 l 1,29,-1
 270 0 l 1,30,-1
 32 0 l 1,31,-1
 32 76 l 1,32,-1
 65 79 l 2,33,34
 80 81 80 81 87 87.5 c 128,-1,35
 94 94 94 94 94 112 c 2,36,-1
 94 389 l 2,37,38
 94 419 94 419 69 420 c 2,39,-1
 27 423 l 1,0,-1
EndSplineSet
EndChar

StartChar: Omacron
Encoding: 332 332 270
Width: 664
GlyphClass: 2
Flags: W
LayerCount: 2
Fore
SplineSet
544 593 m 128,-1,1
 624 509 624 509 624 336.5 c 128,-1,2
 624 164 624 164 544.5 75.5 c 128,-1,3
 465 -13 465 -13 329.5 -13 c 128,-1,4
 194 -13 194 -13 117 75 c 128,-1,5
 40 163 40 163 40 331 c 0,6,7
 40 423 40 423 67 492.5 c 128,-1,8
 94 562 94 562 138 600 c 0,9,10
 227 677 227 677 345.5 677 c 128,-1,0
 464 677 464 677 544 593 c 128,-1,1
165 336 m 0,11,12
 165 88 165 88 337 88 c 0,13,14
 429 88 429 88 466 164 c 1,15,16
 500 231 500 231 500 328 c 0,17,18
 500 415 500 415 470 488 c 0,19,20
 453 528 453 528 418.5 551 c 128,-1,21
 384 574 384 574 329 574 c 128,-1,22
 274 574 274 574 234.5 538 c 128,-1,23
 195 502 195 502 180 451 c 128,-1,24
 165 400 165 400 165 336 c 0,11,12
192 734 m 1,25,-1
 192 821 l 1,26,-1
 479 821 l 1,27,-1
 479 734 l 1,28,-1
 192 734 l 1,25,-1
EndSplineSet
EndChar

StartChar: Obreve
Encoding: 334 334 272
Width: 664
GlyphClass: 2
Flags: W
LayerCount: 2
Fore
SplineSet
544 593 m 128,-1,1
 624 509 624 509 624 336.5 c 128,-1,2
 624 164 624 164 544.5 75.5 c 128,-1,3
 465 -13 465 -13 329.5 -13 c 128,-1,4
 194 -13 194 -13 117 75 c 128,-1,5
 40 163 40 163 40 331 c 0,6,7
 40 423 40 423 67 492.5 c 128,-1,8
 94 562 94 562 138 600 c 0,9,10
 227 677 227 677 345.5 677 c 128,-1,0
 464 677 464 677 544 593 c 128,-1,1
165 336 m 0,11,12
 165 88 165 88 337 88 c 0,13,14
 429 88 429 88 466 164 c 1,15,16
 500 231 500 231 500 328 c 0,17,18
 500 415 500 415 470 488 c 0,19,20
 453 528 453 528 418.5 551 c 128,-1,21
 384 574 384 574 329 574 c 128,-1,22
 274 574 274 574 234.5 538 c 128,-1,23
 195 502 195 502 180 451 c 128,-1,24
 165 400 165 400 165 336 c 0,11,12
435 874 m 1,25,-1
 501 847 l 1,26,27
 459 720 459 720 331.5 720 c 128,-1,28
 204 720 204 720 169 846 c 1,29,-1
 236 874 l 1,30,31
 267 796 267 796 336 796 c 0,32,33
 373 796 373 796 395.5 814.5 c 128,-1,34
 418 833 418 833 435 874 c 1,25,-1
EndSplineSet
EndChar

StartChar: Ohungarumlaut
Encoding: 336 336 274
Width: 664
GlyphClass: 2
Flags: W
LayerCount: 2
Fore
SplineSet
544 593 m 128,-1,1
 624 509 624 509 624 336.5 c 128,-1,2
 624 164 624 164 544.5 75.5 c 128,-1,3
 465 -13 465 -13 329.5 -13 c 128,-1,4
 194 -13 194 -13 117 75 c 128,-1,5
 40 163 40 163 40 331 c 0,6,7
 40 423 40 423 67 492.5 c 128,-1,8
 94 562 94 562 138 600 c 0,9,10
 227 677 227 677 345.5 677 c 128,-1,0
 464 677 464 677 544 593 c 128,-1,1
165 336 m 0,11,12
 165 88 165 88 337 88 c 0,13,14
 429 88 429 88 466 164 c 1,15,16
 500 231 500 231 500 328 c 0,17,18
 500 415 500 415 470 488 c 0,19,20
 453 528 453 528 418.5 551 c 128,-1,21
 384 574 384 574 329 574 c 128,-1,22
 274 574 274 574 234.5 538 c 128,-1,23
 195 502 195 502 180 451 c 128,-1,24
 165 400 165 400 165 336 c 0,11,12
180 744 m 1,25,-1
 345 897 l 1,26,-1
 385 863 l 1,27,28
 402 846 402 846 402 836 c 0,29,30
 402 806 402 806 366 785 c 1,31,-1
 209 702 l 1,32,-1
 180 744 l 1,25,-1
388 744 m 1,33,-1
 553 897 l 1,34,-1
 593 863 l 1,35,36
 610 846 610 846 610 836 c 0,37,38
 610 806 610 806 574 785 c 1,39,-1
 417 702 l 1,40,-1
 388 744 l 1,33,-1
EndSplineSet
EndChar

StartChar: OE
Encoding: 338 338 276
Width: 886
GlyphClass: 2
Flags: W
LayerCount: 2
Fore
SplineSet
834 665 m 1,0,-1
 834 499 l 1,1,-1
 732 492 l 1,2,-1
 732 532 l 2,3,4
 732 549 732 549 727 556 c 128,-1,5
 722 563 722 563 703 563 c 2,6,-1
 555 563 l 1,7,-1
 555 392 l 1,8,-1
 786 392 l 1,9,-1
 786 290 l 1,10,-1
 555 290 l 1,11,-1
 555 103 l 1,12,-1
 716 103 l 2,13,14
 734 103 734 103 739 110.5 c 128,-1,15
 744 118 744 118 744 135 c 2,16,-1
 744 185 l 1,17,-1
 846 178 l 1,18,-1
 846 0 l 1,19,-1
 444 0 l 1,20,21
 390 -13 390 -13 332 -13 c 0,22,23
 193 -13 193 -13 116.5 75 c 128,-1,24
 40 163 40 163 40 332 c 0,25,26
 40 406 40 406 58 466 c 128,-1,27
 76 526 76 526 105.5 564.5 c 128,-1,28
 135 603 135 603 175 629 c 0,29,30
 249 677 249 677 345 677 c 0,31,32
 391 677 391 677 444 665 c 1,33,-1
 834 665 l 1,0,-1
165 337 m 0,34,35
 165 205 165 205 219 142 c 0,36,37
 265 88 265 88 347 88 c 0,38,39
 398 88 398 88 433 103 c 1,40,-1
 433 555 l 1,41,42
 387 575 387 575 345 575 c 0,43,44
 254 575 254 575 209.5 506 c 128,-1,45
 165 437 165 437 165 337 c 0,34,35
EndSplineSet
EndChar

StartChar: oe
Encoding: 339 339 277
Width: 807
GlyphClass: 2
Flags: W
LayerCount: 2
Fore
SplineSet
607 518 m 0,0,1
 682 518 682 518 726 481.5 c 128,-1,2
 770 445 770 445 770 384.5 c 128,-1,3
 770 324 770 324 743 286 c 128,-1,4
 716 248 716 248 670 230 c 0,5,6
 590 198 590 198 485 198 c 1,7,8
 488 144 488 144 518.5 111.5 c 128,-1,9
 549 79 549 79 609.5 79 c 128,-1,10
 670 79 670 79 734 124 c 1,11,-1
 772 43 l 1,12,13
 752 25 752 25 704.5 6 c 128,-1,14
 657 -13 657 -13 596 -13 c 0,15,16
 467 -13 467 -13 418 72 c 1,17,18
 369 -14 369 -14 251 -14 c 0,19,20
 150 -14 150 -14 91.5 52.5 c 128,-1,21
 33 119 33 119 33 251 c 0,22,23
 33 325 33 325 55 380 c 128,-1,24
 77 435 77 435 113 464 c 0,25,26
 182 518 182 518 266 518 c 0,27,28
 386 518 386 518 430 427 c 1,29,30
 487 518 487 518 607 518 c 0,0,1
263 73 m 0,31,32
 318 73 318 73 345 120 c 128,-1,33
 372 167 372 167 372 249 c 0,34,35
 372 430 372 430 265 430 c 0,36,37
 209 430 209 430 181.5 385.5 c 128,-1,38
 154 341 154 341 154 265 c 0,39,40
 154 126 154 126 206 89 c 0,41,42
 229 73 229 73 263 73 c 0,31,32
625 316 m 128,-1,44
 660 339 660 339 660 370 c 128,-1,45
 660 401 660 401 643.5 417 c 128,-1,46
 627 433 627 433 600 433 c 0,47,48
 545 433 545 433 514.5 388 c 128,-1,49
 484 343 484 343 481 281 c 1,50,51
 486 281 486 281 503 281 c 128,-1,52
 520 281 520 281 555 287 c 128,-1,43
 590 293 590 293 625 316 c 128,-1,44
EndSplineSet
EndChar

StartChar: Racute
Encoding: 340 340 278
Width: 626
GlyphClass: 2
Flags: W
LayerCount: 2
Fore
SplineSet
32 0 m 1,0,-1
 32 81 l 1,1,-1
 65 84 l 2,2,3
 94 87 94 87 94 112 c 2,4,-1
 94 577 l 1,5,-1
 37 580 l 1,6,-1
 37 665 l 1,7,-1
 310 665 l 2,8,9
 426 665 426 665 488 622 c 128,-1,10
 550 579 550 579 550 481 c 0,11,12
 550 413 550 413 514.5 369 c 128,-1,13
 479 325 479 325 430 305 c 1,14,15
 466 292 466 292 487 244 c 2,16,-1
 559 87 l 1,17,-1
 616 85 l 1,18,-1
 616 0 l 1,19,-1
 369 0 l 1,20,-1
 369 81 l 1,21,-1
 398 84 l 2,22,23
 421 87 421 87 421 102 c 0,24,25
 421 108 421 108 417 116 c 2,26,-1
 370 216 l 2,27,28
 359 241 359 241 345.5 251.5 c 128,-1,29
 332 262 332 262 307 262 c 2,30,-1
 216 262 l 1,31,-1
 216 88 l 1,32,-1
 281 85 l 1,33,-1
 281 0 l 1,34,-1
 32 0 l 1,0,-1
216 357 m 1,35,-1
 303 357 l 2,36,37
 426 357 426 357 426 467 c 0,38,39
 426 530 426 530 393.5 549 c 128,-1,40
 361 568 361 568 289 568 c 2,41,-1
 216 568 l 1,42,-1
 216 357 l 1,35,-1
204 750 m 1,43,-1
 366 907 l 1,44,-1
 406 874 l 1,45,46
 424 857 424 857 424 841 c 0,47,48
 424 816 424 816 389 796 c 2,49,-1
 234 709 l 1,50,-1
 204 750 l 1,43,-1
EndSplineSet
EndChar

StartChar: Rcommaaccent
Encoding: 342 342 280
Width: 626
GlyphClass: 2
Flags: W
LayerCount: 2
Fore
SplineSet
32 0 m 1,0,-1
 32 81 l 1,1,-1
 65 84 l 2,2,3
 94 87 94 87 94 112 c 2,4,-1
 94 577 l 1,5,-1
 37 580 l 1,6,-1
 37 665 l 1,7,-1
 310 665 l 2,8,9
 426 665 426 665 488 622 c 128,-1,10
 550 579 550 579 550 481 c 0,11,12
 550 413 550 413 514.5 369 c 128,-1,13
 479 325 479 325 430 305 c 1,14,15
 466 292 466 292 487 244 c 2,16,-1
 559 87 l 1,17,-1
 616 85 l 1,18,-1
 616 0 l 1,19,-1
 369 0 l 1,20,-1
 369 81 l 1,21,-1
 398 84 l 2,22,23
 421 87 421 87 421 102 c 0,24,25
 421 108 421 108 417 116 c 2,26,-1
 370 216 l 2,27,28
 359 241 359 241 345.5 251.5 c 128,-1,29
 332 262 332 262 307 262 c 2,30,-1
 216 262 l 1,31,-1
 216 88 l 1,32,-1
 281 85 l 1,33,-1
 281 0 l 1,34,-1
 32 0 l 1,0,-1
216 357 m 1,35,-1
 303 357 l 2,36,37
 426 357 426 357 426 467 c 0,38,39
 426 530 426 530 393.5 549 c 128,-1,40
 361 568 361 568 289 568 c 2,41,-1
 216 568 l 1,42,-1
 216 357 l 1,35,-1
283 -61 m 1,43,-1
 332 -71 l 2,44,45
 364 -77 364 -77 369 -100 c 0,46,47
 370 -104 370 -104 370 -115.5 c 128,-1,48
 370 -127 370 -127 356 -146 c 1,49,-1
 270 -281 l 1,50,-1
 224 -259 l 1,51,-1
 283 -61 l 1,43,-1
EndSplineSet
EndChar

